<?xml version="1.0" encoding="UTF-8" standalone="no"?>
<!DOCTYPE svg PUBLIC "-//W3C//DTD SVG 1.1//EN"
 "http://www.w3.org/Graphics/SVG/1.1/DTD/svg11.dtd">
<!-- Generated by graphviz version 15.1.0 (20260618.0150)
 -->
<!-- Title: G Pages: 1 -->
<svg data-diagram-theme="chalkboard-dark-v1" width="773pt" height="1035pt"
 viewBox="12.00 12.00 762.00 1024.00" xmlns="http://www.w3.org/2000/svg" xmlns:xlink="http://www.w3.org/1999/xlink">
<g id="graph0" class="graph" transform="scale(1.33333 1.33333) rotate(0) translate(36 740.55)">
<title>G</title>
<polygon fill="#1e1e1e" stroke="none" points="-27.36,27.36 -27.36,-731.91 535.15,-731.91 535.15,27.36 -27.36,27.36"/>
<text xml:space="preserve" text-anchor="middle" x="253.89" y="-681.55" font-family="Noto Sans KR" font-size="20.00" fill="#efefef">Effect 실행 상세 3 · 원자적 커밋과 후속 반응</text>
<!-- CommitPlan&#45;&gt;RuntimeCommitter -->
<g id="edge1" class="edge">
<title>CommitPlan&#45;&gt;RuntimeCommitter</title>
<path fill="none" stroke="#efefef" stroke-width="1.7" d="M342.77,-626.64C342.77,-610.66 342.77,-588.73 342.77,-570.62"/>
<polygon fill="#efefef" stroke="#efefef" stroke-width="1.7" points="345.85,-570.74 342.77,-561.94 339.69,-570.74 345.85,-570.74"/>
<text xml:space="preserve" text-anchor="middle" x="372.02" y="-589.42" font-family="Noto Sans KR" font-size="10.50" fill="#bfc3c8">Commit 요청</text>
</g>
<!-- RuntimeCommitter&#45;&gt;AtomicWrite -->
<g id="edge2" class="edge">
<title>RuntimeCommitter&#45;&gt;AtomicWrite</title>
<path fill="none" stroke="#70d0a8" stroke-width="1.7" d="M326.22,-513.44C316.37,-500.34 305.77,-486.25 305.77,-486.25 305.77,-486.25 298.08,-471.36 290.24,-456.18"/>
<polygon fill="#70d0a8" stroke="#70d0a8" stroke-width="1.7" points="293.1,-455.01 286.32,-448.6 287.63,-457.83 293.1,-455.01"/>
<text xml:space="preserve" text-anchor="middle" x="331.27" y="-476.27" font-family="Noto Sans KR" font-size="10.50" fill="#bfc3c8">원자적 확정</text>
</g>
<!-- RuntimeCommitter&#45;&gt;Failure -->
<g id="edge8" class="edge">
<title>RuntimeCommitter&#45;&gt;Failure</title>
<path fill="none" stroke="#ff8da1" stroke-width="1.7" stroke-dasharray="5,2" d="M351.72,-513.44C357.04,-500.34 362.77,-486.25 362.77,-486.25 362.77,-486.25 383.92,-426.24 398.71,-384.29"/>
<polygon fill="#ff8da1" stroke="#ff8da1" stroke-width="1.7" points="401.53,-385.54 401.55,-376.22 395.72,-383.49 401.53,-385.54"/>
<text xml:space="preserve" text-anchor="middle" x="387.3" y="-476.27" font-family="Noto Sans KR" font-size="10.50" fill="#ff8da1">검증 실패</text>
</g>
<!-- AtomicWrite&#45;&gt;Receipt -->
<g id="edge3" class="edge">
<title>AtomicWrite&#45;&gt;Receipt</title>
<path fill="none" stroke="#70d0a8" stroke-width="1.7" d="M266.17,-400.29C261.64,-387.19 256.77,-373.1 256.77,-373.1 256.77,-373.1 256.77,-313.7 256.77,-313.7 256.77,-313.7 258.25,-306.42 260.07,-297.46"/>
<polygon fill="#70d0a8" stroke="#70d0a8" stroke-width="1.7" points="263.05,-298.27 261.78,-289.03 257.01,-297.04 263.05,-298.27"/>
<text xml:space="preserve" text-anchor="middle" x="288.27" y="-339.8" font-family="Noto Sans KR" font-size="10.50" fill="#bfc3c8">커밋 사실 반환</text>
</g>
<!-- Receipt&#45;&gt;Dispatcher -->
<g id="edge4" class="edge">
<title>Receipt&#45;&gt;Dispatcher</title>
<path fill="none" stroke="#efefef" stroke-width="1.7" d="M264.73,-240.46C263.28,-224.81 261.29,-203.34 259.55,-184.61"/>
<polygon fill="#efefef" stroke="#efefef" stroke-width="1.7" points="262.62,-184.42 258.75,-175.94 256.49,-184.99 262.62,-184.42"/>
<text xml:space="preserve" text-anchor="middle" x="288.93" y="-203.33" font-family="Noto Sans KR" font-size="10.50" fill="#bfc3c8">outbox 공개</text>
</g>
<!-- Dispatcher&#45;&gt;ReactionQueue -->
<g id="edge5" class="edge">
<title>Dispatcher&#45;&gt;ReactionQueue</title>
<path fill="none" stroke="#e487c7" stroke-width="1.7" d="M213.01,-112.52C185.8,-93.86 150.75,-69.82 123.87,-51.39"/>
<polygon fill="#e487c7" stroke="#e487c7" stroke-width="1.7" points="125.85,-49.01 116.85,-46.57 122.36,-54.09 125.85,-49.01"/>
<text xml:space="preserve" text-anchor="middle" x="210.89" y="-75.18" font-family="Noto Sans KR" font-size="10.50" fill="#bfc3c8">matching reaction</text>
</g>
<!-- Dispatcher&#45;&gt;Response -->
<g id="edge6" class="edge">
<title>Dispatcher&#45;&gt;Response</title>
<path fill="none" stroke="#bfc3c8" stroke-width="1.7" d="M282.49,-112.4C299.66,-93.47 318.77,-72.4 318.77,-72.4 318.77,-72.4 339.41,-61.71 361.46,-50.29"/>
<polygon fill="#bfc3c8" stroke="#bfc3c8" stroke-width="1.7" points="362.59,-53.18 368.99,-46.39 359.76,-47.71 362.59,-53.18"/>
<text xml:space="preserve" text-anchor="middle" x="350.27" y="-75.18" font-family="Noto Sans KR" font-size="10.50" fill="#bfc3c8">일치 반응 없음</text>
</g>
<!-- ReactionQueue&#45;&gt;Response -->
<g id="edge7" class="edge">
<title>ReactionQueue&#45;&gt;Response</title>
<path fill="none" stroke="#efefef" stroke-width="1.7" d="M166.3,-22.2C209.2,-22.2 261.94,-22.2 307.69,-22.2"/>
<polygon fill="#efefef" stroke="#efefef" stroke-width="1.7" points="307.48,-25.28 316.28,-22.2 307.48,-19.12 307.48,-25.28"/>
<text xml:space="preserve" text-anchor="middle" x="242.64" y="-27.98" font-family="Noto Sans KR" font-size="10.50" fill="#bfc3c8">새 command를 별도 실행</text>
</g>
<!-- Failure&#45;&gt;Response -->
<g id="edge9" class="edge">
<title>Failure&#45;&gt;Response</title>
<path fill="none" stroke="#efefef" stroke-width="1.7" d="M412.86,-312.94C413.05,-253.35 413.47,-118.86 413.67,-56.33"/>
<polygon fill="#efefef" stroke="#efefef" stroke-width="1.7" points="416.75,-56.55 413.69,-47.74 410.59,-56.53 416.75,-56.55"/>
<text xml:space="preserve" text-anchor="middle" x="433.83" y="-203.33" font-family="Noto Sans KR" font-size="10.50" fill="#bfc3c8">실패 결과</text>
</g>
<!-- CommitPlan -->
<g id="node1" class="node">
<title>CommitPlan</title>
<path fill="#176b80" stroke="#77d3e5" stroke-width="1.8" d="M421.04,-671.8C421.04,-671.8 264.5,-671.8 264.5,-671.8 258.5,-671.8 252.5,-665.8 252.5,-659.8 252.5,-659.8 252.5,-639.4 252.5,-639.4 252.5,-633.4 258.5,-627.4 264.5,-627.4 264.5,-627.4 421.04,-627.4 421.04,-627.4 427.04,-627.4 433.04,-633.4 433.04,-639.4 433.04,-639.4 433.04,-659.8 433.04,-659.8 433.04,-665.8 427.04,-671.8 421.04,-671.8"/>
<text xml:space="preserve" text-anchor="middle" x="342.77" y="-653.2" font-family="Noto Sans KR" font-size="12.00" fill="#efefef">CommitPlan</text>
<text xml:space="preserve" text-anchor="middle" x="342.77" y="-638.2" font-family="Noto Sans KR" font-size="12.00" fill="#efefef">검증된 mutation + outbox 계획</text>
</g>
<!-- RuntimeCommitter -->
<g id="node2" class="node">
<title>RuntimeCommitter</title>
<path fill="#14745b" stroke="#70d0a8" stroke-width="1.8" d="M415.04,-558.65C415.04,-558.65 270.5,-558.65 270.5,-558.65 264.5,-558.65 258.5,-552.65 258.5,-546.65 258.5,-546.65 258.5,-526.25 258.5,-526.25 258.5,-520.25 264.5,-514.25 270.5,-514.25 270.5,-514.25 415.04,-514.25 415.04,-514.25 421.04,-514.25 427.04,-520.25 427.04,-526.25 427.04,-526.25 427.04,-546.65 427.04,-546.65 427.04,-552.65 421.04,-558.65 415.04,-558.65"/>
<text xml:space="preserve" text-anchor="middle" x="342.77" y="-540.05" font-family="Noto Sans KR" font-size="12.00" fill="#efefef">RuntimeCommitter</text>
<text xml:space="preserve" text-anchor="middle" x="342.77" y="-525.05" font-family="Noto Sans KR" font-size="12.00" fill="#efefef">version · invariant 최종 확인</text>
</g>
<!-- AtomicWrite -->
<g id="node3" class="node">
<title>AtomicWrite</title>
<path fill="#fd7e14" stroke="#ffb45c" stroke-width="1.8" d="M330.29,-445.5C330.29,-445.5 217.25,-445.5 217.25,-445.5 211.25,-445.5 205.25,-439.5 205.25,-433.5 205.25,-433.5 205.25,-413.1 205.25,-413.1 205.25,-407.1 211.25,-401.1 217.25,-401.1 217.25,-401.1 330.29,-401.1 330.29,-401.1 336.29,-401.1 342.29,-407.1 342.29,-413.1 342.29,-413.1 342.29,-433.5 342.29,-433.5 342.29,-439.5 336.29,-445.5 330.29,-445.5"/>
<text xml:space="preserve" text-anchor="middle" x="273.77" y="-426.9" font-family="Noto Sans KR" font-size="12.00" fill="#161924">상태 + durable outbox</text>
<text xml:space="preserve" text-anchor="middle" x="273.77" y="-411.9" font-family="Noto Sans KR" font-size="12.00" fill="#161924">한 트랜잭션으로 기록</text>
</g>
<!-- Receipt -->
<g id="node4" class="node">
<title>Receipt</title>
<path fill="#176b80" stroke="#77d3e5" stroke-width="1.8" d="M313.54,-285.7C313.54,-285.7 220,-285.7 220,-285.7 214,-285.7 208,-279.7 208,-273.7 208,-273.7 208,-253.3 208,-253.3 208,-247.3 214,-241.3 220,-241.3 220,-241.3 313.54,-241.3 313.54,-241.3 319.54,-241.3 325.54,-247.3 325.54,-253.3 325.54,-253.3 325.54,-273.7 325.54,-273.7 325.54,-279.7 319.54,-285.7 313.54,-285.7"/>
<text xml:space="preserve" text-anchor="middle" x="266.77" y="-267.1" font-family="Noto Sans KR" font-size="12.00" fill="#efefef">CommitReceipt</text>
<text xml:space="preserve" text-anchor="middle" x="266.77" y="-252.1" font-family="Noto Sans KR" font-size="12.00" fill="#efefef">+ committed facts</text>
</g>
<!-- Dispatcher -->
<g id="node5" class="node">
<title>Dispatcher</title>
<path fill="#868e96" stroke="#bfc3c8" stroke-width="1.8" stroke-dasharray="5,2" d="M337.41,-172.55C337.41,-172.55 174.12,-172.55 174.12,-172.55 168.12,-172.55 162.12,-166.55 162.12,-160.55 162.12,-160.55 162.12,-125.15 162.12,-125.15 162.12,-119.15 168.12,-113.15 174.12,-113.15 174.12,-113.15 337.41,-113.15 337.41,-113.15 343.41,-113.15 349.41,-119.15 349.41,-125.15 349.41,-125.15 349.41,-160.55 349.41,-160.55 349.41,-166.55 343.41,-172.55 337.41,-172.55"/>
<text xml:space="preserve" text-anchor="middle" x="255.77" y="-153.95" font-family="Noto Sans KR" font-size="12.00" fill="#161924">&lt;&lt;product adapter boundary&gt;&gt;</text>
<text xml:space="preserve" text-anchor="middle" x="255.77" y="-138.95" font-family="Noto Sans KR" font-size="12.00" fill="#161924">External dispatcher</text>
<text xml:space="preserve" text-anchor="middle" x="255.77" y="-123.95" font-family="Noto Sans KR" font-size="12.00" fill="#161924">커밋된 outbox만 읽음</text>
</g>
<!-- ReactionQueue -->
<g id="node6" class="node">
<title>ReactionQueue</title>
<path fill="#b93d8e" stroke="#e487c7" stroke-width="1.8" d="M153.54,-44.4C153.54,-44.4 12,-44.4 12,-44.4 6,-44.4 0,-38.4 0,-32.4 0,-32.4 0,-12 0,-12 0,-6 6,0 12,0 12,0 153.54,0 153.54,0 159.54,0 165.54,-6 165.54,-12 165.54,-12 165.54,-32.4 165.54,-32.4 165.54,-38.4 159.54,-44.4 153.54,-44.4"/>
<text xml:space="preserve" text-anchor="middle" x="82.77" y="-25.8" font-family="Noto Sans KR" font-size="12.00" fill="#efefef">ReactionQueue</text>
<text xml:space="preserve" text-anchor="middle" x="82.77" y="-10.8" font-family="Noto Sans KR" font-size="12.00" fill="#efefef">상한이 있는 후속 command</text>
</g>
<!-- Response -->
<g id="node7" class="node">
<title>Response</title>
<path fill="#868e96" stroke="#bfc3c8" stroke-width="1.8" d="M495.79,-44.4C495.79,-44.4 331.75,-44.4 331.75,-44.4 325.75,-44.4 319.75,-38.4 319.75,-32.4 319.75,-32.4 319.75,-12 319.75,-12 319.75,-6 325.75,0 331.75,0 331.75,0 495.79,0 495.79,0 501.79,0 507.79,-6 507.79,-12 507.79,-12 507.79,-32.4 507.79,-32.4 507.79,-38.4 501.79,-44.4 495.79,-44.4"/>
<text xml:space="preserve" text-anchor="middle" x="413.77" y="-25.8" font-family="Noto Sans KR" font-size="12.00" fill="#161924">Product response / DebugTrace</text>
<text xml:space="preserve" text-anchor="middle" x="413.77" y="-10.8" font-family="Noto Sans KR" font-size="12.00" fill="#161924">commit · no&#45;op · 실패 관찰</text>
</g>
<!-- Failure -->
<g id="node8" class="node">
<title>Failure</title>
<polygon fill="#a63b4e" stroke="#ff8da1" stroke-width="1.8" points="479.04,-373.1 340.5,-373.1 340.5,-313.7 485.04,-313.7 485.04,-367.1 479.04,-373.1"/>
<polyline fill="none" stroke="#ff8da1" stroke-width="1.8" points="479.04,-373.1 479.04,-367.1"/>
<polyline fill="none" stroke="#ff8da1" stroke-width="1.8" points="485.04,-367.1 479.04,-367.1"/>
<text xml:space="preserve" text-anchor="middle" x="412.77" y="-354.5" font-family="Noto Sans KR" font-size="12.00" fill="#efefef">커밋 거부</text>
<text xml:space="preserve" text-anchor="middle" x="412.77" y="-339.5" font-family="Noto Sans KR" font-size="12.00" fill="#efefef">version / invariant 실패</text>
<text xml:space="preserve" text-anchor="middle" x="412.77" y="-324.5" font-family="Noto Sans KR" font-size="12.00" fill="#efefef">상태 · outbox 변경 없음</text>
</g>
</g>
</svg>
