<?xml version="1.0" encoding="UTF-8" standalone="no"?>
<!DOCTYPE svg PUBLIC "-//W3C//DTD SVG 1.1//EN"
 "http://www.w3.org/Graphics/SVG/1.1/DTD/svg11.dtd">
<!-- Generated by graphviz version 15.1.0 (20260618.0150)
 -->
<!-- Title: G Pages: 1 -->
<svg data-diagram-theme="chalkboard-dark-v1" width="1004pt" height="736pt"
 viewBox="12.00 12.00 992.00 724.00" xmlns="http://www.w3.org/2000/svg" xmlns:xlink="http://www.w3.org/1999/xlink">
<g id="graph0" class="graph" transform="scale(1.33333 1.33333) rotate(0) translate(36 515.75)">
<title>G</title>
<polygon fill="#1e1e1e" stroke="none" points="-27.36,27.36 -27.36,-507.11 708.16,-507.11 708.16,27.36 -27.36,27.36"/>
<text xml:space="preserve" text-anchor="middle" x="212.75" y="-456.75" font-family="Noto Sans KR" font-size="20.00" fill="#efefef">Core Runtime 상세 04 · 관찰 로그와 디버그 추적</text>
<g id="clust1" class="cluster">
<title>cluster_systems</title>
<path fill="#1e1e1e" stroke="#ffa94d" stroke-width="2.4" stroke-dasharray="5,2" d="M20,-8C20,-8 143.6,-8 143.6,-8 149.6,-8 155.6,-14 155.6,-20 155.6,-20 155.6,-307 155.6,-307 155.6,-313 149.6,-319 143.6,-319 143.6,-319 20,-319 20,-319 14,-319 8,-313 8,-307 8,-307 8,-20 8,-20 8,-14 14,-8 20,-8"/>
<text xml:space="preserve" text-anchor="middle" x="55.38" y="-299.8" font-family="Noto Sans KR" font-size="16.00" fill="#bfc3c8">실행 시스템</text>
</g>
<g id="clust2" class="cluster">
<title>cluster_observations</title>
<path fill="#1e1e1e" stroke="#ffa94d" stroke-width="2.4" stroke-dasharray="5,2" d="M282.6,-8C282.6,-8 406.2,-8 406.2,-8 412.2,-8 418.2,-14 418.2,-20 418.2,-20 418.2,-427 418.2,-427 418.2,-433 412.2,-439 406.2,-439 406.2,-439 282.6,-439 282.6,-439 276.6,-439 270.6,-433 270.6,-427 270.6,-427 270.6,-20 270.6,-20 270.6,-14 276.6,-8 282.6,-8"/>
<text xml:space="preserve" text-anchor="middle" x="310.47" y="-419.8" font-family="Noto Sans KR" font-size="16.00" fill="#bfc3c8">관찰 레인</text>
</g>
<!-- Stat -->
<g id="node1" class="node">
<title>Stat</title>
<path fill="#1971c2" stroke="#70b7ff" stroke-width="1.8" d="M143.6,-50.48C143.6,-50.48 20,-50.48 20,-50.48 14,-50.48 8,-44.48 8,-38.48 8,-38.48 8,-19.52 8,-19.52 8,-13.52 14,-7.52 20,-7.52 20,-7.52 143.6,-7.52 143.6,-7.52 149.6,-7.52 155.6,-13.52 155.6,-19.52 155.6,-19.52 155.6,-38.48 155.6,-38.48 155.6,-44.48 149.6,-50.48 143.6,-50.48"/>
<text xml:space="preserve" text-anchor="middle" x="81.8" y="-32.6" font-family="Noto Sans KR" font-size="12.00" fill="#efefef">Stat System</text>
<text xml:space="preserve" text-anchor="middle" x="81.8" y="-17.6" font-family="Noto Sans KR" font-size="12.00" fill="#efefef">계산 수행</text>
</g>
<!-- Effect -->
<g id="node2" class="node">
<title>Effect</title>
<path fill="#a63b4e" stroke="#ff8da1" stroke-width="1.8" d="M143.6,-170.48C143.6,-170.48 20,-170.48 20,-170.48 14,-170.48 8,-164.48 8,-158.48 8,-158.48 8,-139.52 8,-139.52 8,-133.52 14,-127.52 20,-127.52 20,-127.52 143.6,-127.52 143.6,-127.52 149.6,-127.52 155.6,-133.52 155.6,-139.52 155.6,-139.52 155.6,-158.48 155.6,-158.48 155.6,-164.48 149.6,-170.48 143.6,-170.48"/>
<text xml:space="preserve" text-anchor="middle" x="81.8" y="-152.6" font-family="Noto Sans KR" font-size="12.00" fill="#efefef">Effect System</text>
<text xml:space="preserve" text-anchor="middle" x="81.8" y="-137.6" font-family="Noto Sans KR" font-size="12.00" fill="#efefef">효과 실행</text>
</g>
<!-- Stat&#45;&gt;Effect -->
<!-- StatObservation -->
<g id="node4" class="node">
<title>StatObservation</title>
<path fill="#868e96" stroke="#bfc3c8" stroke-width="1.8" d="M406.2,-50.48C406.2,-50.48 282.6,-50.48 282.6,-50.48 276.6,-50.48 270.6,-44.48 270.6,-38.48 270.6,-38.48 270.6,-19.52 270.6,-19.52 270.6,-13.52 276.6,-7.52 282.6,-7.52 282.6,-7.52 406.2,-7.52 406.2,-7.52 412.2,-7.52 418.2,-13.52 418.2,-19.52 418.2,-19.52 418.2,-38.48 418.2,-38.48 418.2,-44.48 412.2,-50.48 406.2,-50.48"/>
<text xml:space="preserve" text-anchor="middle" x="344.4" y="-32.6" font-family="Noto Sans KR" font-size="12.00" fill="#161924">Stat breakdown</text>
<text xml:space="preserve" text-anchor="middle" x="344.4" y="-17.6" font-family="Noto Sans KR" font-size="12.00" fill="#161924">스탯 계산 근거</text>
</g>
<!-- Stat&#45;&gt;StatObservation -->
<g id="edge6" class="edge">
<title>Stat&#45;&gt;StatObservation</title>
<path fill="none" stroke="#efefef" stroke-width="1.7" d="M156.43,-29C188.35,-29 225.89,-29 258.93,-29"/>
<polygon fill="#efefef" stroke="#efefef" stroke-width="1.7" points="258.58,-32.08 267.38,-29 258.58,-25.92 258.58,-32.08"/>
<text xml:space="preserve" text-anchor="middle" x="213.1" y="-31.77" font-family="Noto Sans KR" font-size="10.50" fill="#bfc3c8">계산 결과 관찰</text>
</g>
<!-- Combat -->
<g id="node3" class="node">
<title>Combat</title>
<path fill="#14745b" stroke="#70d0a8" stroke-width="1.8" d="M143.6,-290.48C143.6,-290.48 20,-290.48 20,-290.48 14,-290.48 8,-284.48 8,-278.48 8,-278.48 8,-259.52 8,-259.52 8,-253.52 14,-247.52 20,-247.52 20,-247.52 143.6,-247.52 143.6,-247.52 149.6,-247.52 155.6,-253.52 155.6,-259.52 155.6,-259.52 155.6,-278.48 155.6,-278.48 155.6,-284.48 149.6,-290.48 143.6,-290.48"/>
<text xml:space="preserve" text-anchor="middle" x="81.8" y="-272.6" font-family="Noto Sans KR" font-size="12.00" fill="#efefef">Combat System</text>
<text xml:space="preserve" text-anchor="middle" x="81.8" y="-257.6" font-family="Noto Sans KR" font-size="12.00" fill="#efefef">피해 해석</text>
</g>
<!-- Effect&#45;&gt;Combat -->
<!-- EffectObservation -->
<g id="node5" class="node">
<title>EffectObservation</title>
<path fill="#868e96" stroke="#bfc3c8" stroke-width="1.8" d="M406.2,-170.48C406.2,-170.48 282.6,-170.48 282.6,-170.48 276.6,-170.48 270.6,-164.48 270.6,-158.48 270.6,-158.48 270.6,-139.52 270.6,-139.52 270.6,-133.52 276.6,-127.52 282.6,-127.52 282.6,-127.52 406.2,-127.52 406.2,-127.52 412.2,-127.52 418.2,-133.52 418.2,-139.52 418.2,-139.52 418.2,-158.48 418.2,-158.48 418.2,-164.48 412.2,-170.48 406.2,-170.48"/>
<text xml:space="preserve" text-anchor="middle" x="344.4" y="-152.6" font-family="Noto Sans KR" font-size="12.00" fill="#161924">Effect execution log</text>
<text xml:space="preserve" text-anchor="middle" x="344.4" y="-137.6" font-family="Noto Sans KR" font-size="12.00" fill="#161924">효과 실행 기록</text>
</g>
<!-- Effect&#45;&gt;EffectObservation -->
<g id="edge7" class="edge">
<title>Effect&#45;&gt;EffectObservation</title>
<path fill="none" stroke="#efefef" stroke-width="1.7" d="M156.43,-149C188.35,-149 225.89,-149 258.93,-149"/>
<polygon fill="#efefef" stroke="#efefef" stroke-width="1.7" points="258.58,-152.08 267.38,-149 258.58,-145.92 258.58,-152.08"/>
<text xml:space="preserve" text-anchor="middle" x="213.1" y="-151.78" font-family="Noto Sans KR" font-size="10.50" fill="#bfc3c8">실행 결과 관찰</text>
</g>
<!-- CombatObservation -->
<g id="node6" class="node">
<title>CombatObservation</title>
<path fill="#868e96" stroke="#bfc3c8" stroke-width="1.8" d="M406.2,-290.48C406.2,-290.48 282.6,-290.48 282.6,-290.48 276.6,-290.48 270.6,-284.48 270.6,-278.48 270.6,-278.48 270.6,-259.52 270.6,-259.52 270.6,-253.52 276.6,-247.52 282.6,-247.52 282.6,-247.52 406.2,-247.52 406.2,-247.52 412.2,-247.52 418.2,-253.52 418.2,-259.52 418.2,-259.52 418.2,-278.48 418.2,-278.48 418.2,-284.48 412.2,-290.48 406.2,-290.48"/>
<text xml:space="preserve" text-anchor="middle" x="344.4" y="-272.6" font-family="Noto Sans KR" font-size="12.00" fill="#161924">Combat damage log</text>
<text xml:space="preserve" text-anchor="middle" x="344.4" y="-257.6" font-family="Noto Sans KR" font-size="12.00" fill="#161924">피해 계산 기록</text>
</g>
<!-- Combat&#45;&gt;CombatObservation -->
<g id="edge8" class="edge">
<title>Combat&#45;&gt;CombatObservation</title>
<path fill="none" stroke="#efefef" stroke-width="1.7" d="M156.43,-269C188.35,-269 225.89,-269 258.93,-269"/>
<polygon fill="#efefef" stroke="#efefef" stroke-width="1.7" points="258.58,-272.08 267.38,-269 258.58,-265.92 258.58,-272.08"/>
<text xml:space="preserve" text-anchor="middle" x="213.1" y="-271.77" font-family="Noto Sans KR" font-size="10.50" fill="#bfc3c8">피해 결과 관찰</text>
</g>
<!-- StatObservation&#45;&gt;EffectObservation -->
<!-- DebugTrace -->
<g id="node8" class="node">
<title>DebugTrace</title>
<path fill="#868e96" stroke="#bfc3c8" stroke-width="1.8" d="M668.8,-237.98C668.8,-237.98 545.2,-237.98 545.2,-237.98 539.2,-237.98 533.2,-231.98 533.2,-225.98 533.2,-225.98 533.2,-192.02 533.2,-192.02 533.2,-186.02 539.2,-180.02 545.2,-180.02 545.2,-180.02 668.8,-180.02 668.8,-180.02 674.8,-180.02 680.8,-186.02 680.8,-192.02 680.8,-192.02 680.8,-225.98 680.8,-225.98 680.8,-231.98 674.8,-237.98 668.8,-237.98"/>
<text xml:space="preserve" text-anchor="middle" x="607" y="-220.1" font-family="Noto Sans KR" font-size="12.00" fill="#161924">DebugTrace</text>
<text xml:space="preserve" text-anchor="middle" x="607" y="-205.1" font-family="Noto Sans KR" font-size="12.00" fill="#161924">correlationId · 계산 근거</text>
<text xml:space="preserve" text-anchor="middle" x="607" y="-190.1" font-family="Noto Sans KR" font-size="12.00" fill="#161924">통합 실행 추적</text>
</g>
<!-- StatObservation&#45;&gt;DebugTrace -->
<g id="edge9" class="edge">
<title>StatObservation&#45;&gt;DebugTrace</title>
<path fill="none" stroke="#efefef" stroke-width="1.7" d="M377.62,-51.25C421.68,-81.69 501.26,-136.66 553.87,-173"/>
<polygon fill="#efefef" stroke="#efefef" stroke-width="1.7" points="551.94,-175.4 560.93,-177.87 555.44,-170.33 551.94,-175.4"/>
</g>
<!-- EffectObservation&#45;&gt;CombatObservation -->
<!-- EffectObservation&#45;&gt;DebugTrace -->
<g id="edge10" class="edge">
<title>EffectObservation&#45;&gt;DebugTrace</title>
<path fill="none" stroke="#efefef" stroke-width="1.7" d="M419.03,-165.95C450.95,-173.3 488.49,-181.95 521.53,-189.55"/>
<polygon fill="#efefef" stroke="#efefef" stroke-width="1.7" points="520.78,-192.54 530.04,-191.51 522.16,-186.54 520.78,-192.54"/>
</g>
<!-- EventBus -->
<g id="node7" class="node">
<title>EventBus</title>
<path fill="#a63b4e" stroke="#ff8da1" stroke-width="1.8" d="M406.2,-410.48C406.2,-410.48 282.6,-410.48 282.6,-410.48 276.6,-410.48 270.6,-404.48 270.6,-398.48 270.6,-398.48 270.6,-379.52 270.6,-379.52 270.6,-373.52 276.6,-367.52 282.6,-367.52 282.6,-367.52 406.2,-367.52 406.2,-367.52 412.2,-367.52 418.2,-373.52 418.2,-379.52 418.2,-379.52 418.2,-398.48 418.2,-398.48 418.2,-404.48 412.2,-410.48 406.2,-410.48"/>
<text xml:space="preserve" text-anchor="middle" x="344.4" y="-392.6" font-family="Noto Sans KR" font-size="12.00" fill="#efefef">EventBus</text>
<text xml:space="preserve" text-anchor="middle" x="344.4" y="-377.6" font-family="Noto Sans KR" font-size="12.00" fill="#efefef">커밋된 사실</text>
</g>
<!-- CombatObservation&#45;&gt;EventBus -->
<!-- CombatObservation&#45;&gt;DebugTrace -->
<g id="edge11" class="edge">
<title>CombatObservation&#45;&gt;DebugTrace</title>
<path fill="none" stroke="#efefef" stroke-width="1.7" d="M419.03,-252.05C450.95,-244.7 488.49,-236.05 521.53,-228.45"/>
<polygon fill="#efefef" stroke="#efefef" stroke-width="1.7" points="522.16,-231.46 530.04,-226.49 520.78,-225.46 522.16,-231.46"/>
</g>
<!-- EventBus&#45;&gt;DebugTrace -->
<g id="edge12" class="edge">
<title>EventBus&#45;&gt;DebugTrace</title>
<path fill="none" stroke="#efefef" stroke-width="1.7" d="M377.62,-366.75C421.68,-336.31 501.26,-281.34 553.87,-245"/>
<polygon fill="#efefef" stroke="#efefef" stroke-width="1.7" points="555.44,-247.67 560.93,-240.13 551.94,-242.6 555.44,-247.67"/>
<text xml:space="preserve" text-anchor="middle" x="475.7" y="-323.19" font-family="Noto Sans KR" font-size="10.50" fill="#bfc3c8">커밋 사실 관찰</text>
</g>
</g>
</svg>
