<?xml version="1.0" encoding="UTF-8" standalone="no"?>
<!DOCTYPE svg PUBLIC "-//W3C//DTD SVG 1.1//EN"
 "http://www.w3.org/Graphics/SVG/1.1/DTD/svg11.dtd">
<!-- Generated by graphviz version 15.1.0 (20260618.0150)
 -->
<!-- Title: G Pages: 1 -->
<svg data-diagram-theme="chalkboard-dark-v1" width="841pt" height="1227pt"
 viewBox="12.00 12.00 829.00 1216.00" xmlns="http://www.w3.org/2000/svg" xmlns:xlink="http://www.w3.org/1999/xlink">
<g id="graph0" class="graph" transform="scale(1.33333 1.33333) rotate(0) translate(36 884.47)">
<title>G</title>
<polygon fill="#1e1e1e" stroke="none" points="-27.36,27.36 -27.36,-875.83 585.78,-875.83 585.78,27.36 -27.36,27.36"/>
<text xml:space="preserve" text-anchor="middle" x="279.21" y="-825.47" font-family="Noto Sans KR" font-size="20.00" fill="#efefef">Skill Timeline 상세 3/3 · 원자 commit과 후속 처리</text>
<!-- ReleasePlan -->
<g id="node1" class="node">
<title>ReleasePlan</title>
<path fill="#176b80" stroke="#77d3e5" stroke-width="1.8" stroke-dasharray="5,2" d="M361.92,-815.72C361.92,-815.72 140.25,-815.72 140.25,-815.72 134.25,-815.72 128.25,-809.72 128.25,-803.72 128.25,-803.72 128.25,-766.88 128.25,-766.88 128.25,-760.88 134.25,-754.88 140.25,-754.88 140.25,-754.88 361.92,-754.88 361.92,-754.88 367.92,-754.88 373.92,-760.88 373.92,-766.88 373.92,-766.88 373.92,-803.72 373.92,-803.72 373.92,-809.72 367.92,-815.72 361.92,-815.72"/>
<text xml:space="preserve" text-anchor="middle" x="251.09" y="-796.4" font-family="Noto Sans KR" font-size="12.00" fill="#efefef">&lt;&lt;internal project model · product&#45;only&gt;&gt;</text>
<text xml:space="preserve" text-anchor="middle" x="251.09" y="-781.4" font-family="Noto Sans KR" font-size="12.00" fill="#efefef">SkillReleasePlan</text>
<text xml:space="preserve" text-anchor="middle" x="251.09" y="-766.4" font-family="Noto Sans KR" font-size="12.00" fill="#efefef">비용·쿨다운 mutation + EffectBundlePlan</text>
</g>
<!-- Compose -->
<g id="node2" class="node">
<title>Compose</title>
<path fill="#fd7e14" stroke="#ffb45c" stroke-width="1.8" d="M353.3,-686.13C353.3,-686.13 148.88,-686.13 148.88,-686.13 142.88,-686.13 136.88,-680.13 136.88,-674.13 136.88,-674.13 136.88,-637.29 136.88,-637.29 136.88,-631.29 142.88,-625.29 148.88,-625.29 148.88,-625.29 353.3,-625.29 353.3,-625.29 359.3,-625.29 365.3,-631.29 365.3,-637.29 365.3,-637.29 365.3,-674.13 365.3,-674.13 365.3,-680.13 359.3,-686.13 353.3,-686.13"/>
<text xml:space="preserve" text-anchor="middle" x="251.09" y="-666.81" font-family="Noto Sans KR" font-size="12.00" fill="#161924">&lt;&lt;실행 참조와 동등한 경계&gt;&gt;</text>
<text xml:space="preserve" text-anchor="middle" x="251.09" y="-651.81" font-family="Noto Sans KR" font-size="12.00" fill="#161924">하나의 CommitPlan 조합</text>
<text xml:space="preserve" text-anchor="middle" x="251.09" y="-636.81" font-family="Noto Sans KR" font-size="12.00" fill="#161924">version precondition + planned outbox</text>
</g>
<!-- ReleasePlan&#45;&gt;Compose -->
<g id="edge1" class="edge">
<title>ReleasePlan&#45;&gt;Compose</title>
<path fill="none" stroke="#efefef" stroke-width="1.7" stroke-dasharray="5,2" d="M251.09,-754.06C251.09,-737.3 251.09,-716.21 251.09,-697.96"/>
<polygon fill="#efefef" stroke="#efefef" stroke-width="1.7" points="254.17,-698.1 251.09,-689.3 248.01,-698.1 254.17,-698.1"/>
<text xml:space="preserve" text-anchor="middle" x="288.21" y="-716.9" font-family="Noto Sans KR" font-size="10.50" fill="#bfc3c8">release에서 조합</text>
</g>
<!-- Commit -->
<g id="node3" class="node">
<title>Commit</title>
<path fill="#14745b" stroke="#70d0a8" stroke-width="1.8" d="M347.09,-568.29C347.09,-568.29 155.09,-568.29 155.09,-568.29 149.09,-568.29 143.09,-562.29 143.09,-556.29 143.09,-556.29 143.09,-519.45 143.09,-519.45 143.09,-513.45 149.09,-507.45 155.09,-507.45 155.09,-507.45 347.09,-507.45 347.09,-507.45 353.09,-507.45 359.09,-513.45 359.09,-519.45 359.09,-519.45 359.09,-556.29 359.09,-556.29 359.09,-562.29 353.09,-568.29 347.09,-568.29"/>
<text xml:space="preserve" text-anchor="middle" x="251.09" y="-548.97" font-family="Noto Sans KR" font-size="12.00" fill="#efefef">RuntimeCommitter</text>
<text xml:space="preserve" text-anchor="middle" x="251.09" y="-533.97" font-family="Noto Sans KR" font-size="12.00" fill="#efefef">상태 + outbox 원자 commit</text>
<text xml:space="preserve" text-anchor="middle" x="251.09" y="-518.97" font-family="Noto Sans KR" font-size="12.00" fill="#efefef">부분 변경은 허용하지 않음</text>
</g>
<!-- Compose&#45;&gt;Commit -->
<g id="edge2" class="edge">
<title>Compose&#45;&gt;Commit</title>
<path fill="none" stroke="#efefef" stroke-width="1.7" d="M251.09,-624.58C251.09,-611.04 251.09,-594.84 251.09,-580.19"/>
<polygon fill="#efefef" stroke="#efefef" stroke-width="1.7" points="254.17,-580.23 251.09,-571.43 248.01,-580.23 254.17,-580.23"/>
</g>
<!-- Outcome -->
<g id="node4" class="node">
<title>Outcome</title>
<path fill="#b93d8e" stroke="#e487c7" stroke-width="1.8" d="M239.36,-447.91C239.36,-447.91 120.64,-422.15 120.64,-422.15 114.78,-420.88 114.78,-418.34 120.64,-417.07 120.64,-417.07 239.36,-391.31 239.36,-391.31 245.22,-390.04 256.95,-390.04 262.81,-391.31 262.81,-391.31 381.53,-417.07 381.53,-417.07 387.39,-418.34 387.39,-420.88 381.53,-422.15 381.53,-422.15 262.81,-447.91 262.81,-447.91 256.95,-449.18 245.22,-449.18 239.36,-447.91"/>
<text xml:space="preserve" text-anchor="middle" x="251.09" y="-415.71" font-family="Noto Sans KR" font-size="12.00" fill="#efefef">commit이 승인됐는가?</text>
</g>
<!-- Commit&#45;&gt;Outcome -->
<g id="edge3" class="edge">
<title>Commit&#45;&gt;Outcome</title>
<path fill="none" stroke="#efefef" stroke-width="1.7" d="M251.09,-506.63C251.09,-493.14 251.09,-477.04 251.09,-462.42"/>
<polygon fill="#efefef" stroke="#efefef" stroke-width="1.7" points="254.17,-462.48 251.09,-453.68 248.01,-462.48 254.17,-462.48"/>
</g>
<!-- CommitFail -->
<g id="node5" class="node">
<title>CommitFail</title>
<path fill="#a63b4e" stroke="#ff8da1" stroke-width="1.8" d="M256.17,-320.02C256.17,-320.02 12,-320.02 12,-320.02 6,-320.02 0,-314.02 0,-308.02 0,-308.02 0,-271.18 0,-271.18 0,-265.18 6,-259.18 12,-259.18 12,-259.18 256.17,-259.18 256.17,-259.18 262.17,-259.18 268.17,-265.18 268.17,-271.18 268.17,-271.18 268.17,-308.02 268.17,-308.02 268.17,-314.02 262.17,-320.02 256.17,-320.02"/>
<text xml:space="preserve" text-anchor="middle" x="134.09" y="-300.7" font-family="Noto Sans KR" font-size="12.00" fill="#efefef">&lt;&lt;public contract · 실행 C#&gt;&gt;</text>
<text xml:space="preserve" text-anchor="middle" x="134.09" y="-285.7" font-family="Noto Sans KR" font-size="12.00" fill="#efefef">SkillResult(FailureReason)</text>
<text xml:space="preserve" text-anchor="middle" x="134.09" y="-270.7" font-family="Noto Sans KR" font-size="12.00" fill="#efefef">version / invariant 실패 · mutation / event 없음</text>
</g>
<!-- Outcome&#45;&gt;CommitFail -->
<g id="edge4" class="edge">
<title>Outcome&#45;&gt;CommitFail</title>
<path fill="none" stroke="#ff8da1" stroke-width="1.7" d="M225.18,-393.74C208.85,-378.07 190.84,-360.77 190.84,-360.77 190.84,-360.77 178.53,-345.55 165.38,-329.29"/>
<polygon fill="#ff8da1" stroke="#ff8da1" stroke-width="1.7" points="168.03,-327.67 160.1,-322.77 163.24,-331.55 168.03,-327.67"/>
<text xml:space="preserve" text-anchor="middle" x="245.96" y="-350.8" font-family="Noto Sans KR" font-size="10.50" fill="#ff8da1">아니오 · stale / invariant</text>
</g>
<!-- Facts -->
<g id="node6" class="node">
<title>Facts</title>
<path fill="#176b80" stroke="#77d3e5" stroke-width="1.8" d="M533.3,-320.02C533.3,-320.02 334.88,-320.02 334.88,-320.02 328.88,-320.02 322.88,-314.02 322.88,-308.02 322.88,-308.02 322.88,-271.18 322.88,-271.18 322.88,-265.18 328.88,-259.18 334.88,-259.18 334.88,-259.18 533.3,-259.18 533.3,-259.18 539.3,-259.18 545.3,-265.18 545.3,-271.18 545.3,-271.18 545.3,-308.02 545.3,-308.02 545.3,-314.02 539.3,-320.02 533.3,-320.02"/>
<text xml:space="preserve" text-anchor="middle" x="434.09" y="-300.7" font-family="Noto Sans KR" font-size="12.00" fill="#efefef">&lt;&lt;실행 증거&gt;&gt; Committed facts</text>
<text xml:space="preserve" text-anchor="middle" x="434.09" y="-285.7" font-family="Noto Sans KR" font-size="12.00" fill="#efefef">SkillCommitted · DamageCommitted</text>
<text xml:space="preserve" text-anchor="middle" x="434.09" y="-270.7" font-family="Noto Sans KR" font-size="12.00" fill="#efefef">commit 성공 뒤에만 관찰 가능</text>
</g>
<!-- Outcome&#45;&gt;Facts -->
<g id="edge5" class="edge">
<title>Outcome&#45;&gt;Facts</title>
<path fill="none" stroke="#70d0a8" stroke-width="1.7" d="M284.65,-395.13C311.89,-376.08 350.75,-348.89 382.02,-327.02"/>
<polygon fill="#70d0a8" stroke="#70d0a8" stroke-width="1.7" points="383.49,-329.75 388.93,-322.18 379.96,-324.7 383.49,-329.75"/>
<text xml:space="preserve" text-anchor="middle" x="367.57" y="-350.8" font-family="Noto Sans KR" font-size="10.50" fill="#70d0a8">예 · 성공</text>
</g>
<!-- Reaction -->
<g id="node7" class="node">
<title>Reaction</title>
<path fill="#b93d8e" stroke="#e487c7" stroke-width="1.8" d="M546.42,-190.43C546.42,-190.43 321.75,-190.43 321.75,-190.43 315.75,-190.43 309.75,-184.43 309.75,-178.43 309.75,-178.43 309.75,-141.59 309.75,-141.59 309.75,-135.59 315.75,-129.59 321.75,-129.59 321.75,-129.59 546.42,-129.59 546.42,-129.59 552.42,-129.59 558.42,-135.59 558.42,-141.59 558.42,-141.59 558.42,-178.43 558.42,-178.43 558.42,-184.43 552.42,-190.43 546.42,-190.43"/>
<text xml:space="preserve" text-anchor="middle" x="434.09" y="-171.11" font-family="Noto Sans KR" font-size="12.00" fill="#efefef">ReactionQueue</text>
<text xml:space="preserve" text-anchor="middle" x="434.09" y="-156.11" font-family="Noto Sans KR" font-size="12.00" fill="#efefef">committed fact를 후속 command로 직렬화</text>
<text xml:space="preserve" text-anchor="middle" x="434.09" y="-141.11" font-family="Noto Sans KR" font-size="12.00" fill="#efefef">Burn 등 상태 변경은 commit 이후 실행</text>
</g>
<!-- Facts&#45;&gt;Reaction -->
<g id="edge6" class="edge">
<title>Facts&#45;&gt;Reaction</title>
<path fill="none" stroke="#efefef" stroke-width="1.7" d="M434.09,-258.36C434.09,-241.6 434.09,-220.51 434.09,-202.26"/>
<polygon fill="#efefef" stroke="#efefef" stroke-width="1.7" points="437.17,-202.4 434.09,-193.6 431.01,-202.4 437.17,-202.4"/>
<text xml:space="preserve" text-anchor="middle" x="462.59" y="-221.21" font-family="Noto Sans KR" font-size="10.50" fill="#bfc3c8">commit 이후</text>
</g>
<!-- Recovery -->
<g id="node8" class="node">
<title>Recovery</title>
<path fill="#868e96" stroke="#bfc3c8" stroke-width="1.8" stroke-dasharray="5,2" d="M530.09,-60.84C530.09,-60.84 338.09,-60.84 338.09,-60.84 332.09,-60.84 326.09,-54.84 326.09,-48.84 326.09,-48.84 326.09,-12 326.09,-12 326.09,-6 332.09,0 338.09,0 338.09,0 530.09,0 530.09,0 536.09,0 542.09,-6 542.09,-12 542.09,-12 542.09,-48.84 542.09,-48.84 542.09,-54.84 536.09,-60.84 530.09,-60.84"/>
<text xml:space="preserve" text-anchor="middle" x="434.09" y="-41.52" font-family="Noto Sans KR" font-size="12.00" fill="#161924">&lt;&lt;product&#45;only presentation&gt;&gt;</text>
<text xml:space="preserve" text-anchor="middle" x="434.09" y="-26.52" font-family="Noto Sans KR" font-size="12.00" fill="#161924">Recovery / visual follow&#45;through</text>
<text xml:space="preserve" text-anchor="middle" x="434.09" y="-11.52" font-family="Noto Sans KR" font-size="12.00" fill="#161924">권위 상태나 outbox를 소유하지 않음</text>
</g>
<!-- Reaction&#45;&gt;Recovery -->
<g id="edge7" class="edge">
<title>Reaction&#45;&gt;Recovery</title>
<path fill="none" stroke="#efefef" stroke-width="1.7" stroke-dasharray="5,2" d="M434.09,-128.77C434.09,-112.01 434.09,-90.92 434.09,-72.67"/>
<polygon fill="#efefef" stroke="#efefef" stroke-width="1.7" points="437.17,-72.81 434.09,-64.01 431.01,-72.81 437.17,-72.81"/>
<text xml:space="preserve" text-anchor="middle" x="454.71" y="-91.62" font-family="Noto Sans KR" font-size="10.50" fill="#bfc3c8">표현 단계</text>
</g>
</g>
</svg>
