<?xml version="1.0" encoding="UTF-8" standalone="no"?>
<!DOCTYPE svg PUBLIC "-//W3C//DTD SVG 1.1//EN"
 "http://www.w3.org/Graphics/SVG/1.1/DTD/svg11.dtd">
<!-- Generated by graphviz version 15.1.0 (20260618.0150)
 -->
<!-- Title: G Pages: 1 -->
<svg data-diagram-theme="chalkboard-dark-v1" width="762pt" height="1236pt"
 viewBox="12.00 12.00 751.00 1224.00" xmlns="http://www.w3.org/2000/svg" xmlns:xlink="http://www.w3.org/1999/xlink">
<g id="graph0" class="graph" transform="scale(1.33333 1.33333) rotate(0) translate(36 890.97)">
<title>G</title>
<polygon fill="#1e1e1e" stroke="none" points="-27.36,27.36 -27.36,-882.33 527.03,-882.33 527.03,27.36 -27.36,27.36"/>
<text xml:space="preserve" text-anchor="middle" x="249.84" y="-831.97" font-family="Noto Sans KR" font-size="20.00" fill="#efefef">Skill Timeline 상세 2/3 · 선딜과 release 준비</text>
<!-- Execution -->
<g id="node1" class="node">
<title>Execution</title>
<path fill="#176b80" stroke="#77d3e5" stroke-width="1.8" stroke-dasharray="5,2" d="M348.54,-822.22C348.54,-822.22 126.87,-822.22 126.87,-822.22 120.87,-822.22 114.87,-816.22 114.87,-810.22 114.87,-810.22 114.87,-773.38 114.87,-773.38 114.87,-767.38 120.87,-761.38 126.87,-761.38 126.87,-761.38 348.54,-761.38 348.54,-761.38 354.54,-761.38 360.54,-767.38 360.54,-773.38 360.54,-773.38 360.54,-810.22 360.54,-810.22 360.54,-816.22 354.54,-822.22 348.54,-822.22"/>
<text xml:space="preserve" text-anchor="middle" x="237.71" y="-802.9" font-family="Noto Sans KR" font-size="12.00" fill="#efefef">&lt;&lt;internal project model · product&#45;only&gt;&gt;</text>
<text xml:space="preserve" text-anchor="middle" x="237.71" y="-787.9" font-family="Noto Sans KR" font-size="12.00" fill="#efefef">SkillExecution</text>
<text xml:space="preserve" text-anchor="middle" x="237.71" y="-772.9" font-family="Noto Sans KR" font-size="12.00" fill="#efefef">windup / cast 진행</text>
</g>
<!-- Interrupted -->
<g id="node2" class="node">
<title>Interrupted</title>
<polygon fill="#b93d8e" stroke="#e487c7" stroke-width="1.8" stroke-dasharray="5,2" points="237.71,-704.38 75.29,-658.54 237.71,-612.7 400.13,-658.54 237.71,-704.38"/>
<text xml:space="preserve" text-anchor="middle" x="237.71" y="-662.14" font-family="Noto Sans KR" font-size="12.00" fill="#efefef">&lt;&lt;product&#45;only timeline&gt;&gt;</text>
<text xml:space="preserve" text-anchor="middle" x="237.71" y="-647.14" font-family="Noto Sans KR" font-size="12.00" fill="#efefef">release 전에 중단됐는가?</text>
</g>
<!-- Execution&#45;&gt;Interrupted -->
<g id="edge1" class="edge">
<title>Execution&#45;&gt;Interrupted</title>
<path fill="none" stroke="#efefef" stroke-width="1.7" stroke-dasharray="5,2" d="M237.71,-760.69C237.71,-747.47 237.71,-731.5 237.71,-716.2"/>
<polygon fill="#efefef" stroke="#efefef" stroke-width="1.7" points="240.79,-716.6 237.71,-707.8 234.63,-716.6 240.79,-716.6"/>
</g>
<!-- Failure -->
<g id="node3" class="node">
<title>Failure</title>
<path fill="#a63b4e" stroke="#ff8da1" stroke-width="1.8" stroke-dasharray="5,2" d="M200.11,-543.95C200.11,-543.95 15.31,-543.95 15.31,-543.95 9.31,-543.95 3.31,-537.95 3.31,-531.95 3.31,-531.95 3.31,-495.11 3.31,-495.11 3.31,-489.11 9.31,-483.11 15.31,-483.11 15.31,-483.11 200.11,-483.11 200.11,-483.11 206.11,-483.11 212.11,-489.11 212.11,-495.11 212.11,-495.11 212.11,-531.95 212.11,-531.95 212.11,-537.95 206.11,-543.95 200.11,-543.95"/>
<text xml:space="preserve" text-anchor="middle" x="107.71" y="-524.63" font-family="Noto Sans KR" font-size="12.00" fill="#efefef">&lt;&lt;public SkillResult 목표 경계&gt;&gt;</text>
<text xml:space="preserve" text-anchor="middle" x="107.71" y="-509.63" font-family="Noto Sans KR" font-size="12.00" fill="#efefef">중단 실패 사유 반환</text>
<text xml:space="preserve" text-anchor="middle" x="107.71" y="-494.63" font-family="Noto Sans KR" font-size="12.00" fill="#efefef">예약 비용은 폐기</text>
</g>
<!-- Interrupted&#45;&gt;Failure -->
<g id="edge2" class="edge">
<title>Interrupted&#45;&gt;Failure</title>
<path fill="none" stroke="#ff8da1" stroke-width="1.7" stroke-dasharray="5,2" d="M204.91,-621.45C185.91,-600.56 162.02,-574.27 142.67,-552.99"/>
<polygon fill="#ff8da1" stroke="#ff8da1" stroke-width="1.7" points="145.16,-551.15 136.96,-546.71 140.6,-555.29 145.16,-551.15"/>
<text xml:space="preserve" text-anchor="middle" x="188.31" y="-574.73" font-family="Noto Sans KR" font-size="10.50" fill="#ff8da1">예 · 중단</text>
</g>
<!-- Marker -->
<g id="node5" class="node">
<title>Marker</title>
<path fill="#fd7e14" stroke="#ffb45c" stroke-width="1.8" stroke-dasharray="5,2" d="M461.11,-543.95C461.11,-543.95 276.31,-543.95 276.31,-543.95 270.31,-543.95 264.31,-537.95 264.31,-531.95 264.31,-531.95 264.31,-495.11 264.31,-495.11 264.31,-489.11 270.31,-483.11 276.31,-483.11 276.31,-483.11 461.11,-483.11 461.11,-483.11 467.11,-483.11 473.11,-489.11 473.11,-495.11 473.11,-495.11 473.11,-531.95 473.11,-531.95 473.11,-537.95 467.11,-543.95 461.11,-543.95"/>
<text xml:space="preserve" text-anchor="middle" x="368.71" y="-524.63" font-family="Noto Sans KR" font-size="12.00" fill="#161924">&lt;&lt;product&#45;only timeline&gt;&gt;</text>
<text xml:space="preserve" text-anchor="middle" x="368.71" y="-509.63" font-family="Noto Sans KR" font-size="12.00" fill="#161924">release marker 도달</text>
<text xml:space="preserve" text-anchor="middle" x="368.71" y="-494.63" font-family="Noto Sans KR" font-size="12.00" fill="#161924">이 시점부터 실행 plan 준비</text>
</g>
<!-- Interrupted&#45;&gt;Marker -->
<g id="edge4" class="edge">
<title>Interrupted&#45;&gt;Marker</title>
<path fill="none" stroke="#70d0a8" stroke-width="1.7" stroke-dasharray="5,2" d="M270.77,-621.45C289.9,-600.56 313.98,-574.27 333.48,-552.99"/>
<polygon fill="#70d0a8" stroke="#70d0a8" stroke-width="1.7" points="335.57,-555.27 339.24,-546.7 331.03,-551.11 335.57,-555.27"/>
<text xml:space="preserve" text-anchor="middle" x="350.94" y="-574.73" font-family="Noto Sans KR" font-size="10.50" fill="#70d0a8">아니오 · release</text>
</g>
<!-- Compensation -->
<g id="node4" class="node">
<title>Compensation</title>
<polygon fill="#a63b4e" stroke="#ff8da1" stroke-width="1.8" stroke-dasharray="5,2" points="207.42,-414.36 0,-414.36 0,-353.52 213.42,-353.52 213.42,-408.36 207.42,-414.36"/>
<polyline fill="none" stroke="#ff8da1" stroke-width="1.8" stroke-dasharray="5,2" points="207.42,-414.36 207.42,-408.36"/>
<polyline fill="none" stroke="#ff8da1" stroke-width="1.8" stroke-dasharray="5,2" points="213.42,-408.36 207.42,-408.36"/>
<text xml:space="preserve" text-anchor="middle" x="106.71" y="-395.04" font-family="Noto Sans KR" font-size="12.00" fill="#efefef">&lt;&lt;product&#45;only 선택 정책&gt;&gt;</text>
<text xml:space="preserve" text-anchor="middle" x="106.71" y="-380.04" font-family="Noto Sans KR" font-size="12.00" fill="#efefef">선결제였다면 명시적 보상 command</text>
<text xml:space="preserve" text-anchor="middle" x="106.71" y="-365.04" font-family="Noto Sans KR" font-size="12.00" fill="#efefef">현재 실행 C#에는 없음</text>
</g>
<!-- Failure&#45;&gt;Compensation -->
<g id="edge3" class="edge">
<title>Failure&#45;&gt;Compensation</title>
<path fill="none" stroke="#efefef" stroke-width="1.7" stroke-dasharray="5,2" d="M107.47,-482.29C107.34,-465.53 107.18,-444.44 107.03,-426.19"/>
<polygon fill="#efefef" stroke="#efefef" stroke-width="1.7" points="110.11,-426.31 106.97,-417.53 103.95,-426.36 110.11,-426.31"/>
<text xml:space="preserve" text-anchor="middle" x="142.49" y="-445.14" font-family="Noto Sans KR" font-size="10.50" fill="#bfc3c8">선결제인 경우만</text>
</g>
<!-- Context -->
<g id="node6" class="node">
<title>Context</title>
<path fill="#14745b" stroke="#70d0a8" stroke-width="1.8" d="M462.11,-414.36C462.11,-414.36 277.31,-414.36 277.31,-414.36 271.31,-414.36 265.31,-408.36 265.31,-402.36 265.31,-402.36 265.31,-365.52 265.31,-365.52 265.31,-359.52 271.31,-353.52 277.31,-353.52 277.31,-353.52 462.11,-353.52 462.11,-353.52 468.11,-353.52 474.11,-359.52 474.11,-365.52 474.11,-365.52 474.11,-402.36 474.11,-402.36 474.11,-408.36 468.11,-414.36 462.11,-414.36"/>
<text xml:space="preserve" text-anchor="middle" x="369.71" y="-395.04" font-family="Noto Sans KR" font-size="12.00" fill="#efefef">&lt;&lt;public Effect contract&gt;&gt;</text>
<text xml:space="preserve" text-anchor="middle" x="369.71" y="-380.04" font-family="Noto Sans KR" font-size="12.00" fill="#efefef">EffectBundle + EffectContext</text>
<text xml:space="preserve" text-anchor="middle" x="369.71" y="-365.04" font-family="Noto Sans KR" font-size="12.00" fill="#efefef">대상 snapshot과 실행 맥락 전달</text>
</g>
<!-- Marker&#45;&gt;Context -->
<g id="edge5" class="edge">
<title>Marker&#45;&gt;Context</title>
<path fill="none" stroke="#efefef" stroke-width="1.7" stroke-dasharray="5,2" d="M368.95,-482.29C369.08,-465.53 369.24,-444.44 369.39,-426.19"/>
<polygon fill="#efefef" stroke="#efefef" stroke-width="1.7" points="372.47,-426.36 369.45,-417.53 366.31,-426.31 372.47,-426.36"/>
</g>
<!-- Planner -->
<g id="node7" class="node">
<title>Planner</title>
<path fill="#1971c2" stroke="#70b7ff" stroke-width="1.8" d="M462.11,-296.52C462.11,-296.52 277.31,-296.52 277.31,-296.52 271.31,-296.52 265.31,-290.52 265.31,-284.52 265.31,-284.52 265.31,-247.68 265.31,-247.68 265.31,-241.68 271.31,-235.68 277.31,-235.68 277.31,-235.68 462.11,-235.68 462.11,-235.68 468.11,-235.68 474.11,-241.68 474.11,-247.68 474.11,-247.68 474.11,-284.52 474.11,-284.52 474.11,-290.52 468.11,-296.52 462.11,-296.52"/>
<text xml:space="preserve" text-anchor="middle" x="369.71" y="-277.2" font-family="Noto Sans KR" font-size="12.00" fill="#efefef">&lt;&lt;public Effect interface&gt;&gt;</text>
<text xml:space="preserve" text-anchor="middle" x="369.71" y="-262.2" font-family="Noto Sans KR" font-size="12.00" fill="#efefef">IEffectPlanner.Prepare</text>
<text xml:space="preserve" text-anchor="middle" x="369.71" y="-247.2" font-family="Noto Sans KR" font-size="12.00" fill="#efefef">상태를 바꾸지 않고 효과 plan 계산</text>
</g>
<!-- Context&#45;&gt;Planner -->
<g id="edge6" class="edge">
<title>Context&#45;&gt;Planner</title>
<path fill="none" stroke="#efefef" stroke-width="1.7" d="M369.71,-352.81C369.71,-339.27 369.71,-323.07 369.71,-308.42"/>
<polygon fill="#efefef" stroke="#efefef" stroke-width="1.7" points="372.79,-308.46 369.71,-299.66 366.63,-308.46 372.79,-308.46"/>
</g>
<!-- EffectPlan -->
<g id="node8" class="node">
<title>EffectPlan</title>
<path fill="#14745b" stroke="#70d0a8" stroke-width="1.8" d="M462.11,-178.68C462.11,-178.68 277.31,-178.68 277.31,-178.68 271.31,-178.68 265.31,-172.68 265.31,-166.68 265.31,-166.68 265.31,-129.84 265.31,-129.84 265.31,-123.84 271.31,-117.84 277.31,-117.84 277.31,-117.84 462.11,-117.84 462.11,-117.84 468.11,-117.84 474.11,-123.84 474.11,-129.84 474.11,-129.84 474.11,-166.68 474.11,-166.68 474.11,-172.68 468.11,-178.68 462.11,-178.68"/>
<text xml:space="preserve" text-anchor="middle" x="369.71" y="-159.36" font-family="Noto Sans KR" font-size="12.00" fill="#efefef">&lt;&lt;public Effect contract&gt;&gt;</text>
<text xml:space="preserve" text-anchor="middle" x="369.71" y="-144.36" font-family="Noto Sans KR" font-size="12.00" fill="#efefef">EffectBundlePlan</text>
<text xml:space="preserve" text-anchor="middle" x="369.71" y="-129.36" font-family="Noto Sans KR" font-size="12.00" fill="#efefef">PrimaryOperations + Reactions</text>
</g>
<!-- Planner&#45;&gt;EffectPlan -->
<g id="edge7" class="edge">
<title>Planner&#45;&gt;EffectPlan</title>
<path fill="none" stroke="#efefef" stroke-width="1.7" d="M369.71,-234.97C369.71,-221.43 369.71,-205.23 369.71,-190.58"/>
<polygon fill="#efefef" stroke="#efefef" stroke-width="1.7" points="372.79,-190.62 369.71,-181.82 366.63,-190.62 372.79,-190.62"/>
</g>
<!-- ReleasePlan -->
<g id="node9" class="node">
<title>ReleasePlan</title>
<path fill="#176b80" stroke="#77d3e5" stroke-width="1.8" stroke-dasharray="5,2" d="M487.67,-60.84C487.67,-60.84 251.75,-60.84 251.75,-60.84 245.75,-60.84 239.75,-54.84 239.75,-48.84 239.75,-48.84 239.75,-12 239.75,-12 239.75,-6 245.75,0 251.75,0 251.75,0 487.67,0 487.67,0 493.67,0 499.67,-6 499.67,-12 499.67,-12 499.67,-48.84 499.67,-48.84 499.67,-54.84 493.67,-60.84 487.67,-60.84"/>
<text xml:space="preserve" text-anchor="middle" x="369.71" y="-41.52" font-family="Noto Sans KR" font-size="12.00" fill="#efefef">&lt;&lt;internal project model · product&#45;only&gt;&gt;</text>
<text xml:space="preserve" text-anchor="middle" x="369.71" y="-26.52" font-family="Noto Sans KR" font-size="12.00" fill="#efefef">SkillReleasePlan</text>
<text xml:space="preserve" text-anchor="middle" x="369.71" y="-11.52" font-family="Noto Sans KR" font-size="12.00" fill="#efefef">비용·쿨다운 mutation과 Effect plan 결합 대기</text>
</g>
<!-- EffectPlan&#45;&gt;ReleasePlan -->
<g id="edge8" class="edge">
<title>EffectPlan&#45;&gt;ReleasePlan</title>
<path fill="none" stroke="#efefef" stroke-width="1.7" d="M369.71,-117.13C369.71,-103.59 369.71,-87.39 369.71,-72.74"/>
<polygon fill="#efefef" stroke="#efefef" stroke-width="1.7" points="372.79,-72.78 369.71,-63.98 366.63,-72.78 372.79,-72.78"/>
</g>
</g>
</svg>
