<?xml version="1.0" encoding="UTF-8" standalone="no"?>
<!DOCTYPE svg PUBLIC "-//W3C//DTD SVG 1.1//EN"
 "http://www.w3.org/Graphics/SVG/1.1/DTD/svg11.dtd">
<!-- Generated by graphviz version 15.1.0 (20260618.0150)
 -->
<!-- Title: G Pages: 1 -->
<svg data-diagram-theme="chalkboard-dark-v1" width="2245pt" height="859pt"
 viewBox="12.00 12.00 2234.00 848.00" xmlns="http://www.w3.org/2000/svg" xmlns:xlink="http://www.w3.org/1999/xlink">
<g id="graph0" class="graph" transform="scale(1.33333 1.33333) rotate(0) translate(36 608.59)">
<title>G</title>
<polygon fill="#1e1e1e" stroke="none" points="-27.36,27.36 -27.36,-599.95 1639.36,-599.95 1639.36,27.36 -27.36,27.36"/>
<g id="clust1" class="cluster">
<title>cluster_core</title>
<path fill="#1e1e1e" stroke="#ffa94d" stroke-width="2.4" stroke-dasharray="5,2" d="M747,-178.96C747,-178.96 1533,-178.96 1533,-178.96 1539,-178.96 1545,-184.96 1545,-190.96 1545,-190.96 1545,-411.13 1545,-411.13 1545,-417.13 1539,-423.13 1533,-423.13 1533,-423.13 747,-423.13 747,-423.13 741,-423.13 735,-417.13 735,-411.13 735,-411.13 735,-190.96 735,-190.96 735,-184.96 741,-178.96 747,-178.96"/>
<text xml:space="preserve" text-anchor="middle" x="1140" y="-402.03" font-family="Noto Sans KR" font-size="18.00" fill="#bfc3c8">Core Runtime · contracts and commit boundary</text>
</g>
<g id="clust4" class="cluster">
<title>cluster_bridge</title>
<path fill="#1e1e1e" stroke="#ffa94d" stroke-width="2.4" stroke-dasharray="5,2" d="M25,-327.92C25,-327.92 671,-327.92 671,-327.92 677,-327.92 683,-333.92 683,-339.92 683,-339.92 683,-418.63 683,-418.63 683,-424.63 677,-430.63 671,-430.63 671,-430.63 25,-430.63 25,-430.63 19,-430.63 13,-424.63 13,-418.63 13,-418.63 13,-339.92 13,-339.92 13,-333.92 19,-327.92 25,-327.92"/>
<text xml:space="preserve" text-anchor="middle" x="348" y="-409.53" font-family="Noto Sans KR" font-size="18.00" fill="#bfc3c8">Effect Bridge · public execution and composition planning</text>
</g>
<g id="clust6" class="cluster">
<title>cluster_game</title>
<path fill="#1e1e1e" stroke="#ffa94d" stroke-width="2.4" stroke-dasharray="5,2" d="M373,-476.88C373,-476.88 1220,-476.88 1220,-476.88 1226,-476.88 1232,-482.88 1232,-488.88 1232,-488.88 1232,-552.59 1232,-552.59 1232,-558.59 1226,-564.59 1220,-564.59 1220,-564.59 373,-564.59 373,-564.59 367,-564.59 361,-558.59 361,-552.59 361,-552.59 361,-488.88 361,-488.88 361,-482.88 367,-476.88 373,-476.88"/>
<text xml:space="preserve" text-anchor="middle" x="796.5" y="-543.49" font-family="Noto Sans KR" font-size="18.00" fill="#bfc3c8">Game layer · commands and policies</text>
</g>
<!-- Entity&#45;&gt;Stat -->
<g id="edge1" class="edge">
<title>Entity:e&#45;&gt;Stat:w</title>
<path fill="none" stroke="#70b7ff" stroke-width="1.7" d="M1313.2,-364.4C1313.2,-364.4 1332.45,-364.4 1347.49,-364.4"/>
<polygon fill="#70b7ff" stroke="#70b7ff" stroke-width="1.7" points="1353.67,-367.48 1362.47,-364.4 1353.67,-361.32 1353.67,-367.48"/>
</g>
<!-- Stat&#45;&gt;Commit -->
<g id="edge15" class="edge">
<title>Stat:s&#45;&gt;Commit:nw</title>
<path fill="none" stroke="#70d0a8" stroke-width="1.7" d="M1455,-334.42C1455,-334.42 836.22,-263.56 745.57,-253.18"/>
<polygon fill="#70d0a8" stroke="#70d0a8" stroke-width="1.7" points="746.19,-250.15 737.1,-252.21 745.49,-256.27 746.19,-250.15"/>
</g>
<!-- Stat&#45;&gt;Effect -->
<g id="edge2" class="edge">
<title>Stat:n&#45;&gt;Effect:s</title>
<path fill="none" stroke="#bfc3c8" stroke-width="1.7" stroke-dasharray="5,2" d="M1455,-394.38C1455,-394.38 1313,-453.75 1313,-453.75 1313,-453.75 311,-453.75 311,-453.75 311,-453.75 285,-430.63 285,-430.63 285,-430.63 258.58,-327.92 258.58,-327.92 258.58,-327.92 177.66,-327.26 147.31,-327.01"/>
<polygon fill="#bfc3c8" stroke="#bfc3c8" stroke-width="1.7" points="147.4,-323.93 138.57,-326.94 147.35,-330.09 147.4,-323.93"/>
</g>
<!-- Stat&#45;&gt;Debug -->
<g id="edge21" class="edge">
<title>Stat:se&#45;&gt;Debug:nw</title>
<path fill="none" stroke="#bfc3c8" stroke-width="1.7" stroke-dasharray="1,5" d="M1544.95,-334.42C1544.95,-334.42 1612,-251.92 1612,-251.92 1612,-251.92 1612,-178.96 1612,-178.96 1612,-178.96 1058.89,-95.92 973.55,-83.11"/>
<polygon fill="#bfc3c8" stroke="#bfc3c8" stroke-width="1.7" points="974.25,-80.1 965.09,-81.84 973.33,-86.19 974.25,-80.1"/>
</g>
<!-- Condition&#45;&gt;Effect -->
<g id="edge3" class="edge">
<title>Condition:s&#45;&gt;Effect:nw</title>
<path fill="none" stroke="#bfc3c8" stroke-width="1.7" stroke-dasharray="5,2" d="M814,-334.42C814,-334.42 670,-260.17 670,-260.17 670,-260.17 311,-260.17 311,-260.17 311,-260.17 75.99,-372.08 23.66,-397"/>
<polygon fill="#bfc3c8" stroke="#bfc3c8" stroke-width="1.7" points="22.36,-394.21 15.74,-400.77 25.01,-399.77 22.36,-394.21"/>
</g>
<!-- Tag&#45;&gt;Effect -->
<g id="edge4" class="edge">
<title>Tag:s&#45;&gt;Effect:ne</title>
<path fill="none" stroke="#bfc3c8" stroke-width="1.7" stroke-dasharray="5,2" d="M1024,-334.42C1024,-334.42 893,-260.17 893,-260.17 893,-260.17 311,-260.17 311,-260.17 311,-260.17 285,-298.17 285,-298.17 285,-298.17 268.06,-364.67 261.31,-391.17"/>
<polygon fill="#bfc3c8" stroke="#bfc3c8" stroke-width="1.7" points="258.4,-390.1 259.22,-399.39 264.37,-391.62 258.4,-390.1"/>
</g>
<!-- Commit&#45;&gt;Event -->
<g id="edge16" class="edge">
<title>Commit:e&#45;&gt;Event:w</title>
<path fill="none" stroke="#77d3e5" stroke-width="1.7" d="M893.45,-215.44C893.45,-215.44 912.84,-215.44 927.99,-215.44"/>
<polygon fill="#77d3e5" stroke="#77d3e5" stroke-width="1.7" points="934.3,-218.52 943.1,-215.44 934.3,-212.36 934.3,-218.52"/>
</g>
<!-- Event&#45;&gt;Reaction -->
<g id="edge17" class="edge">
<title>Event:e&#45;&gt;Reaction:w</title>
<path fill="none" stroke="#e487c7" stroke-width="1.7" d="M1162.33,-215.44C1162.33,-215.44 1181.53,-215.44 1196.54,-215.44"/>
<polygon fill="#e487c7" stroke="#e487c7" stroke-width="1.7" points="1202.67,-218.52 1211.47,-215.44 1202.67,-212.36 1202.67,-218.52"/>
</g>
<!-- Event&#45;&gt;Debug -->
<g id="edge20" class="edge">
<title>Event:s&#45;&gt;Debug:n</title>
<path fill="none" stroke="#bfc3c8" stroke-width="1.7" stroke-dasharray="1,5" d="M1054,-178.96C1054,-178.96 1054,-118.25 1054,-92.64"/>
<polygon fill="#bfc3c8" stroke="#bfc3c8" stroke-width="1.7" points="1057.08,-92.83 1054,-84.03 1050.92,-92.83 1057.08,-92.83"/>
</g>
<!-- Reaction&#45;&gt;Effect -->
<g id="edge18" class="edge">
<title>Reaction:nw&#45;&gt;Effect:se</title>
<path fill="none" stroke="#e487c7" stroke-width="1.7" d="M1214.05,-245.42C1214.05,-245.42 1188,-251.92 1188,-251.92 1188,-251.92 374.53,-318.44 269.67,-327.01"/>
<polygon fill="#e487c7" stroke="#e487c7" stroke-width="1.7" points="269.66,-323.92 261.14,-327.71 270.17,-330.06 269.66,-323.92"/>
</g>
<!-- Reaction&#45;&gt;Status -->
<g id="edge19" class="edge">
<title>Reaction:n&#45;&gt;Status:s</title>
<path fill="none" stroke="#e487c7" stroke-width="1.7" d="M1334,-245.42C1334,-245.42 707.02,-321.86 615.17,-333.06"/>
<polygon fill="#e487c7" stroke="#e487c7" stroke-width="1.7" points="614.92,-329.99 606.55,-334.11 615.66,-336.1 614.92,-329.99"/>
</g>
<!-- Effect&#45;&gt;Commit -->
<g id="edge9" class="edge">
<title>Effect:s&#45;&gt;Commit:n</title>
<path fill="none" stroke="#70d0a8" stroke-width="1.7" d="M136,-327.92C136,-327.92 714.64,-263.06 802.8,-253.18"/>
<polygon fill="#70d0a8" stroke="#70d0a8" stroke-width="1.7" points="803.04,-256.25 811.44,-252.21 802.35,-250.13 803.04,-256.25"/>
</g>
<!-- Effect&#45;&gt;Combat -->
<g id="edge6" class="edge">
<title>Effect:e&#45;&gt;Combat:w</title>
<path fill="none" stroke="#ff8da1" stroke-width="1.7" d="M258.58,-364.4C258.58,-364.4 278.31,-364.4 293.57,-364.4"/>
<polygon fill="#ff8da1" stroke="#ff8da1" stroke-width="1.7" points="299.67,-367.48 308.47,-364.4 299.67,-361.32 299.67,-367.48"/>
</g>
<!-- Combat&#45;&gt;Effect -->
<g id="edge7" class="edge">
<title>Combat:s&#45;&gt;Effect:s</title>
<path fill="none" stroke="#ff8da1" stroke-width="1.7" stroke-dasharray="5,2" d="M392,-334.42C392,-334.42 258.58,-327.92 258.58,-327.92 258.58,-327.92 187.46,-327.34 153.56,-327.06"/>
<polygon fill="#ff8da1" stroke="#ff8da1" stroke-width="1.7" points="147.4,-323.93 138.57,-326.94 147.35,-330.09 147.4,-323.93"/>
</g>
<!-- Combat&#45;&gt;Debug -->
<g id="edge22" class="edge">
<title>Combat:se&#45;&gt;Debug:ne</title>
<path fill="none" stroke="#bfc3c8" stroke-width="1.7" stroke-dasharray="1,5" d="M472.96,-334.42C472.96,-334.42 499,-327.92 499,-327.92 499,-327.92 1541,-251.92 1541,-251.92 1541,-251.92 1541,-178.96 1541,-178.96 1541,-178.96 1171,-102.96 1171,-102.96 1171,-102.96 1161.51,-94.98 1154.1,-88.74"/>
<polygon fill="#bfc3c8" stroke="#bfc3c8" stroke-width="1.7" points="1156.14,-86.43 1147.42,-83.12 1152.17,-91.14 1156.14,-86.43"/>
</g>
<!-- Status&#45;&gt;Commit -->
<g id="edge10" class="edge">
<title>Status:s&#45;&gt;Commit:ne</title>
<path fill="none" stroke="#70d0a8" stroke-width="1.7" d="M604,-334.42C604,-334.42 830.59,-269.84 882.81,-254.95"/>
<polygon fill="#70d0a8" stroke="#70d0a8" stroke-width="1.7" points="883.36,-258 890.98,-252.63 881.67,-252.08 883.36,-258"/>
</g>
<!-- Skill&#45;&gt;Commit -->
<g id="edge8" class="edge">
<title>Skill:se&#45;&gt;Commit:nw</title>
<path fill="none" stroke="#70d0a8" stroke-width="1.7" d="M537.46,-476.88C537.46,-476.88 0,-430.63 0,-430.63 0,-430.63 0,-327.92 0,-327.92 0,-327.92 630.89,-262.65 723.3,-253.08"/>
<polygon fill="#70d0a8" stroke="#70d0a8" stroke-width="1.7" points="723.55,-256.15 731.99,-252.18 722.92,-250.03 723.55,-256.15"/>
</g>
<!-- Skill&#45;&gt;Effect -->
<g id="edge5" class="edge">
<title>Skill:s&#45;&gt;Effect:n</title>
<path fill="none" stroke="#e487c7" stroke-width="1.7" d="M449,-476.88C449,-476.88 201.81,-417.65 146.77,-404.46"/>
<polygon fill="#e487c7" stroke="#e487c7" stroke-width="1.7" points="147.78,-401.54 138.5,-402.48 146.34,-407.53 147.78,-401.54"/>
</g>
<!-- Equipment&#45;&gt;Stat -->
<g id="edge11" class="edge">
<title>Equipment:s&#45;&gt;Stat:nw</title>
<path fill="none" stroke="#70d0a8" stroke-width="1.7" d="M684,-483.38C684,-483.38 1339,-430.63 1339,-430.63 1339,-430.63 1350.76,-414.27 1358.47,-403.53"/>
<polygon fill="#70d0a8" stroke="#70d0a8" stroke-width="1.7" points="1360.91,-405.41 1363.54,-396.47 1355.91,-401.82 1360.91,-405.41"/>
</g>
<!-- Progression&#45;&gt;Stat -->
<g id="edge12" class="edge">
<title>Progression:s&#45;&gt;Stat:n</title>
<path fill="none" stroke="#70d0a8" stroke-width="1.7" d="M921,-483.38C921,-483.38 1339,-430.63 1339,-430.63 1339,-430.63 1415.58,-406.7 1444.29,-397.73"/>
<polygon fill="#70d0a8" stroke="#70d0a8" stroke-width="1.7" points="1445.06,-400.71 1452.54,-395.15 1443.23,-394.83 1445.06,-400.71"/>
</g>
<!-- Reward&#45;&gt;Stat -->
<g id="edge14" class="edge">
<title>Reward:sw&#45;&gt;Stat:ne</title>
<path fill="none" stroke="#70d0a8" stroke-width="1.7" d="M1064.05,-476.88C1064.05,-476.88 1339,-430.63 1339,-430.63 1339,-430.63 1491.1,-403.86 1533.88,-396.33"/>
<polygon fill="#70d0a8" stroke="#70d0a8" stroke-width="1.7" points="1534.29,-399.38 1542.42,-394.83 1533.22,-393.32 1534.29,-399.38"/>
</g>
<!-- Reward&#45;&gt;Effect -->
<g id="edge13" class="edge">
<title>Reward:s&#45;&gt;Effect:nw</title>
<path fill="none" stroke="#ffb45c" stroke-width="1.7" d="M1148,-476.88C1148,-476.88 285,-430.63 285,-430.63 285,-430.63 75.21,-408.42 24.4,-403.04"/>
<polygon fill="#ffb45c" stroke="#ffb45c" stroke-width="1.7" points="25.05,-400.01 15.98,-402.15 24.41,-406.14 25.05,-400.01"/>
</g>
<!-- Entity -->
<g id="node1" class="node">
<title>Entity</title>
<path fill="#1971c2" stroke="#70b7ff" stroke-width="1.8" d="M1301.2,-385.88C1301.2,-385.88 1166.8,-385.88 1166.8,-385.88 1160.8,-385.88 1154.8,-379.88 1154.8,-373.88 1154.8,-373.88 1154.8,-354.92 1154.8,-354.92 1154.8,-348.92 1160.8,-342.92 1166.8,-342.92 1166.8,-342.92 1301.2,-342.92 1301.2,-342.92 1307.2,-342.92 1313.2,-348.92 1313.2,-354.92 1313.2,-354.92 1313.2,-373.88 1313.2,-373.88 1313.2,-379.88 1307.2,-385.88 1301.2,-385.88"/>
<text xml:space="preserve" text-anchor="middle" x="1234" y="-368" font-family="Noto Sans KR" font-size="12.00" fill="#efefef">Entity / Owner</text>
<text xml:space="preserve" text-anchor="middle" x="1234" y="-353" font-family="Noto Sans KR" font-size="12.00" fill="#efefef">EntityId · versions</text>
</g>
<!-- Stat -->
<g id="node2" class="node">
<title>Stat</title>
<path fill="#1971c2" stroke="#70b7ff" stroke-width="1.8" d="M1532.95,-393.38C1532.95,-393.38 1377.05,-393.38 1377.05,-393.38 1371.05,-393.38 1365.05,-387.38 1365.05,-381.38 1365.05,-381.38 1365.05,-347.42 1365.05,-347.42 1365.05,-341.42 1371.05,-335.42 1377.05,-335.42 1377.05,-335.42 1532.95,-335.42 1532.95,-335.42 1538.95,-335.42 1544.95,-341.42 1544.95,-347.42 1544.95,-347.42 1544.95,-381.38 1544.95,-381.38 1544.95,-387.38 1538.95,-393.38 1532.95,-393.38"/>
<text xml:space="preserve" text-anchor="middle" x="1455" y="-375.5" font-family="Noto Sans KR" font-size="12.00" fill="#efefef">Stat System</text>
<text xml:space="preserve" text-anchor="middle" x="1455" y="-360.5" font-family="Noto Sans KR" font-size="12.00" fill="#efefef">pure GetValue(owner, stat, ctx)</text>
<text xml:space="preserve" text-anchor="middle" x="1455" y="-345.5" font-family="Noto Sans KR" font-size="12.00" fill="#efefef">modifier + stat/resource plans</text>
</g>
<!-- Condition -->
<g id="node3" class="node">
<title>Condition</title>
<path fill="#fd7e14" stroke="#ffb45c" stroke-width="1.8" d="M881.2,-393.38C881.2,-393.38 746.8,-393.38 746.8,-393.38 740.8,-393.38 734.8,-387.38 734.8,-381.38 734.8,-381.38 734.8,-347.42 734.8,-347.42 734.8,-341.42 740.8,-335.42 746.8,-335.42 746.8,-335.42 881.2,-335.42 881.2,-335.42 887.2,-335.42 893.2,-341.42 893.2,-347.42 893.2,-347.42 893.2,-381.38 893.2,-381.38 893.2,-387.38 887.2,-393.38 881.2,-393.38"/>
<text xml:space="preserve" text-anchor="middle" x="814" y="-375.5" font-family="Noto Sans KR" font-size="12.00" fill="#161924">Condition / Context</text>
<text xml:space="preserve" text-anchor="middle" x="814" y="-360.5" font-family="Noto Sans KR" font-size="12.00" fill="#161924">read&#45;only predicates</text>
<text xml:space="preserve" text-anchor="middle" x="814" y="-345.5" font-family="Noto Sans KR" font-size="12.00" fill="#161924">validates Effect conditions</text>
</g>
<!-- Tag -->
<g id="node4" class="node">
<title>Tag</title>
<path fill="#b93d8e" stroke="#e487c7" stroke-width="1.8" d="M1091.2,-393.38C1091.2,-393.38 956.8,-393.38 956.8,-393.38 950.8,-393.38 944.8,-387.38 944.8,-381.38 944.8,-381.38 944.8,-347.42 944.8,-347.42 944.8,-341.42 950.8,-335.42 956.8,-335.42 956.8,-335.42 1091.2,-335.42 1091.2,-335.42 1097.2,-335.42 1103.2,-341.42 1103.2,-347.42 1103.2,-347.42 1103.2,-381.38 1103.2,-381.38 1103.2,-387.38 1097.2,-393.38 1091.2,-393.38"/>
<text xml:space="preserve" text-anchor="middle" x="1024" y="-375.5" font-family="Noto Sans KR" font-size="12.00" fill="#efefef">Tag System</text>
<text xml:space="preserve" text-anchor="middle" x="1024" y="-360.5" font-family="Noto Sans KR" font-size="12.00" fill="#efefef">fire · melee · boss · skill</text>
<text xml:space="preserve" text-anchor="middle" x="1024" y="-345.5" font-family="Noto Sans KR" font-size="12.00" fill="#efefef">classifies Effect tags</text>
</g>
<!-- Commit -->
<g id="node5" class="node">
<title>Commit</title>
<path fill="#14745b" stroke="#70d0a8" stroke-width="1.8" d="M881.46,-251.92C881.46,-251.92 746.54,-251.92 746.54,-251.92 740.54,-251.92 734.54,-245.92 734.54,-239.92 734.54,-239.92 734.54,-190.96 734.54,-190.96 734.54,-184.96 740.54,-178.96 746.54,-178.96 746.54,-178.96 881.46,-178.96 881.46,-178.96 887.46,-178.96 893.46,-184.96 893.46,-190.96 893.46,-190.96 893.46,-239.92 893.46,-239.92 893.46,-245.92 887.46,-251.92 881.46,-251.92"/>
<text xml:space="preserve" text-anchor="middle" x="814" y="-234.04" font-family="Noto Sans KR" font-size="12.00" fill="#efefef">RuntimeCommitter</text>
<text xml:space="preserve" text-anchor="middle" x="814" y="-219.04" font-family="Noto Sans KR" font-size="12.00" fill="#efefef">versions · invariants</text>
<text xml:space="preserve" text-anchor="middle" x="814" y="-204.04" font-family="Noto Sans KR" font-size="12.00" fill="#efefef">accepts all mutation plans</text>
<text xml:space="preserve" text-anchor="middle" x="814" y="-189.04" font-family="Noto Sans KR" font-size="12.00" fill="#efefef">state + outbox atomic</text>
</g>
<!-- Event -->
<g id="node6" class="node">
<title>Event</title>
<path fill="#176b80" stroke="#77d3e5" stroke-width="1.8" d="M1150.33,-251.92C1150.33,-251.92 957.67,-251.92 957.67,-251.92 951.67,-251.92 945.67,-245.92 945.67,-239.92 945.67,-239.92 945.67,-190.96 945.67,-190.96 945.67,-184.96 951.67,-178.96 957.67,-178.96 957.67,-178.96 1150.33,-178.96 1150.33,-178.96 1156.33,-178.96 1162.33,-184.96 1162.33,-190.96 1162.33,-190.96 1162.33,-239.92 1162.33,-239.92 1162.33,-245.92 1156.33,-251.92 1150.33,-251.92"/>
<text xml:space="preserve" text-anchor="middle" x="1054" y="-234.04" font-family="Noto Sans KR" font-size="12.00" fill="#efefef">Committed Facts Bus</text>
<text xml:space="preserve" text-anchor="middle" x="1054" y="-219.04" font-family="Noto Sans KR" font-size="12.00" fill="#efefef">dispatch after commit</text>
<text xml:space="preserve" text-anchor="middle" x="1054" y="-204.04" font-family="Noto Sans KR" font-size="12.00" fill="#efefef">SkillCommitted · DamageCommitted</text>
<text xml:space="preserve" text-anchor="middle" x="1054" y="-189.04" font-family="Noto Sans KR" font-size="12.00" fill="#efefef">StatChanged · StatusApplied</text>
</g>
<!-- Reaction -->
<g id="node7" class="node">
<title>Reaction</title>
<path fill="#b93d8e" stroke="#e487c7" stroke-width="1.8" d="M1441.95,-244.42C1441.95,-244.42 1226.05,-244.42 1226.05,-244.42 1220.05,-244.42 1214.05,-238.42 1214.05,-232.42 1214.05,-232.42 1214.05,-198.46 1214.05,-198.46 1214.05,-192.46 1220.05,-186.46 1226.05,-186.46 1226.05,-186.46 1441.95,-186.46 1441.95,-186.46 1447.95,-186.46 1453.95,-192.46 1453.95,-198.46 1453.95,-198.46 1453.95,-232.42 1453.95,-232.42 1453.95,-238.42 1447.95,-244.42 1441.95,-244.42"/>
<text xml:space="preserve" text-anchor="middle" x="1334" y="-226.54" font-family="Noto Sans KR" font-size="12.00" fill="#efefef">ReactionQueue</text>
<text xml:space="preserve" text-anchor="middle" x="1334" y="-211.54" font-family="Noto Sans KR" font-size="12.00" fill="#efefef">priority · stable key · budget</text>
<text xml:space="preserve" text-anchor="middle" x="1334" y="-196.54" font-family="Noto Sans KR" font-size="12.00" fill="#efefef">dequeues Effect / ApplyStatus commands</text>
</g>
<!-- Effect -->
<g id="node8" class="node">
<title>Effect</title>
<path fill="#a63b4e" stroke="#ff8da1" stroke-width="2.2" d="M246.58,-400.88C246.58,-400.88 25.42,-400.88 25.42,-400.88 19.42,-400.88 13.42,-394.88 13.42,-388.88 13.42,-388.88 13.42,-339.92 13.42,-339.92 13.42,-333.92 19.42,-327.92 25.42,-327.92 25.42,-327.92 246.58,-327.92 246.58,-327.92 252.58,-327.92 258.58,-333.92 258.58,-339.92 258.58,-339.92 258.58,-388.88 258.58,-388.88 258.58,-394.88 252.58,-400.88 246.58,-400.88"/>
<text xml:space="preserve" text-anchor="middle" x="136" y="-383" font-family="Noto Sans KR" font-size="12.00" fill="#efefef">Effect System</text>
<text xml:space="preserve" text-anchor="middle" x="136" y="-368" font-family="Noto Sans KR" font-size="12.00" fill="#efefef">public Execute(Operation | Bundle)</text>
<text xml:space="preserve" text-anchor="middle" x="136" y="-353" font-family="Noto Sans KR" font-size="12.00" fill="#efefef">IEffectPlanner.Prepare → EffectBundlePlan</text>
<text xml:space="preserve" text-anchor="middle" x="136" y="-338" font-family="Noto Sans KR" font-size="12.00" fill="#efefef">sends DamageRequest</text>
</g>
<!-- Combat -->
<g id="node9" class="node">
<title>Combat</title>
<path fill="#a63b4e" stroke="#ff8da1" stroke-width="1.8" d="M460.95,-393.38C460.95,-393.38 323.05,-393.38 323.05,-393.38 317.05,-393.38 311.05,-387.38 311.05,-381.38 311.05,-381.38 311.05,-347.42 311.05,-347.42 311.05,-341.42 317.05,-335.42 323.05,-335.42 323.05,-335.42 460.95,-335.42 460.95,-335.42 466.95,-335.42 472.95,-341.42 472.95,-347.42 472.95,-347.42 472.95,-381.38 472.95,-381.38 472.95,-387.38 466.95,-393.38 460.95,-393.38"/>
<text xml:space="preserve" text-anchor="middle" x="392" y="-375.5" font-family="Noto Sans KR" font-size="12.00" fill="#efefef">Combat Resolution</text>
<text xml:space="preserve" text-anchor="middle" x="392" y="-360.5" font-family="Noto Sans KR" font-size="12.00" fill="#efefef">resolves DamageRequest</text>
<text xml:space="preserve" text-anchor="middle" x="392" y="-345.5" font-family="Noto Sans KR" font-size="12.00" fill="#efefef">returns pure DamageResult</text>
</g>
<!-- Status -->
<g id="node10" class="node">
<title>Status</title>
<path fill="#176b80" stroke="#77d3e5" stroke-width="1.8" d="M671.2,-393.38C671.2,-393.38 536.8,-393.38 536.8,-393.38 530.8,-393.38 524.8,-387.38 524.8,-381.38 524.8,-381.38 524.8,-347.42 524.8,-347.42 524.8,-341.42 530.8,-335.42 536.8,-335.42 536.8,-335.42 671.2,-335.42 671.2,-335.42 677.2,-335.42 683.2,-341.42 683.2,-347.42 683.2,-347.42 683.2,-381.38 683.2,-381.38 683.2,-387.38 677.2,-393.38 671.2,-393.38"/>
<text xml:space="preserve" text-anchor="middle" x="604" y="-375.5" font-family="Noto Sans KR" font-size="12.00" fill="#efefef">Status System</text>
<text xml:space="preserve" text-anchor="middle" x="604" y="-360.5" font-family="Noto Sans KR" font-size="12.00" fill="#efefef">ApplyStatus command</text>
<text xml:space="preserve" text-anchor="middle" x="604" y="-345.5" font-family="Noto Sans KR" font-size="12.00" fill="#efefef">status / tick mutation plan</text>
</g>
<!-- Skill -->
<g id="node11" class="node">
<title>Skill</title>
<path fill="#868e96" stroke="#efefef" stroke-width="1.8" d="M525.46,-534.84C525.46,-534.84 372.55,-534.84 372.55,-534.84 366.55,-534.84 360.55,-528.84 360.55,-522.84 360.55,-522.84 360.55,-488.88 360.55,-488.88 360.55,-482.88 366.55,-476.88 372.55,-476.88 372.55,-476.88 525.46,-476.88 525.46,-476.88 531.46,-476.88 537.46,-482.88 537.46,-488.88 537.46,-488.88 537.46,-522.84 537.46,-522.84 537.46,-528.84 531.46,-534.84 525.46,-534.84"/>
<text xml:space="preserve" text-anchor="middle" x="449" y="-516.96" font-family="Noto Sans KR" font-size="12.00" fill="#161924">Skill / Action</text>
<text xml:space="preserve" text-anchor="middle" x="449" y="-501.96" font-family="Noto Sans KR" font-size="12.00" fill="#161924">IEffectPlanner.Prepare input</text>
<text xml:space="preserve" text-anchor="middle" x="449" y="-486.96" font-family="Noto Sans KR" font-size="12.00" fill="#161924">cost/cooldown mutation plan</text>
</g>
<!-- Equipment -->
<g id="node12" class="node">
<title>Equipment</title>
<path fill="#868e96" stroke="#efefef" stroke-width="1.8" d="M766.08,-527.34C766.08,-527.34 601.92,-527.34 601.92,-527.34 595.92,-527.34 589.92,-521.34 589.92,-515.34 589.92,-515.34 589.92,-496.38 589.92,-496.38 589.92,-490.38 595.92,-484.38 601.92,-484.38 601.92,-484.38 766.08,-484.38 766.08,-484.38 772.08,-484.38 778.08,-490.38 778.08,-496.38 778.08,-496.38 778.08,-515.34 778.08,-515.34 778.08,-521.34 772.08,-527.34 766.08,-527.34"/>
<text xml:space="preserve" text-anchor="middle" x="684" y="-509.46" font-family="Noto Sans KR" font-size="12.00" fill="#161924">Equipment / Item</text>
<text xml:space="preserve" text-anchor="middle" x="684" y="-494.46" font-family="Noto Sans KR" font-size="12.00" fill="#161924">equipment modifier plan to Stat</text>
</g>
<!-- Progression -->
<g id="node13" class="node">
<title>Progression</title>
<path fill="#868e96" stroke="#efefef" stroke-width="1.8" d="M1000.08,-527.34C1000.08,-527.34 841.92,-527.34 841.92,-527.34 835.92,-527.34 829.92,-521.34 829.92,-515.34 829.92,-515.34 829.92,-496.38 829.92,-496.38 829.92,-490.38 835.92,-484.38 841.92,-484.38 841.92,-484.38 1000.08,-484.38 1000.08,-484.38 1006.08,-484.38 1012.08,-490.38 1012.08,-496.38 1012.08,-496.38 1012.08,-515.34 1012.08,-515.34 1012.08,-521.34 1006.08,-527.34 1000.08,-527.34"/>
<text xml:space="preserve" text-anchor="middle" x="921" y="-509.46" font-family="Noto Sans KR" font-size="12.00" fill="#161924">Progression</text>
<text xml:space="preserve" text-anchor="middle" x="921" y="-494.46" font-family="Noto Sans KR" font-size="12.00" fill="#161924">base&#45;stat mutation plan to Stat</text>
</g>
<!-- Reward -->
<g id="node14" class="node">
<title>Reward</title>
<path fill="#868e96" stroke="#efefef" stroke-width="1.8" d="M1219.95,-534.84C1219.95,-534.84 1076.05,-534.84 1076.05,-534.84 1070.05,-534.84 1064.05,-528.84 1064.05,-522.84 1064.05,-522.84 1064.05,-488.88 1064.05,-488.88 1064.05,-482.88 1070.05,-476.88 1076.05,-476.88 1076.05,-476.88 1219.95,-476.88 1219.95,-476.88 1225.95,-476.88 1231.95,-482.88 1231.95,-488.88 1231.95,-488.88 1231.95,-522.84 1231.95,-522.84 1231.95,-528.84 1225.95,-534.84 1219.95,-534.84"/>
<text xml:space="preserve" text-anchor="middle" x="1148" y="-516.96" font-family="Noto Sans KR" font-size="12.00" fill="#161924">Reward / Roguelite</text>
<text xml:space="preserve" text-anchor="middle" x="1148" y="-501.96" font-family="Noto Sans KR" font-size="12.00" fill="#161924">effect definitions to Effect</text>
<text xml:space="preserve" text-anchor="middle" x="1148" y="-486.96" font-family="Noto Sans KR" font-size="12.00" fill="#161924">reward modifier plan to Stat</text>
</g>
<!-- Debug -->
<g id="node15" class="node">
<title>Debug</title>
<path fill="#868e96" stroke="#bfc3c8" stroke-width="1.8" d="M1133.45,-80.46C1133.45,-80.46 974.54,-80.46 974.54,-80.46 968.54,-80.46 962.54,-74.46 962.54,-68.46 962.54,-68.46 962.54,-34.5 962.54,-34.5 962.54,-28.5 968.54,-22.5 974.54,-22.5 974.54,-22.5 1133.45,-22.5 1133.45,-22.5 1139.45,-22.5 1145.45,-28.5 1145.45,-34.5 1145.45,-34.5 1145.45,-68.46 1145.45,-68.46 1145.45,-74.46 1139.45,-80.46 1133.45,-80.46"/>
<text xml:space="preserve" text-anchor="middle" x="1054" y="-62.58" font-family="Noto Sans KR" font-size="12.00" fill="#161924">Observation / Debug</text>
<text xml:space="preserve" text-anchor="middle" x="1054" y="-47.58" font-family="Noto Sans KR" font-size="12.00" fill="#161924">observes Event · Stat · Combat</text>
<text xml:space="preserve" text-anchor="middle" x="1054" y="-32.58" font-family="Noto Sans KR" font-size="12.00" fill="#161924">Breakdown · CombatLog · UI</text>
</g>
<!-- Legend -->
<g id="node16" class="node">
<title>Legend</title>
<polygon fill="#272727" stroke="#bfc3c8" stroke-width="1.8" points="1370.95,-102.96 1197.05,-102.96 1197.05,0 1376.95,0 1376.95,-96.96 1370.95,-102.96"/>
<polyline fill="none" stroke="#bfc3c8" stroke-width="1.8" points="1370.95,-102.96 1370.95,-96.96"/>
<polyline fill="none" stroke="#bfc3c8" stroke-width="1.8" points="1376.95,-96.96 1370.95,-96.96"/>
<text xml:space="preserve" text-anchor="middle" x="1287" y="-85.08" font-family="Noto Sans KR" font-size="12.00" fill="#efefef">Line semantics</text>
<text xml:space="preserve" text-anchor="middle" x="1287" y="-70.08" font-family="Noto Sans KR" font-size="12.00" fill="#efefef">green: mutation / commit plan</text>
<text xml:space="preserve" text-anchor="middle" x="1287" y="-55.08" font-family="Noto Sans KR" font-size="12.00" fill="#efefef">purple: command / reaction</text>
<text xml:space="preserve" text-anchor="middle" x="1287" y="-40.08" font-family="Noto Sans KR" font-size="12.00" fill="#efefef">red: combat resolve / return</text>
<text xml:space="preserve" text-anchor="middle" x="1287" y="-25.08" font-family="Noto Sans KR" font-size="12.00" fill="#efefef">dashed gray: read&#45;only query</text>
<text xml:space="preserve" text-anchor="middle" x="1287" y="-10.08" font-family="Noto Sans KR" font-size="12.00" fill="#efefef">dotted gray: observation</text>
</g>
</g>
</svg>
