<?xml version="1.0" encoding="UTF-8" standalone="no"?>
<!DOCTYPE svg PUBLIC "-//W3C//DTD SVG 1.1//EN"
 "http://www.w3.org/Graphics/SVG/1.1/DTD/svg11.dtd">
<!-- Generated by graphviz version 15.1.0 (20260618.0150)
 -->
<!-- Title: G Pages: 1 -->
<svg data-diagram-theme="chalkboard-dark-v1" width="1214pt" height="2588pt"
 viewBox="12.00 12.00 1203.00 2577.00" xmlns="http://www.w3.org/2000/svg" xmlns:xlink="http://www.w3.org/1999/xlink">
<g id="graph0" class="graph" transform="scale(1.33333 1.33333) rotate(0) translate(36 1905.27)">
<title>G</title>
<polygon fill="#1e1e1e" stroke="none" points="-27.36,27.36 -27.36,-1896.63 866.16,-1896.63 866.16,27.36 -27.36,27.36"/>
<text xml:space="preserve" text-anchor="middle" x="419.4" y="-1846.27" font-family="Noto Sans KR" font-size="20.00" fill="#efefef">Mixed handoff flow · executable C# reference + product adapters</text>
<!-- start -->
<g id="node1" class="node">
<title>start</title>
<ellipse fill="#efefef" stroke="#efefef" stroke-width="1.8" cx="624.8" cy="-1820.32" rx="16.2" ry="16.2"/>
</g>
<!-- Caller -->
<g id="node2" class="node">
<title>Caller</title>
<path fill="#868e96" stroke="#efefef" stroke-width="1.8" d="M713.6,-1751.12C713.6,-1751.12 536,-1751.12 536,-1751.12 530,-1751.12 524,-1745.12 524,-1739.12 524,-1739.12 524,-1720.16 524,-1720.16 524,-1714.16 530,-1708.16 536,-1708.16 536,-1708.16 713.6,-1708.16 713.6,-1708.16 719.6,-1708.16 725.6,-1714.16 725.6,-1720.16 725.6,-1720.16 725.6,-1739.12 725.6,-1739.12 725.6,-1745.12 719.6,-1751.12 713.6,-1751.12"/>
<text xml:space="preserve" text-anchor="middle" x="624.8" y="-1733.24" font-family="Noto Sans KR" font-size="12.00" fill="#161924">1. Product caller</text>
<text xml:space="preserve" text-anchor="middle" x="624.8" y="-1718.24" font-family="Noto Sans KR" font-size="12.00" fill="#161924">Skill / Status / Item adapter</text>
</g>
<!-- start&#45;&gt;Caller -->
<g id="edge1" class="edge">
<title>start&#45;&gt;Caller</title>
<path fill="none" stroke="#efefef" stroke-width="1.7" d="M624.8,-1803.47C624.8,-1792.18 624.8,-1776.62 624.8,-1762.78"/>
<polygon fill="#efefef" stroke="#efefef" stroke-width="1.7" points="627.88,-1763.07 624.8,-1754.27 621.72,-1763.07 627.88,-1763.07"/>
</g>
<!-- Request -->
<g id="node3" class="node">
<title>Request</title>
<path fill="#1971c2" stroke="#70b7ff" stroke-width="1.8" d="M736.88,-1655.16C736.88,-1655.16 512.72,-1655.16 512.72,-1655.16 506.72,-1655.16 500.72,-1649.16 500.72,-1643.16 500.72,-1643.16 500.72,-1624.2 500.72,-1624.2 500.72,-1618.2 506.72,-1612.2 512.72,-1612.2 512.72,-1612.2 736.88,-1612.2 736.88,-1612.2 742.88,-1612.2 748.88,-1618.2 748.88,-1624.2 748.88,-1624.2 748.88,-1643.16 748.88,-1643.16 748.88,-1649.16 742.88,-1655.16 736.88,-1655.16"/>
<text xml:space="preserve" text-anchor="middle" x="624.8" y="-1637.28" font-family="Noto Sans KR" font-size="12.00" fill="#efefef">2. Target&#45;independent input</text>
<text xml:space="preserve" text-anchor="middle" x="624.8" y="-1622.28" font-family="Noto Sans KR" font-size="12.00" fill="#efefef">ReferenceEffectSpecification + EffectContext</text>
</g>
<!-- Caller&#45;&gt;Request -->
<g id="edge2" class="edge">
<title>Caller&#45;&gt;Request</title>
<path fill="none" stroke="#efefef" stroke-width="1.7" d="M624.8,-1707.32C624.8,-1695.43 624.8,-1680.37 624.8,-1667.05"/>
<polygon fill="#efefef" stroke="#efefef" stroke-width="1.7" points="627.88,-1667.29 624.8,-1658.49 621.72,-1667.29 627.88,-1667.29"/>
</g>
<!-- Snapshot -->
<g id="node4" class="node">
<title>Snapshot</title>
<path fill="#b93d8e" stroke="#e487c7" stroke-width="1.8" d="M727.13,-1547.45C727.13,-1547.45 522.47,-1547.45 522.47,-1547.45 516.47,-1547.45 510.47,-1541.45 510.47,-1535.45 510.47,-1535.45 510.47,-1501.49 510.47,-1501.49 510.47,-1495.49 516.47,-1489.49 522.47,-1489.49 522.47,-1489.49 727.13,-1489.49 727.13,-1489.49 733.13,-1489.49 739.13,-1495.49 739.13,-1501.49 739.13,-1501.49 739.13,-1535.45 739.13,-1535.45 739.13,-1541.45 733.13,-1547.45 727.13,-1547.45"/>
<text xml:space="preserve" text-anchor="middle" x="624.8" y="-1529.57" font-family="Noto Sans KR" font-size="12.00" fill="#efefef">3. Spatial adapter (domain 밖)</text>
<text xml:space="preserve" text-anchor="middle" x="624.8" y="-1514.57" font-family="Noto Sans KR" font-size="12.00" fill="#efefef">eligibility + integer metrics</text>
<text xml:space="preserve" text-anchor="middle" x="624.8" y="-1499.57" font-family="Noto Sans KR" font-size="12.00" fill="#efefef">&#45;&gt; immutable CanonicalTargetSnapshot</text>
</g>
<!-- Request&#45;&gt;Snapshot -->
<g id="edge3" class="edge">
<title>Request&#45;&gt;Snapshot</title>
<path fill="none" stroke="#efefef" stroke-width="1.7" d="M624.8,-1611.39C624.8,-1596.67 624.8,-1576.66 624.8,-1559.07"/>
<polygon fill="#efefef" stroke="#efefef" stroke-width="1.7" points="627.88,-1559.31 624.8,-1550.51 621.72,-1559.31 627.88,-1559.31"/>
<text xml:space="preserve" text-anchor="middle" x="684.8" y="-1576.23" font-family="Noto Sans KR" font-size="10.50" fill="#bfc3c8">CandidateSnapshot mode</text>
</g>
<!-- Target -->
<g id="node5" class="node">
<title>Target</title>
<path fill="#b93d8e" stroke="#e487c7" stroke-width="1.8" d="M717.75,-1436.49C717.75,-1436.49 531.84,-1436.49 531.84,-1436.49 525.84,-1436.49 519.84,-1430.49 519.84,-1424.49 519.84,-1424.49 519.84,-1375.53 519.84,-1375.53 519.84,-1369.53 525.84,-1363.53 531.84,-1363.53 531.84,-1363.53 717.75,-1363.53 717.75,-1363.53 723.75,-1363.53 729.75,-1369.53 729.75,-1375.53 729.75,-1375.53 729.75,-1424.49 729.75,-1424.49 729.75,-1430.49 723.75,-1436.49 717.75,-1436.49"/>
<text xml:space="preserve" text-anchor="middle" x="624.8" y="-1418.61" font-family="Noto Sans KR" font-size="12.00" fill="#efefef">4. ReferenceEffectTargetResolver</text>
<text xml:space="preserve" text-anchor="middle" x="624.8" y="-1403.61" font-family="Noto Sans KR" font-size="12.00" fill="#efefef">structural validation + one&#45;shot bind</text>
<text xml:space="preserve" text-anchor="middle" x="624.8" y="-1388.61" font-family="Noto Sans KR" font-size="12.00" fill="#efefef">Self / Explicit / CandidateSnapshot</text>
<text xml:space="preserve" text-anchor="middle" x="624.8" y="-1373.61" font-family="Noto Sans KR" font-size="12.00" fill="#efefef">no team · distance · LOS recheck</text>
</g>
<!-- Request&#45;&gt;Target -->
<g id="edge5" class="edge">
<title>Request&#45;&gt;Target</title>
<path fill="none" stroke="#70b7ff" stroke-width="1.7" d="M684.47,-1611.34C718.65,-1599.13 754.8,-1586.2 754.8,-1586.2 754.8,-1586.2 758.8,-1547.45 758.8,-1547.45 758.8,-1547.45 758.8,-1489.49 758.8,-1489.49 758.8,-1489.49 723.32,-1466.06 688.87,-1443.32"/>
<polygon fill="#70b7ff" stroke="#70b7ff" stroke-width="1.7" points="690.88,-1440.95 681.84,-1438.67 687.48,-1446.09 690.88,-1440.95"/>
<text xml:space="preserve" text-anchor="middle" x="791.05" y="-1521.25" font-family="Noto Sans KR" font-size="10.50" fill="#70b7ff">Self / Explicit</text>
<text xml:space="preserve" text-anchor="middle" x="791.05" y="-1508.5" font-family="Noto Sans KR" font-size="10.50" fill="#70b7ff">snapshot 없음</text>
</g>
<!-- Snapshot&#45;&gt;Target -->
<g id="edge4" class="edge">
<title>Snapshot&#45;&gt;Target</title>
<path fill="none" stroke="#efefef" stroke-width="1.7" d="M624.8,-1488.68C624.8,-1476.47 624.8,-1461.92 624.8,-1448.22"/>
<polygon fill="#efefef" stroke="#efefef" stroke-width="1.7" points="627.88,-1448.34 624.8,-1439.54 621.72,-1448.34 627.88,-1448.34"/>
</g>
<!-- Resolved -->
<g id="node6" class="node">
<title>Resolved</title>
<path fill="#14745b" stroke="#70d0a8" stroke-width="1.8" d="M534.38,-1286.03C534.38,-1286.03 325.22,-1286.03 325.22,-1286.03 319.22,-1286.03 313.22,-1280.03 313.22,-1274.03 313.22,-1274.03 313.22,-1255.07 313.22,-1255.07 313.22,-1249.07 319.22,-1243.07 325.22,-1243.07 325.22,-1243.07 534.38,-1243.07 534.38,-1243.07 540.38,-1243.07 546.38,-1249.07 546.38,-1255.07 546.38,-1255.07 546.38,-1274.03 546.38,-1274.03 546.38,-1280.03 540.38,-1286.03 534.38,-1286.03"/>
<text xml:space="preserve" text-anchor="middle" x="429.8" y="-1268.15" font-family="Noto Sans KR" font-size="12.00" fill="#efefef">5. Target&#45;bound ResolvedEffectOperation</text>
<text xml:space="preserve" text-anchor="middle" x="429.8" y="-1253.15" font-family="Noto Sans KR" font-size="12.00" fill="#efefef">stable order + MaxTargets already fixed</text>
</g>
<!-- Target&#45;&gt;Resolved -->
<g id="edge6" class="edge">
<title>Target&#45;&gt;Resolved</title>
<path fill="none" stroke="#efefef" stroke-width="1.7" d="M571.77,-1362.72C539.72,-1340.78 499.5,-1313.25 470.06,-1293.1"/>
<polygon fill="#efefef" stroke="#efefef" stroke-width="1.7" points="472.03,-1290.72 463.03,-1288.29 468.55,-1295.8 472.03,-1290.72"/>
</g>
<!-- NotApplicable -->
<g id="node13" class="node">
<title>NotApplicable</title>
<path fill="#868e96" stroke="#bfc3c8" stroke-width="1.8" d="M713.6,-1217.07C713.6,-1217.07 536,-1217.07 536,-1217.07 530,-1217.07 524,-1211.07 524,-1205.07 524,-1205.07 524,-1171.11 524,-1171.11 524,-1165.11 530,-1159.11 536,-1159.11 536,-1159.11 713.6,-1159.11 713.6,-1159.11 719.6,-1159.11 725.6,-1165.11 725.6,-1171.11 725.6,-1171.11 725.6,-1205.07 725.6,-1205.07 725.6,-1211.07 719.6,-1217.07 713.6,-1217.07"/>
<text xml:space="preserve" text-anchor="middle" x="624.8" y="-1199.19" font-family="Noto Sans KR" font-size="12.00" fill="#161924">stable NotApplicable outcome</text>
<text xml:space="preserve" text-anchor="middle" x="624.8" y="-1184.19" font-family="Noto Sans KR" font-size="12.00" fill="#161924">missing explicit / empty snapshot</text>
<text xml:space="preserve" text-anchor="middle" x="624.8" y="-1169.19" font-family="Noto Sans KR" font-size="12.00" fill="#161924">no fragment</text>
</g>
<!-- Target&#45;&gt;NotApplicable -->
<g id="edge11" class="edge">
<title>Target&#45;&gt;NotApplicable</title>
<path fill="none" stroke="#70b7ff" stroke-width="1.7" d="M624.8,-1362.92C624.8,-1325.74 624.8,-1267.91 624.8,-1229.29"/>
<polygon fill="#70b7ff" stroke="#70b7ff" stroke-width="1.7" points="627.88,-1229.34 624.8,-1220.54 621.72,-1229.34 627.88,-1229.34"/>
<text xml:space="preserve" text-anchor="middle" x="662.3" y="-1327.56" font-family="Noto Sans KR" font-size="10.50" fill="#70b7ff">missing explicit /</text>
<text xml:space="preserve" text-anchor="middle" x="662.3" y="-1314.81" font-family="Noto Sans KR" font-size="10.50" fill="#70b7ff">empty snapshot</text>
</g>
<!-- Reject -->
<g id="node19" class="node">
<title>Reject</title>
<polygon fill="#a63b4e" stroke="#ff8da1" stroke-width="1.8" points="658.6,-447.74 463,-447.74 463,-404.78 664.6,-404.78 664.6,-441.74 658.6,-447.74"/>
<polyline fill="none" stroke="#ff8da1" stroke-width="1.8" points="658.6,-447.74 658.6,-441.74"/>
<polyline fill="none" stroke="#ff8da1" stroke-width="1.8" points="664.6,-441.74 658.6,-441.74"/>
<text xml:space="preserve" text-anchor="middle" x="563.8" y="-429.86" font-family="Noto Sans KR" font-size="12.00" fill="#efefef">실패</text>
<text xml:space="preserve" text-anchor="middle" x="563.8" y="-414.86" font-family="Noto Sans KR" font-size="12.00" fill="#efefef">mutation 없음 · outbox 없음</text>
</g>
<!-- Target&#45;&gt;Reject -->
<g id="edge13" class="edge">
<title>Target&#45;&gt;Reject</title>
<path fill="none" stroke="#ff8da1" stroke-width="1.7" stroke-dasharray="5,2" d="M674.74,-1362.89C693.24,-1349.51 709.8,-1337.53 709.8,-1337.53 709.8,-1337.53 751.8,-1265.55 751.8,-1265.55 751.8,-1265.55 751.8,-1265.55 751.8,-532.97 751.8,-532.97 666.77,-485.16 611.08,-453.85"/>
<polygon fill="#ff8da1" stroke="#ff8da1" stroke-width="1.7" points="612.82,-451.29 603.64,-449.66 609.8,-456.66 612.82,-451.29"/>
<text xml:space="preserve" text-anchor="middle" x="795.3" y="-880.74" font-family="Noto Sans KR" font-size="10.50" fill="#ff8da1">invalid spec / rule /</text>
<text xml:space="preserve" text-anchor="middle" x="795.3" y="-867.99" font-family="Noto Sans KR" font-size="10.50" fill="#ff8da1">snapshot contract</text>
</g>
<!-- Resolve -->
<g id="node7" class="node">
<title>Resolve</title>
<path fill="#fd7e14" stroke="#ffb45c" stroke-width="1.8" d="M410.63,-1133.11C410.63,-1133.11 178.97,-1133.11 178.97,-1133.11 172.97,-1133.11 166.97,-1127.11 166.97,-1121.11 166.97,-1121.11 166.97,-1087.15 166.97,-1087.15 166.97,-1081.15 172.97,-1075.15 178.97,-1075.15 178.97,-1075.15 410.63,-1075.15 410.63,-1075.15 416.63,-1075.15 422.63,-1081.15 422.63,-1087.15 422.63,-1087.15 422.63,-1121.11 422.63,-1121.11 422.63,-1127.11 416.63,-1133.11 410.63,-1133.11"/>
<text xml:space="preserve" text-anchor="middle" x="294.8" y="-1115.23" font-family="Noto Sans KR" font-size="12.00" fill="#161924">6. Owning domain resolver / product adapter</text>
<text xml:space="preserve" text-anchor="middle" x="294.8" y="-1100.23" font-family="Noto Sans KR" font-size="12.00" fill="#161924">pure calculation &#45;&gt; EffectOperationOutcome</text>
<text xml:space="preserve" text-anchor="middle" x="294.8" y="-1085.23" font-family="Noto Sans KR" font-size="12.00" fill="#161924">Applied | NotApplicable | Rejected</text>
</g>
<!-- Resolved&#45;&gt;Resolve -->
<g id="edge7" class="edge">
<title>Resolved&#45;&gt;Resolve</title>
<path fill="none" stroke="#efefef" stroke-width="1.7" d="M411.59,-1242.18C389.82,-1216.63 352.99,-1173.42 326.51,-1142.34"/>
<polygon fill="#efefef" stroke="#efefef" stroke-width="1.7" points="329.06,-1140.58 321.01,-1135.88 324.37,-1144.58 329.06,-1140.58"/>
</g>
<!-- Fragment -->
<g id="node8" class="node">
<title>Fragment</title>
<path fill="#1971c2" stroke="#70b7ff" stroke-width="1.8" d="M369.63,-1010.4C369.63,-1010.4 137.97,-1010.4 137.97,-1010.4 131.97,-1010.4 125.97,-1004.4 125.97,-998.4 125.97,-998.4 125.97,-964.44 125.97,-964.44 125.97,-958.44 131.97,-952.44 137.97,-952.44 137.97,-952.44 369.63,-952.44 369.63,-952.44 375.63,-952.44 381.63,-958.44 381.63,-964.44 381.63,-964.44 381.63,-998.4 381.63,-998.4 381.63,-1004.4 375.63,-1010.4 369.63,-1010.4"/>
<text xml:space="preserve" text-anchor="middle" x="253.8" y="-992.52" font-family="Noto Sans KR" font-size="12.00" fill="#efefef">7. Applied outcome carries</text>
<text xml:space="preserve" text-anchor="middle" x="253.8" y="-977.52" font-family="Noto Sans KR" font-size="12.00" fill="#efefef">CommitPlanFragment</text>
<text xml:space="preserve" text-anchor="middle" x="253.8" y="-962.52" font-family="Noto Sans KR" font-size="12.00" fill="#efefef">preconditions + mutations + outbox blueprint</text>
</g>
<!-- Resolve&#45;&gt;Fragment -->
<g id="edge8" class="edge">
<title>Resolve&#45;&gt;Fragment</title>
<path fill="none" stroke="#efefef" stroke-width="1.7" d="M285.08,-1074.52C279.71,-1058.7 272.96,-1038.82 267.1,-1021.57"/>
<polygon fill="#efefef" stroke="#efefef" stroke-width="1.7" points="270.16,-1021.02 264.42,-1013.68 264.33,-1023 270.16,-1021.02"/>
<text xml:space="preserve" text-anchor="middle" x="292.78" y="-1039.18" font-family="Noto Sans KR" font-size="10.50" fill="#bfc3c8">Applied</text>
</g>
<!-- Compose -->
<g id="node9" class="node">
<title>Compose</title>
<path fill="#1971c2" stroke="#70b7ff" stroke-width="1.8" d="M639,-899.44C639,-899.44 412.59,-899.44 412.59,-899.44 406.59,-899.44 400.59,-893.44 400.59,-887.44 400.59,-887.44 400.59,-868.48 400.59,-868.48 400.59,-862.48 406.59,-856.48 412.59,-856.48 412.59,-856.48 639,-856.48 639,-856.48 645,-856.48 651,-862.48 651,-868.48 651,-868.48 651,-887.44 651,-887.44 651,-893.44 645,-899.44 639,-899.44"/>
<text xml:space="preserve" text-anchor="middle" x="525.8" y="-881.56" font-family="Noto Sans KR" font-size="12.00" fill="#efefef">8. DeterministicEffectCommitPlanComposer</text>
<text xml:space="preserve" text-anchor="middle" x="525.8" y="-866.56" font-family="Noto Sans KR" font-size="12.00" fill="#efefef">stable outcome order + collision rejection</text>
</g>
<!-- Resolve&#45;&gt;Compose -->
<g id="edge10" class="edge">
<title>Resolve&#45;&gt;Compose</title>
<path fill="none" stroke="#70b7ff" stroke-width="1.7" d="M328.07,-1074.3C359.48,-1047.08 401.8,-1010.4 401.8,-1010.4 401.8,-1010.4 461.96,-946.63 498.47,-907.92"/>
<polygon fill="#70b7ff" stroke="#70b7ff" stroke-width="1.7" points="500.31,-910.46 504.11,-901.95 495.83,-906.24 500.31,-910.46"/>
<text xml:space="preserve" text-anchor="middle" x="512.56" y="-984.2" font-family="Noto Sans KR" font-size="10.50" fill="#70b7ff">NotApplicable / Rejected</text>
<text xml:space="preserve" text-anchor="middle" x="512.56" y="-971.45" font-family="Noto Sans KR" font-size="10.50" fill="#70b7ff">no fragment</text>
</g>
<!-- Fragment&#45;&gt;Compose -->
<g id="edge9" class="edge">
<title>Fragment&#45;&gt;Compose</title>
<path fill="none" stroke="#efefef" stroke-width="1.7" d="M331.02,-951.62C371.07,-936.68 419.55,-918.59 458.12,-904.21"/>
<polygon fill="#efefef" stroke="#efefef" stroke-width="1.7" points="459.14,-907.11 466.31,-901.15 456.99,-901.34 459.14,-907.11"/>
</g>
<!-- Status -->
<g id="node10" class="node">
<title>Status</title>
<path fill="#fd7e14" stroke="#ffb45c" stroke-width="1.8" d="M338.04,-801.08C338.04,-801.08 224.4,-777.92 224.4,-777.92 218.52,-776.72 218.52,-774.32 224.4,-773.12 224.4,-773.12 338.04,-749.96 338.04,-749.96 343.92,-748.76 355.68,-748.76 361.56,-749.96 361.56,-749.96 475.2,-773.12 475.2,-773.12 481.08,-774.32 481.08,-776.72 475.2,-777.92 475.2,-777.92 361.56,-801.08 361.56,-801.08 355.68,-802.28 343.92,-802.28 338.04,-801.08"/>
<text xml:space="preserve" text-anchor="middle" x="349.8" y="-771.62" font-family="Noto Sans KR" font-size="12.00" fill="#161924">9. composition status?</text>
</g>
<!-- Compose&#45;&gt;Status -->
<g id="edge15" class="edge">
<title>Compose&#45;&gt;Status</title>
<path fill="none" stroke="#efefef" stroke-width="1.7" d="M488.47,-855.66C461.31,-840.15 424.36,-819.07 395.44,-802.56"/>
<polygon fill="#efefef" stroke="#efefef" stroke-width="1.7" points="396.97,-799.89 387.8,-798.21 393.92,-805.24 396.97,-799.89"/>
</g>
<!-- Compose&#45;&gt;Reject -->
<g id="edge14" class="edge">
<title>Compose&#45;&gt;Reject</title>
<path fill="none" stroke="#ff8da1" stroke-width="1.7" stroke-dasharray="5,2" d="M536.19,-855.66C550.58,-826.18 574.8,-776.52 574.8,-776.52 574.8,-776.52 574.8,-776.52 574.8,-532.97 574.8,-532.97 570.4,-490.73 567.17,-459.65"/>
<polygon fill="#ff8da1" stroke="#ff8da1" stroke-width="1.7" points="570.24,-459.39 566.27,-450.96 564.11,-460.03 570.24,-459.39"/>
<text xml:space="preserve" text-anchor="middle" x="632.92" y="-663.01" font-family="Noto Sans KR" font-size="10.50" fill="#ff8da1">conflict / invalid fragment</text>
</g>
<!-- Ready -->
<g id="node11" class="node">
<title>Ready</title>
<path fill="#176b80" stroke="#77d3e5" stroke-width="1.8" d="M401.8,-682.81C401.8,-682.81 221.8,-682.81 221.8,-682.81 216.4,-682.81 211,-677.41 211,-672.01 211,-672.01 211,-661.21 211,-661.21 211,-655.81 216.4,-650.41 221.8,-650.41 221.8,-650.41 401.8,-650.41 401.8,-650.41 407.2,-650.41 412.6,-655.81 412.6,-661.21 412.6,-661.21 412.6,-672.01 412.6,-672.01 412.6,-677.41 407.2,-682.81 401.8,-682.81"/>
<text xml:space="preserve" text-anchor="middle" x="311.8" y="-662.71" font-family="Noto Sans KR" font-size="12.00" fill="#efefef">Ready + CommitPlan</text>
</g>
<!-- Status&#45;&gt;Ready -->
<g id="edge16" class="edge">
<title>Status&#45;&gt;Ready</title>
<path fill="none" stroke="#efefef" stroke-width="1.7" d="M340.6,-748.64C334.75,-732.17 327.18,-710.89 321.28,-694.27"/>
<polygon fill="#efefef" stroke="#efefef" stroke-width="1.7" points="324.21,-693.31 318.36,-686.05 318.4,-695.38 324.21,-693.31"/>
<text xml:space="preserve" text-anchor="middle" x="345.05" y="-711.59" font-family="Noto Sans KR" font-size="10.50" fill="#bfc3c8">Ready</text>
</g>
<!-- NoCommit -->
<g id="node12" class="node">
<title>NoCommit</title>
<path fill="#868e96" stroke="#bfc3c8" stroke-width="1.8" d="M189.6,-624.41C189.6,-624.41 12,-624.41 12,-624.41 6,-624.41 0,-618.41 0,-612.41 0,-612.41 0,-593.45 0,-593.45 0,-587.45 6,-581.45 12,-581.45 12,-581.45 189.6,-581.45 189.6,-581.45 195.6,-581.45 201.6,-587.45 201.6,-593.45 201.6,-593.45 201.6,-612.41 201.6,-612.41 201.6,-618.41 195.6,-624.41 189.6,-624.41"/>
<text xml:space="preserve" text-anchor="middle" x="100.8" y="-606.53" font-family="Noto Sans KR" font-size="12.00" fill="#161924">NoChanges</text>
<text xml:space="preserve" text-anchor="middle" x="100.8" y="-591.53" font-family="Noto Sans KR" font-size="12.00" fill="#161924">no commit · no outbox</text>
</g>
<!-- Status&#45;&gt;NoCommit -->
<g id="edge18" class="edge">
<title>Status&#45;&gt;NoCommit</title>
<path fill="none" stroke="#efefef" stroke-width="1.7" d="M314.12,-753.94C267.24,-726.9 190.8,-682.81 190.8,-682.81 190.8,-682.81 159.14,-655.06 133.38,-632.48"/>
<polygon fill="#efefef" stroke="#efefef" stroke-width="1.7" points="135.5,-630.25 126.85,-626.76 131.44,-634.88 135.5,-630.25"/>
<text xml:space="preserve" text-anchor="middle" x="283.36" y="-711.59" font-family="Noto Sans KR" font-size="10.50" fill="#bfc3c8">NoChanges</text>
</g>
<!-- Status&#45;&gt;Reject -->
<g id="edge20" class="edge">
<title>Status&#45;&gt;Reject</title>
<path fill="none" stroke="#ff8da1" stroke-width="1.7" stroke-dasharray="5,2" d="M370.74,-751.38C395.33,-724.21 432.8,-682.81 432.8,-682.81 432.8,-682.81 512.93,-526.49 547.85,-458.37"/>
<polygon fill="#ff8da1" stroke="#ff8da1" stroke-width="1.7" points="550.41,-460.13 551.68,-450.9 544.93,-457.32 550.41,-460.13"/>
<text xml:space="preserve" text-anchor="middle" x="508.05" y="-605.71" font-family="Noto Sans KR" font-size="10.50" fill="#ff8da1">Rejected</text>
<text xml:space="preserve" text-anchor="middle" x="508.05" y="-592.96" font-family="Noto Sans KR" font-size="10.50" fill="#ff8da1">no commit</text>
</g>
<!-- Commit -->
<g id="node14" class="node">
<title>Commit</title>
<path fill="#14745b" stroke="#70d0a8" stroke-width="1.8" d="M400.6,-555.45C400.6,-555.45 223,-555.45 223,-555.45 217,-555.45 211,-549.45 211,-543.45 211,-543.45 211,-524.49 211,-524.49 211,-518.49 217,-512.49 223,-512.49 223,-512.49 400.6,-512.49 400.6,-512.49 406.6,-512.49 412.6,-518.49 412.6,-524.49 412.6,-524.49 412.6,-543.45 412.6,-543.45 412.6,-549.45 406.6,-555.45 400.6,-555.45"/>
<text xml:space="preserve" text-anchor="middle" x="311.8" y="-537.57" font-family="Noto Sans KR" font-size="12.00" fill="#efefef">10. RuntimeCommitter</text>
<text xml:space="preserve" text-anchor="middle" x="311.8" y="-522.57" font-family="Noto Sans KR" font-size="12.00" fill="#efefef">state + outbox atomic commit</text>
</g>
<!-- Ready&#45;&gt;Commit -->
<g id="edge17" class="edge">
<title>Ready&#45;&gt;Commit</title>
<path fill="none" stroke="#efefef" stroke-width="1.7" d="M311.8,-649.59C311.8,-629.27 311.8,-593.71 311.8,-567.58"/>
<polygon fill="#efefef" stroke="#efefef" stroke-width="1.7" points="314.88,-567.7 311.8,-558.9 308.72,-567.7 314.88,-567.7"/>
</g>
<!-- Result -->
<g id="node18" class="node">
<title>Result</title>
<path fill="#868e96" stroke="#bfc3c8" stroke-width="1.8" d="M491.38,-136.36C491.38,-136.36 312.22,-136.36 312.22,-136.36 306.22,-136.36 300.22,-130.36 300.22,-124.36 300.22,-124.36 300.22,-105.4 300.22,-105.4 300.22,-99.4 306.22,-93.4 312.22,-93.4 312.22,-93.4 491.38,-93.4 491.38,-93.4 497.38,-93.4 503.38,-99.4 503.38,-105.4 503.38,-105.4 503.38,-124.36 503.38,-124.36 503.38,-130.36 497.38,-136.36 491.38,-136.36"/>
<text xml:space="preserve" text-anchor="middle" x="401.8" y="-118.48" font-family="Noto Sans KR" font-size="12.00" fill="#161924">14. Product response / DebugTrace</text>
<text xml:space="preserve" text-anchor="middle" x="401.8" y="-103.48" font-family="Noto Sans KR" font-size="12.00" fill="#161924">observe commit, no&#45;op, or failure</text>
</g>
<!-- NoCommit&#45;&gt;Result -->
<g id="edge19" class="edge">
<title>NoCommit&#45;&gt;Result</title>
<path fill="none" stroke="#bfc3c8" stroke-width="1.7" d="M94.09,-580.61C83.18,-545.93 62.8,-481.12 62.8,-481.12 62.8,-481.12 62.8,-481.12 62.8,-209.84 62.8,-209.84 213.66,-168.03 314.11,-140.19"/>
<polygon fill="#bfc3c8" stroke="#bfc3c8" stroke-width="1.7" points="314.74,-143.21 322.4,-137.89 313.09,-137.27 314.74,-143.21"/>
<text xml:space="preserve" text-anchor="middle" x="114.55" y="-368.81" font-family="Noto Sans KR" font-size="10.50" fill="#bfc3c8">return without commit</text>
</g>
<!-- NotApplicable&#45;&gt;Compose -->
<g id="edge12" class="edge">
<title>NotApplicable&#45;&gt;Compose</title>
<path fill="none" stroke="#70b7ff" stroke-width="1.7" d="M619.28,-1158.32C607.27,-1095.66 579.8,-952.44 579.8,-952.44 579.8,-952.44 562.93,-929.48 548.05,-909.23"/>
<polygon fill="#70b7ff" stroke="#70b7ff" stroke-width="1.7" points="550.64,-907.55 542.94,-902.29 545.67,-911.2 550.64,-907.55"/>
<text xml:space="preserve" text-anchor="middle" x="636.28" y="-1039.18" font-family="Noto Sans KR" font-size="10.50" fill="#70b7ff">map to outcome</text>
</g>
<!-- Facts -->
<g id="node15" class="node">
<title>Facts</title>
<path fill="#176b80" stroke="#77d3e5" stroke-width="1.8" d="M390.95,-442.46C390.95,-442.46 196.64,-442.46 196.64,-442.46 191.24,-442.46 185.84,-437.06 185.84,-431.66 185.84,-431.66 185.84,-420.86 185.84,-420.86 185.84,-415.46 191.24,-410.06 196.64,-410.06 196.64,-410.06 390.95,-410.06 390.95,-410.06 396.35,-410.06 401.75,-415.46 401.75,-420.86 401.75,-420.86 401.75,-431.66 401.75,-431.66 401.75,-437.06 396.35,-442.46 390.95,-442.46"/>
<text xml:space="preserve" text-anchor="middle" x="293.8" y="-422.36" font-family="Noto Sans KR" font-size="12.00" fill="#efefef">11. CommitReceipt + committed facts</text>
</g>
<!-- Commit&#45;&gt;Facts -->
<g id="edge21" class="edge">
<title>Commit&#45;&gt;Facts</title>
<path fill="none" stroke="#efefef" stroke-width="1.7" d="M308.2,-511.83C305.39,-495.3 301.45,-472.21 298.41,-454.33"/>
<polygon fill="#efefef" stroke="#efefef" stroke-width="1.7" points="301.46,-453.89 296.94,-445.73 295.39,-454.92 301.46,-453.89"/>
</g>
<!-- Commit&#45;&gt;Reject -->
<g id="edge27" class="edge">
<title>Commit&#45;&gt;Reject</title>
<path fill="none" stroke="#ff8da1" stroke-width="1.7" stroke-dasharray="5,2" d="M323.17,-511.92C332.37,-494.9 343.8,-473.74 343.8,-473.74 343.8,-473.74 397.57,-462.38 451.95,-450.89"/>
<polygon fill="#ff8da1" stroke="#ff8da1" stroke-width="1.7" points="452.32,-453.96 460.3,-449.13 451.05,-447.93 452.32,-453.96"/>
<text xml:space="preserve" text-anchor="middle" x="393.3" y="-476.52" font-family="Noto Sans KR" font-size="10.50" fill="#ff8da1">version / invariant fail</text>
</g>
<!-- Dispatch -->
<g id="node16" class="node">
<title>Dispatch</title>
<path fill="#868e96" stroke="#bfc3c8" stroke-width="1.8" d="M441.6,-340.03C441.6,-340.03 264,-340.03 264,-340.03 258,-340.03 252,-334.03 252,-328.03 252,-328.03 252,-309.07 252,-309.07 252,-303.07 258,-297.07 264,-297.07 264,-297.07 441.6,-297.07 441.6,-297.07 447.6,-297.07 453.6,-303.07 453.6,-309.07 453.6,-309.07 453.6,-328.03 453.6,-328.03 453.6,-334.03 447.6,-340.03 441.6,-340.03"/>
<text xml:space="preserve" text-anchor="middle" x="352.8" y="-322.15" font-family="Noto Sans KR" font-size="12.00" fill="#161924">12. External dispatcher</text>
<text xml:space="preserve" text-anchor="middle" x="352.8" y="-307.15" font-family="Noto Sans KR" font-size="12.00" fill="#161924">reads committed outbox</text>
</g>
<!-- Facts&#45;&gt;Dispatch -->
<g id="edge22" class="edge">
<title>Facts&#45;&gt;Dispatch</title>
<path fill="none" stroke="#efefef" stroke-width="1.7" d="M302.76,-409.2C311.4,-393.73 324.69,-369.91 335.41,-350.71"/>
<polygon fill="#efefef" stroke="#efefef" stroke-width="1.7" points="338.04,-352.31 339.64,-343.13 332.66,-349.31 338.04,-352.31"/>
</g>
<!-- Queue -->
<g id="node17" class="node">
<title>Queue</title>
<path fill="#b93d8e" stroke="#e487c7" stroke-width="1.8" d="M490.6,-232.32C490.6,-232.32 313,-232.32 313,-232.32 307,-232.32 301,-226.32 301,-220.32 301,-220.32 301,-201.36 301,-201.36 301,-195.36 307,-189.36 313,-189.36 313,-189.36 490.6,-189.36 490.6,-189.36 496.6,-189.36 502.6,-195.36 502.6,-201.36 502.6,-201.36 502.6,-220.32 502.6,-220.32 502.6,-226.32 496.6,-232.32 490.6,-232.32"/>
<text xml:space="preserve" text-anchor="middle" x="401.8" y="-214.44" font-family="Noto Sans KR" font-size="12.00" fill="#efefef">13. ReactionQueue</text>
<text xml:space="preserve" text-anchor="middle" x="401.8" y="-199.44" font-family="Noto Sans KR" font-size="12.00" fill="#efefef">bounded follow&#45;up command</text>
</g>
<!-- Dispatch&#45;&gt;Queue -->
<g id="edge23" class="edge">
<title>Dispatch&#45;&gt;Queue</title>
<path fill="none" stroke="#efefef" stroke-width="1.7" d="M362.6,-296.41C369.68,-281.14 379.35,-260.27 387.32,-243.08"/>
<polygon fill="#efefef" stroke="#efefef" stroke-width="1.7" points="390.03,-244.56 390.94,-235.28 384.44,-241.96 390.03,-244.56"/>
<text xml:space="preserve" text-anchor="middle" x="421.86" y="-261.1" font-family="Noto Sans KR" font-size="10.50" fill="#bfc3c8">matching reaction</text>
</g>
<!-- Dispatch&#45;&gt;Result -->
<g id="edge24" class="edge">
<title>Dispatch&#45;&gt;Result</title>
<path fill="none" stroke="#bfc3c8" stroke-width="1.7" d="M310.47,-296.26C260.26,-271.02 183.3,-232.32 183.3,-232.32 183.3,-232.32 183.3,-189.36 183.3,-189.36 183.3,-189.36 264.5,-162.05 327.9,-140.73"/>
<polygon fill="#bfc3c8" stroke="#bfc3c8" stroke-width="1.7" points="328.51,-143.78 335.87,-138.05 326.55,-137.94 328.51,-143.78"/>
<text xml:space="preserve" text-anchor="middle" x="232.05" y="-207.24" font-family="Noto Sans KR" font-size="10.50" fill="#bfc3c8">no matching reaction</text>
</g>
<!-- Queue&#45;&gt;Result -->
<g id="edge25" class="edge">
<title>Queue&#45;&gt;Result</title>
<path fill="none" stroke="#efefef" stroke-width="1.7" d="M401.8,-188.52C401.8,-176.63 401.8,-161.57 401.8,-148.25"/>
<polygon fill="#efefef" stroke="#efefef" stroke-width="1.7" points="404.88,-148.49 401.8,-139.69 398.72,-148.49 404.88,-148.49"/>
</g>
<!-- end -->
<g id="node20" class="node">
<title>end</title>
<ellipse fill="#272727" stroke="#efefef" stroke-width="1.8" cx="401.8" cy="-20.2" rx="16.2" ry="16.2"/>
<ellipse fill="none" stroke="#efefef" stroke-width="1.8" cx="401.8" cy="-20.2" rx="20.2" ry="20.2"/>
</g>
<!-- Result&#45;&gt;end -->
<g id="edge26" class="edge">
<title>Result&#45;&gt;end</title>
<path fill="none" stroke="#efefef" stroke-width="1.7" d="M401.8,-92.85C401.8,-80.87 401.8,-65.64 401.8,-52.3"/>
<polygon fill="#efefef" stroke="#efefef" stroke-width="1.7" points="404.88,-52.57 401.8,-43.77 398.72,-52.57 404.88,-52.57"/>
</g>
<!-- Reject&#45;&gt;Result -->
<g id="edge28" class="edge">
<title>Reject&#45;&gt;Result</title>
<path fill="none" stroke="#bfc3c8" stroke-width="1.7" d="M560.09,-403.91C550,-345.84 522.8,-189.36 522.8,-189.36 522.8,-189.36 480.8,-163.86 446.29,-142.9"/>
<polygon fill="#bfc3c8" stroke="#bfc3c8" stroke-width="1.7" points="448.12,-140.4 439,-138.47 444.92,-145.67 448.12,-140.4"/>
<text xml:space="preserve" text-anchor="middle" x="566.78" y="-261.1" font-family="Noto Sans KR" font-size="10.50" fill="#bfc3c8">return failure</text>
</g>
</g>
</svg>
