<?xml version="1.0" encoding="UTF-8" standalone="no"?>
<!DOCTYPE svg PUBLIC "-//W3C//DTD SVG 1.1//EN"
 "http://www.w3.org/Graphics/SVG/1.1/DTD/svg11.dtd">
<!-- Generated by graphviz version 15.1.0 (20260618.0150)
 -->
<!-- Title: G Pages: 1 -->
<svg data-diagram-theme="chalkboard-dark-v1" width="2447pt" height="1830pt"
 viewBox="12.00 12.00 2435.00 1819.00" xmlns="http://www.w3.org/2000/svg" xmlns:xlink="http://www.w3.org/1999/xlink">
<g id="graph0" class="graph" transform="scale(1.33333 1.33333) rotate(0) translate(36 1336.73)">
<title>G</title>
<polygon fill="#1e1e1e" stroke="none" points="-27.36,27.36 -27.36,-1328.09 1790.26,-1328.09 1790.26,27.36 -27.36,27.36"/>
<text xml:space="preserve" text-anchor="middle" x="881.45" y="-1277.73" font-family="Noto Sans KR" font-size="20.00" fill="#efefef">Conceptual product lifecycle · executable reference handoffs are named explicitly</text>
<!-- Defined&#45;&gt;Registered -->
<g id="edge1" class="edge">
<title>Defined:s&#45;&gt;Registered:n</title>
<path fill="none" stroke="#ffb45c" stroke-width="1.7" d="M829.4,-1225.02C829.4,-1225.02 829.4,-1184.1 829.4,-1163.64"/>
<polygon fill="#ffb45c" stroke="#ffb45c" stroke-width="1.7" points="832.48,-1163.64 829.4,-1154.84 826.32,-1163.64 832.48,-1163.64"/>
<text xml:space="preserve" text-anchor="middle" x="884.52" y="-1185.05" font-family="Noto Sans KR" font-size="10.50" fill="#bfc3c8">load validated definition</text>
</g>
<!-- Registered&#45;&gt;Requested -->
<g id="edge2" class="edge">
<title>Registered:s&#45;&gt;Requested:n</title>
<path fill="none" stroke="#70b7ff" stroke-width="1.7" d="M829.4,-1109.31C829.4,-1109.31 652.6,-1054.11 607.02,-1039.87"/>
<polygon fill="#70b7ff" stroke="#70b7ff" stroke-width="1.7" points="608.17,-1037.01 598.86,-1037.33 606.34,-1042.89 608.17,-1037.01"/>
<text xml:space="preserve" text-anchor="middle" x="789.1" y="-1069.34" font-family="Noto Sans KR" font-size="10.50" fill="#bfc3c8">create specification request</text>
</g>
<!-- Registered&#45;&gt;WaitingTrigger -->
<g id="edge24" class="edge">
<title>Registered:e&#45;&gt;WaitingTrigger:w</title>
<path fill="none" stroke="#e487c7" stroke-width="1.7" d="M924.23,-1130.79C924.23,-1130.79 1102.78,-1162.79 1102.78,-1162.79 1102.78,-1162.79 1222.03,-1162.79 1222.03,-1162.79 1222.03,-1162.79 1338.2,-1141.97 1383.13,-1133.92"/>
<polygon fill="#e487c7" stroke="#e487c7" stroke-width="1.7" points="1389.92,-1135.83 1398.04,-1131.24 1388.83,-1129.76 1389.92,-1135.83"/>
<text xml:space="preserve" text-anchor="middle" x="1162.4" y="-1165.57" font-family="Noto Sans KR" font-size="10.50" fill="#bfc3c8">register reaction predicate</text>
</g>
<!-- Requested&#45;&gt;SnapshotReady -->
<g id="edge3" class="edge">
<title>Requested:s&#45;&gt;SnapshotReady:n</title>
<path fill="none" stroke="#70b7ff" stroke-width="1.7" d="M596.4,-977.6C596.4,-977.6 679.98,-978.6 679.98,-978.6 679.98,-978.6 809.4,-1036.56 809.4,-1036.56 809.4,-1036.56 890.27,-1068.42 890.27,-1068.42 890.27,-1068.42 964.52,-1068.42 964.52,-1068.42 964.52,-1068.42 1123.2,-1044.78 1167.2,-1038.23"/>
<polygon fill="#70b7ff" stroke="#70b7ff" stroke-width="1.7" points="1167.6,-1041.28 1175.86,-1036.94 1166.7,-1035.19 1167.6,-1041.28"/>
<text xml:space="preserve" text-anchor="middle" x="927.4" y="-1069.34" font-family="Noto Sans KR" font-size="10.50" fill="#bfc3c8">candidate mode</text>
</g>
<!-- Requested&#45;&gt;Validating -->
<g id="edge4" class="edge">
<title>Requested:e&#45;&gt;Validating:w</title>
<path fill="none" stroke="#70b7ff" stroke-width="1.7" d="M680.98,-1007.58C680.98,-1007.58 679.98,-978.6 679.98,-978.6 679.98,-978.6 556.15,-948.6 556.15,-948.6 556.15,-948.6 556.15,-935.85 556.15,-935.85 556.15,-935.85 995.67,-892.84 1071.21,-885.45"/>
<polygon fill="#70b7ff" stroke="#70b7ff" stroke-width="1.7" points="1071.18,-888.54 1079.63,-884.62 1070.58,-882.41 1071.18,-888.54"/>
<text xml:space="preserve" text-anchor="middle" x="585.77" y="-938.63" font-family="Noto Sans KR" font-size="10.50" fill="#bfc3c8">Self / Explicit</text>
</g>
<!-- Requested&#45;&gt;Scheduled -->
<g id="edge22" class="edge">
<title>Requested:ne&#45;&gt;Scheduled:nw</title>
<path fill="none" stroke="#70b7ff" stroke-width="1.7" d="M678.98,-1036.56C678.98,-1036.56 710.21,-1039.58 710.21,-1039.58 710.21,-1039.58 808.46,-1039.58 808.46,-1039.58 808.46,-1039.58 815.11,-1037.27 822.16,-1034.81"/>
<polygon fill="#70b7ff" stroke="#70b7ff" stroke-width="1.7" points="828.97,-1035.71 836.26,-1029.91 826.94,-1029.89 828.97,-1035.71"/>
<text xml:space="preserve" text-anchor="middle" x="759.34" y="-1042.36" font-family="Noto Sans KR" font-size="10.50" fill="#bfc3c8">product scheduling</text>
</g>
<!-- Requested&#45;&gt;Cancelled -->
<g id="edge20" class="edge">
<title>Requested:e&#45;&gt;Cancelled:n</title>
<path fill="none" stroke="#ff8da1" stroke-width="1.7" stroke-dasharray="5,2" d="M680.98,-1007.58C680.98,-1007.58 679.98,-978.6 679.98,-978.6 679.98,-978.6 622.06,-931.03 599.89,-912.83"/>
<polygon fill="#ff8da1" stroke="#ff8da1" stroke-width="1.7" points="602.14,-910.69 593.39,-907.48 598.23,-915.45 602.14,-910.69"/>
<text xml:space="preserve" text-anchor="middle" x="695.74" y="-938.63" font-family="Noto Sans KR" font-size="10.50" fill="#bfc3c8">cancel before validation</text>
</g>
<!-- SnapshotReady&#45;&gt;Validating -->
<g id="edge5" class="edge">
<title>SnapshotReady:s&#45;&gt;Validating:n</title>
<path fill="none" stroke="#efefef" stroke-width="1.7" d="M1178.4,-978.6C1178.4,-978.6 1178.4,-937.68 1178.4,-917.22"/>
<polygon fill="#efefef" stroke="#efefef" stroke-width="1.7" points="1181.48,-917.22 1178.4,-908.42 1175.32,-917.22 1181.48,-917.22"/>
</g>
<!-- Validating&#45;&gt;ResolvingTargets -->
<g id="edge6" class="edge">
<title>Validating:s&#45;&gt;ResolvingTargets:n</title>
<path fill="none" stroke="#efefef" stroke-width="1.7" d="M1178.4,-862.89C1178.4,-862.89 946.69,-815.14 893.29,-804.13"/>
<polygon fill="#efefef" stroke="#efefef" stroke-width="1.7" points="894.16,-801.17 884.92,-802.41 892.92,-807.2 894.16,-801.17"/>
</g>
<!-- Validating&#45;&gt;Cancelled -->
<g id="edge21" class="edge">
<title>Validating:e&#45;&gt;Cancelled:w</title>
<path fill="none" stroke="#ff8da1" stroke-width="1.7" stroke-dasharray="5,2" d="M1274.61,-884.37C1274.61,-884.37 1273.61,-905.85 1273.61,-905.85 1273.61,-905.85 1083.2,-905.85 1083.2,-905.85 1083.2,-905.85 936.46,-832.62 936.46,-832.62 936.46,-832.62 826.96,-832.62 826.96,-832.62 826.96,-832.62 680.23,-905.85 680.23,-905.85 680.23,-905.85 502.57,-905.85 502.57,-905.85 502.57,-905.85 502.5,-904.33 502.4,-902.11"/>
<polygon fill="#ff8da1" stroke="#ff8da1" stroke-width="1.7" points="505.18,-895.59 501.69,-886.94 499.02,-895.87 505.18,-895.59"/>
<text xml:space="preserve" text-anchor="middle" x="881.71" y="-835.4" font-family="Noto Sans KR" font-size="10.50" fill="#bfc3c8">cancel during validation</text>
</g>
<!-- Validating&#45;&gt;Failed -->
<g id="edge17" class="edge">
<title>Validating:e&#45;&gt;Failed:nw</title>
<path fill="none" stroke="#ff8da1" stroke-width="1.7" stroke-dasharray="5,2" d="M1274.61,-884.37C1274.61,-884.37 1302.4,-773.91 1302.4,-773.91 1302.4,-773.91 1302.4,-773.91 1302.4,-362.34 1302.4,-362.34 1036.4,-292.63 1036.4,-292.63 1036.4,-292.63 858.72,-269.97 812.22,-264.04"/>
<polygon fill="#ff8da1" stroke="#ff8da1" stroke-width="1.7" points="812.87,-261.01 803.75,-262.96 812.09,-267.12 812.87,-261.01"/>
<text xml:space="preserve" text-anchor="middle" x="1360.53" y="-565.64" font-family="Noto Sans KR" font-size="10.50" fill="#bfc3c8">invalid specification / rule</text>
</g>
<!-- ResolvingTargets&#45;&gt;Resolved -->
<g id="edge7" class="edge">
<title>ResolvingTargets:s&#45;&gt;Resolved:n</title>
<path fill="none" stroke="#efefef" stroke-width="1.7" d="M882.4,-743.93C882.4,-743.93 741.25,-690.45 701,-675.19"/>
<polygon fill="#efefef" stroke="#efefef" stroke-width="1.7" points="702.13,-672.33 692.81,-672.09 699.94,-678.09 702.13,-672.33"/>
</g>
<!-- ResolvingTargets&#45;&gt;NotApplicable -->
<g id="edge10" class="edge">
<title>ResolvingTargets:e&#45;&gt;NotApplicable:w</title>
<path fill="none" stroke="#bfc3c8" stroke-width="1.7" stroke-dasharray="5,2" d="M998.48,-772.91C998.48,-772.91 997.48,-743.93 997.48,-743.93 997.48,-743.93 896.9,-713.93 896.9,-713.93 896.9,-713.93 830.94,-598.22 830.94,-598.22 830.94,-598.22 830.61,-588.53 830.33,-580.36"/>
<polygon fill="#bfc3c8" stroke="#bfc3c8" stroke-width="1.7" points="833.42,-580.5 830.03,-571.81 827.26,-580.71 833.42,-580.5"/>
<text xml:space="preserve" text-anchor="middle" x="972.65" y="-703.96" font-family="Noto Sans KR" font-size="10.50" fill="#bfc3c8">missing explicit / empty snapshot</text>
</g>
<!-- ResolvingTargets&#45;&gt;Failed -->
<g id="edge18" class="edge">
<title>ResolvingTargets:e&#45;&gt;Failed:w</title>
<path fill="none" stroke="#ff8da1" stroke-width="1.7" stroke-dasharray="5,2" d="M998.48,-772.91C998.48,-772.91 1059.4,-713.93 1059.4,-713.93 1059.4,-713.93 1094.4,-650.7 1094.4,-650.7 1094.4,-650.7 1094.4,-650.7 1094.4,-362.34 1094.4,-362.34 981.4,-292.63 981.4,-292.63 981.4,-292.63 801.19,-262.63 801.19,-262.63 801.19,-262.63 800.96,-257.59 800.72,-252.39"/>
<polygon fill="#ff8da1" stroke="#ff8da1" stroke-width="1.7" points="803.8,-252.37 800.31,-243.72 797.65,-252.65 803.8,-252.37"/>
<text xml:space="preserve" text-anchor="middle" x="1152.53" y="-477.68" font-family="Noto Sans KR" font-size="10.50" fill="#bfc3c8">invalid snapshot contract</text>
</g>
<!-- Resolved&#45;&gt;Planning -->
<g id="edge8" class="edge">
<title>Resolved:s&#45;&gt;Planning:n</title>
<path fill="none" stroke="#efefef" stroke-width="1.7" d="M690.4,-628.22C690.4,-628.22 677.2,-550.35 672.25,-521.15"/>
<polygon fill="#efefef" stroke="#efefef" stroke-width="1.7" points="675.34,-520.96 670.83,-512.8 669.26,-521.99 675.34,-520.96"/>
</g>
<!-- Planning&#45;&gt;Prepared -->
<g id="edge9" class="edge">
<title>Planning:s&#45;&gt;Prepared:n</title>
<path fill="none" stroke="#efefef" stroke-width="1.7" d="M670.4,-452.3C670.4,-452.3 683.48,-419.05 690.33,-401.65"/>
<polygon fill="#efefef" stroke="#efefef" stroke-width="1.7" points="693.1,-403.01 693.46,-393.69 687.37,-400.76 693.1,-403.01"/>
</g>
<!-- Prepared&#45;&gt;Ready -->
<g id="edge12" class="edge">
<title>Prepared:s&#45;&gt;Ready:n</title>
<path fill="none" stroke="#efefef" stroke-width="1.7" d="M694.4,-335.38C694.4,-335.38 163.52,-273.68 79.53,-263.92"/>
<polygon fill="#efefef" stroke="#efefef" stroke-width="1.7" points="80.05,-260.88 70.96,-262.93 79.34,-267 80.05,-260.88"/>
<text xml:space="preserve" text-anchor="middle" x="433.13" y="-295.41" font-family="Noto Sans KR" font-size="10.50" fill="#bfc3c8">Ready</text>
</g>
<!-- Prepared&#45;&gt;NoCommit -->
<g id="edge14" class="edge">
<title>Prepared:e&#45;&gt;NoCommit:w</title>
<path fill="none" stroke="#bfc3c8" stroke-width="1.7" d="M826.2,-363.34C826.2,-363.34 825.2,-335.38 825.2,-335.38 825.2,-335.38 598.57,-262.63 598.57,-262.63 598.57,-262.63 598.34,-257.59 598.09,-252.39"/>
<polygon fill="#bfc3c8" stroke="#bfc3c8" stroke-width="1.7" points="601.18,-252.37 597.69,-243.72 595.02,-252.65 601.18,-252.37"/>
<text xml:space="preserve" text-anchor="middle" x="752.08" y="-295.41" font-family="Noto Sans KR" font-size="10.50" fill="#bfc3c8">NoChanges</text>
</g>
<!-- Prepared&#45;&gt;Failed -->
<g id="edge15" class="edge">
<title>Prepared:w&#45;&gt;Failed:e</title>
<path fill="none" stroke="#ff8da1" stroke-width="1.7" stroke-dasharray="5,2" d="M562.6,-363.34C562.6,-363.34 563.6,-335.38 563.6,-335.38 563.6,-335.38 793.4,-305.38 793.4,-305.38 793.4,-305.38 1045.61,-262.63 1045.61,-262.63 1045.61,-262.63 1045.84,-257.59 1046.08,-252.39"/>
<polygon fill="#ff8da1" stroke="#ff8da1" stroke-width="1.7" points="1049.15,-252.65 1046.49,-243.72 1043,-252.37 1049.15,-252.65"/>
<text xml:space="preserve" text-anchor="middle" x="917.05" y="-295.41" font-family="Noto Sans KR" font-size="10.50" fill="#bfc3c8">Rejected · no commit</text>
</g>
<!-- Ready&#45;&gt;Committing -->
<g id="edge13" class="edge">
<title>Ready:s&#45;&gt;Committing:n</title>
<path fill="none" stroke="#efefef" stroke-width="1.7" d="M68.4,-218.67C68.4,-218.67 166.77,-189.4 166.77,-189.4 166.77,-189.4 247.02,-189.4 247.02,-189.4 247.02,-189.4 277,-262.63 277,-262.63 277,-262.63 307.52,-263.08 327.79,-263.37"/>
<polygon fill="#efefef" stroke="#efefef" stroke-width="1.7" points="333.98,-266.54 342.83,-263.59 334.07,-260.38 333.98,-266.54"/>
<text xml:space="preserve" text-anchor="middle" x="206.9" y="-192.18" font-family="Noto Sans KR" font-size="10.50" fill="#bfc3c8">CommitPlan only</text>
</g>
<!-- NotApplicable&#45;&gt;Prepared -->
<g id="edge11" class="edge">
<title>NotApplicable:s&#45;&gt;Prepared:e</title>
<path fill="none" stroke="#bfc3c8" stroke-width="1.7" stroke-dasharray="5,2" d="M928.4,-540.26C928.4,-540.26 853.27,-410.19 831.84,-373.1"/>
<polygon fill="#bfc3c8" stroke="#bfc3c8" stroke-width="1.7" points="834.56,-371.65 827.49,-365.57 829.22,-374.73 834.56,-371.65"/>
<text xml:space="preserve" text-anchor="middle" x="948.15" y="-477.68" font-family="Noto Sans KR" font-size="10.50" fill="#bfc3c8">map to outcome</text>
</g>
<!-- NoCommit&#45;&gt;Logged -->
<g id="edge29" class="edge">
<title>NoCommit:s&#45;&gt;Logged:n</title>
<path fill="none" stroke="#bfc3c8" stroke-width="1.7" stroke-dasharray="1,5" d="M669.4,-219.67C669.4,-219.67 609.66,-90.94 592.16,-53.22"/>
<polygon fill="#bfc3c8" stroke="#bfc3c8" stroke-width="1.7" points="594.98,-51.98 588.48,-45.29 589.39,-54.57 594.98,-51.98"/>
<text xml:space="preserve" text-anchor="middle" x="668.21" y="-121.84" font-family="Noto Sans KR" font-size="10.50" fill="#bfc3c8">observe no&#45;op</text>
</g>
<!-- Committing&#45;&gt;Committed -->
<g id="edge16" class="edge">
<title>Committing:s&#45;&gt;Committed:n</title>
<path fill="none" stroke="#70d0a8" stroke-width="1.7" d="M345.4,-219.67C345.4,-219.67 339.4,-189.67 339.4,-189.67 339.4,-189.67 339.4,-176.92 339.4,-176.92 339.4,-176.92 341.52,-166.34 343.23,-157.75"/>
<polygon fill="#70d0a8" stroke="#70d0a8" stroke-width="1.7" points="346.19,-158.68 344.9,-149.44 340.15,-157.47 346.19,-158.68"/>
<text xml:space="preserve" text-anchor="middle" x="399.4" y="-179.7" font-family="Noto Sans KR" font-size="10.50" fill="#bfc3c8">atomic commit succeeded</text>
</g>
<!-- Committing&#45;&gt;Failed -->
<g id="edge19" class="edge">
<title>Committing:e&#45;&gt;Failed:w</title>
<path fill="none" stroke="#ff8da1" stroke-width="1.7" stroke-dasharray="5,2" d="M414.8,-241.15C414.8,-241.15 546.65,-295.74 546.65,-295.74 546.65,-295.74 668.15,-295.74 668.15,-295.74 668.15,-295.74 770.4,-262.63 770.4,-262.63 770.4,-262.63 782.33,-254.03 791.09,-247.71"/>
<polygon fill="#ff8da1" stroke="#ff8da1" stroke-width="1.7" points="792.77,-250.3 798.11,-242.65 789.17,-245.3 792.77,-250.3"/>
<text xml:space="preserve" text-anchor="middle" x="607.4" y="-295.41" font-family="Noto Sans KR" font-size="10.50" fill="#bfc3c8">version / invariant rejected</text>
</g>
<!-- Committed&#45;&gt;ReactionQueued -->
<g id="edge27" class="edge">
<title>Committed:e&#45;&gt;ReactionQueued:w</title>
<path fill="none" stroke="#e487c7" stroke-width="1.7" d="M414.8,-125.44C414.8,-125.44 541.27,-180.03 541.27,-180.03 541.27,-180.03 633.52,-180.03 633.52,-180.03 633.52,-180.03 873.4,-146.92 873.4,-146.92 873.4,-146.92 895.3,-136.54 908.64,-130.21"/>
<polygon fill="#e487c7" stroke="#e487c7" stroke-width="1.7" points="909.74,-133.1 916.37,-126.54 907.1,-127.53 909.74,-133.1"/>
<text xml:space="preserve" text-anchor="middle" x="587.4" y="-179.7" font-family="Noto Sans KR" font-size="10.50" fill="#bfc3c8">commit_then_react</text>
</g>
<!-- Committed&#45;&gt;Logged -->
<g id="edge28" class="edge">
<title>Committed:s&#45;&gt;Logged:n</title>
<path fill="none" stroke="#bfc3c8" stroke-width="1.7" stroke-dasharray="1,5" d="M345.4,-103.96C345.4,-103.96 459.4,-72.96 459.4,-72.96 459.4,-72.96 545.53,-52.77 576.49,-45.52"/>
<polygon fill="#bfc3c8" stroke="#bfc3c8" stroke-width="1.7" points="577.03,-48.55 584.89,-43.55 575.62,-42.56 577.03,-48.55"/>
</g>
<!-- ReactionQueued&#45;&gt;Requested -->
<g id="edge26" class="edge">
<title>ReactionQueued:nw&#45;&gt;Requested:sw</title>
<path fill="none" stroke="#e487c7" stroke-width="1.7" d="M919.69,-146.92C919.69,-146.92 1348.4,-335.38 1348.4,-335.38 1348.4,-335.38 1419.4,-540.26 1419.4,-540.26 1419.4,-540.26 1419.4,-598.22 1419.4,-598.22 1419.4,-598.22 1345.4,-801.89 1345.4,-801.89 1345.4,-801.89 1333.4,-832.89 1333.4,-832.89 1333.4,-832.89 1304.4,-905.85 1304.4,-905.85 1304.4,-905.85 620.22,-968.73 524.01,-977.57"/>
<polygon fill="#e487c7" stroke="#e487c7" stroke-width="1.7" points="523.86,-974.49 515.38,-978.36 524.43,-980.63 523.86,-974.49"/>
<text xml:space="preserve" text-anchor="middle" x="1484.28" y="-565.64" font-family="Noto Sans KR" font-size="10.50" fill="#bfc3c8">dequeue reaction command</text>
</g>
<!-- Scheduled&#45;&gt;Requested -->
<g id="edge23" class="edge">
<title>Scheduled:sw&#45;&gt;Requested:se</title>
<path fill="none" stroke="#70b7ff" stroke-width="1.7" stroke-dasharray="5,2" d="M839.7,-986.1C839.7,-986.1 808.46,-955.83 808.46,-955.83 808.46,-955.83 710.21,-955.83 710.21,-955.83 710.21,-955.83 701.93,-962.07 694.03,-968.01"/>
<polygon fill="#70b7ff" stroke="#70b7ff" stroke-width="1.7" points="687.21,-969.3 682.04,-977.05 690.92,-974.22 687.21,-969.3"/>
<text xml:space="preserve" text-anchor="middle" x="759.34" y="-958.61" font-family="Noto Sans KR" font-size="10.50" fill="#bfc3c8">due: enqueue request</text>
</g>
<!-- WaitingTrigger&#45;&gt;ReactionQueued -->
<g id="edge25" class="edge">
<title>WaitingTrigger:s&#45;&gt;ReactionQueued:n</title>
<path fill="none" stroke="#e487c7" stroke-width="1.7" d="M1501.4,-1109.31C1501.4,-1109.31 1650.4,-1008.58 1650.4,-1008.58 1650.4,-1008.58 1650.4,-1008.58 1650.4,-240.15 1650.4,-240.15 1092.57,-160.75 1006.49,-148.5"/>
<polygon fill="#e487c7" stroke="#e487c7" stroke-width="1.7" points="1007.09,-145.47 997.95,-147.28 1006.23,-151.57 1007.09,-145.47"/>
<text xml:space="preserve" text-anchor="middle" x="1706.65" y="-646.1" font-family="Noto Sans KR" font-size="10.50" fill="#bfc3c8">committed fact matched</text>
</g>
<!-- Cancelled&#45;&gt;Logged -->
<g id="edge31" class="edge">
<title>Cancelled:s&#45;&gt;Logged:n</title>
<path fill="none" stroke="#bfc3c8" stroke-width="1.7" stroke-dasharray="1,5" d="M591.4,-862.89C591.4,-862.89 475.4,-773.91 475.4,-773.91 475.4,-773.91 475.4,-773.91 475.4,-421.3 475.4,-421.3 540.4,-176.92 540.4,-176.92 540.4,-176.92 572.63,-85.05 583.71,-53.47"/>
<polygon fill="#bfc3c8" stroke="#bfc3c8" stroke-width="1.7" points="586.54,-54.71 586.55,-45.39 580.73,-52.67 586.54,-54.71"/>
</g>
<!-- Failed&#45;&gt;Logged -->
<g id="edge30" class="edge">
<title>Failed:s&#45;&gt;Logged:n</title>
<path fill="none" stroke="#bfc3c8" stroke-width="1.7" stroke-dasharray="1,5" d="M923.4,-219.67C923.4,-219.67 716.4,-103.96 716.4,-103.96 716.4,-103.96 627.93,-62.13 597.52,-47.75"/>
<polygon fill="#bfc3c8" stroke="#bfc3c8" stroke-width="1.7" points="599,-45.04 589.73,-44.06 596.36,-50.61 599,-45.04"/>
</g>
<!-- Defined -->
<g id="node1" class="node">
<title>Defined</title>
<path fill="#fd7e14" stroke="#ffb45c" stroke-width="1.8" d="M912.61,-1267.98C912.61,-1267.98 746.19,-1267.98 746.19,-1267.98 740.19,-1267.98 734.19,-1261.98 734.19,-1255.98 734.19,-1255.98 734.19,-1237.02 734.19,-1237.02 734.19,-1231.02 740.19,-1225.02 746.19,-1225.02 746.19,-1225.02 912.61,-1225.02 912.61,-1225.02 918.61,-1225.02 924.61,-1231.02 924.61,-1237.02 924.61,-1237.02 924.61,-1255.98 924.61,-1255.98 924.61,-1261.98 918.61,-1267.98 912.61,-1267.98"/>
<text xml:space="preserve" text-anchor="middle" x="829.4" y="-1250.1" font-family="Noto Sans KR" font-size="12.00" fill="#161924">Defined (product registry)</text>
<text xml:space="preserve" text-anchor="middle" x="829.4" y="-1235.1" font-family="Noto Sans KR" font-size="12.00" fill="#161924">target&#45;independent specification</text>
</g>
<!-- Registered -->
<g id="node2" class="node">
<title>Registered</title>
<path fill="#1971c2" stroke="#70b7ff" stroke-width="1.8" d="M912.23,-1152.27C912.23,-1152.27 746.57,-1152.27 746.57,-1152.27 740.57,-1152.27 734.57,-1146.27 734.57,-1140.27 734.57,-1140.27 734.57,-1121.31 734.57,-1121.31 734.57,-1115.31 740.57,-1109.31 746.57,-1109.31 746.57,-1109.31 912.23,-1109.31 912.23,-1109.31 918.23,-1109.31 924.23,-1115.31 924.23,-1121.31 924.23,-1121.31 924.23,-1140.27 924.23,-1140.27 924.23,-1146.27 918.23,-1152.27 912.23,-1152.27"/>
<text xml:space="preserve" text-anchor="middle" x="829.4" y="-1134.39" font-family="Noto Sans KR" font-size="12.00" fill="#efefef">Registered (product adapter)</text>
<text xml:space="preserve" text-anchor="middle" x="829.4" y="-1119.39" font-family="Noto Sans KR" font-size="12.00" fill="#efefef">loaded + normalized + validated</text>
</g>
<!-- Requested -->
<g id="node3" class="node">
<title>Requested</title>
<path fill="#1971c2" stroke="#70b7ff" stroke-width="1.8" d="M667.98,-1036.56C667.98,-1036.56 524.82,-1036.56 524.82,-1036.56 518.82,-1036.56 512.82,-1030.56 512.82,-1024.56 512.82,-1024.56 512.82,-990.6 512.82,-990.6 512.82,-984.6 518.82,-978.6 524.82,-978.6 524.82,-978.6 667.98,-978.6 667.98,-978.6 673.98,-978.6 679.98,-984.6 679.98,-990.6 679.98,-990.6 679.98,-1024.56 679.98,-1024.56 679.98,-1030.56 673.98,-1036.56 667.98,-1036.56"/>
<text xml:space="preserve" text-anchor="middle" x="596.4" y="-1018.68" font-family="Noto Sans KR" font-size="12.00" fill="#efefef">Requested</text>
<text xml:space="preserve" text-anchor="middle" x="596.4" y="-1003.68" font-family="Noto Sans KR" font-size="12.00" fill="#efefef">ReferenceEffectSpecification</text>
<text xml:space="preserve" text-anchor="middle" x="596.4" y="-988.68" font-family="Noto Sans KR" font-size="12.00" fill="#efefef">+ EffectContext</text>
</g>
<!-- SnapshotReady -->
<g id="node4" class="node">
<title>SnapshotReady</title>
<path fill="#b93d8e" stroke="#e487c7" stroke-width="1.8" d="M1263.86,-1036.56C1263.86,-1036.56 1092.95,-1036.56 1092.95,-1036.56 1086.95,-1036.56 1080.95,-1030.56 1080.95,-1024.56 1080.95,-1024.56 1080.95,-990.6 1080.95,-990.6 1080.95,-984.6 1086.95,-978.6 1092.95,-978.6 1092.95,-978.6 1263.86,-978.6 1263.86,-978.6 1269.86,-978.6 1275.86,-984.6 1275.86,-990.6 1275.86,-990.6 1275.86,-1024.56 1275.86,-1024.56 1275.86,-1030.56 1269.86,-1036.56 1263.86,-1036.56"/>
<text xml:space="preserve" text-anchor="middle" x="1178.4" y="-1018.68" font-family="Noto Sans KR" font-size="12.00" fill="#efefef">Snapshot Ready (spatial adapter)</text>
<text xml:space="preserve" text-anchor="middle" x="1178.4" y="-1003.68" font-family="Noto Sans KR" font-size="12.00" fill="#efefef">eligibility + integer metrics</text>
<text xml:space="preserve" text-anchor="middle" x="1178.4" y="-988.68" font-family="Noto Sans KR" font-size="12.00" fill="#efefef">immutable CandidateSnapshot</text>
</g>
<!-- Validating -->
<g id="node5" class="node">
<title>Validating</title>
<path fill="#b93d8e" stroke="#e487c7" stroke-width="1.8" d="M1261.61,-905.85C1261.61,-905.85 1095.2,-905.85 1095.2,-905.85 1089.2,-905.85 1083.2,-899.85 1083.2,-893.85 1083.2,-893.85 1083.2,-874.89 1083.2,-874.89 1083.2,-868.89 1089.2,-862.89 1095.2,-862.89 1095.2,-862.89 1261.61,-862.89 1261.61,-862.89 1267.61,-862.89 1273.61,-868.89 1273.61,-874.89 1273.61,-874.89 1273.61,-893.85 1273.61,-893.85 1273.61,-899.85 1267.61,-905.85 1261.61,-905.85"/>
<text xml:space="preserve" text-anchor="middle" x="1178.4" y="-887.97" font-family="Noto Sans KR" font-size="12.00" fill="#efefef">Validating</text>
<text xml:space="preserve" text-anchor="middle" x="1178.4" y="-872.97" font-family="Noto Sans KR" font-size="12.00" fill="#efefef">spec/context/snapshot structure</text>
</g>
<!-- ResolvingTargets -->
<g id="node6" class="node">
<title>ResolvingTargets</title>
<path fill="#b93d8e" stroke="#e487c7" stroke-width="1.8" d="M985.48,-801.89C985.48,-801.89 779.32,-801.89 779.32,-801.89 773.32,-801.89 767.32,-795.89 767.32,-789.89 767.32,-789.89 767.32,-755.93 767.32,-755.93 767.32,-749.93 773.32,-743.93 779.32,-743.93 779.32,-743.93 985.48,-743.93 985.48,-743.93 991.48,-743.93 997.48,-749.93 997.48,-755.93 997.48,-755.93 997.48,-789.89 997.48,-789.89 997.48,-795.89 991.48,-801.89 985.48,-801.89"/>
<text xml:space="preserve" text-anchor="middle" x="882.4" y="-784.01" font-family="Noto Sans KR" font-size="12.00" fill="#efefef">Resolving Targets (executable)</text>
<text xml:space="preserve" text-anchor="middle" x="882.4" y="-769.01" font-family="Noto Sans KR" font-size="12.00" fill="#efefef">one&#45;shot bind + total order + MaxTargets</text>
<text xml:space="preserve" text-anchor="middle" x="882.4" y="-754.01" font-family="Noto Sans KR" font-size="12.00" fill="#efefef">no eligibility recheck</text>
</g>
<!-- Resolved -->
<g id="node7" class="node">
<title>Resolved</title>
<path fill="#14745b" stroke="#70d0a8" stroke-width="1.8" d="M787.86,-671.18C787.86,-671.18 592.94,-671.18 592.94,-671.18 586.94,-671.18 580.94,-665.18 580.94,-659.18 580.94,-659.18 580.94,-640.22 580.94,-640.22 580.94,-634.22 586.94,-628.22 592.94,-628.22 592.94,-628.22 787.86,-628.22 787.86,-628.22 793.86,-628.22 799.86,-634.22 799.86,-640.22 799.86,-640.22 799.86,-659.18 799.86,-659.18 799.86,-665.18 793.86,-671.18 787.86,-671.18"/>
<text xml:space="preserve" text-anchor="middle" x="690.4" y="-653.3" font-family="Noto Sans KR" font-size="12.00" fill="#efefef">Resolved (executable)</text>
<text xml:space="preserve" text-anchor="middle" x="690.4" y="-638.3" font-family="Noto Sans KR" font-size="12.00" fill="#efefef">target&#45;bound ResolvedEffectOperation</text>
</g>
<!-- Planning -->
<g id="node8" class="node">
<title>Planning</title>
<path fill="#14745b" stroke="#70d0a8" stroke-width="1.8" d="M761.86,-510.26C761.86,-510.26 578.94,-510.26 578.94,-510.26 572.94,-510.26 566.94,-504.26 566.94,-498.26 566.94,-498.26 566.94,-464.3 566.94,-464.3 566.94,-458.3 572.94,-452.3 578.94,-452.3 578.94,-452.3 761.86,-452.3 761.86,-452.3 767.86,-452.3 773.86,-458.3 773.86,-464.3 773.86,-464.3 773.86,-498.26 773.86,-498.26 773.86,-504.26 767.86,-510.26 761.86,-510.26"/>
<text xml:space="preserve" text-anchor="middle" x="670.4" y="-492.38" font-family="Noto Sans KR" font-size="12.00" fill="#efefef">Planning (domain owner + adapter)</text>
<text xml:space="preserve" text-anchor="middle" x="670.4" y="-477.38" font-family="Noto Sans KR" font-size="12.00" fill="#efefef">pure EffectOperationOutcome</text>
<text xml:space="preserve" text-anchor="middle" x="670.4" y="-462.38" font-family="Noto Sans KR" font-size="12.00" fill="#efefef">+ optional CommitPlanFragment</text>
</g>
<!-- Prepared -->
<g id="node9" class="node">
<title>Prepared</title>
<path fill="#fd7e14" stroke="#ffb45c" stroke-width="1.8" d="M682.68,-388.71C682.68,-388.71 579.46,-365.93 579.46,-365.93 573.6,-364.63 573.6,-362.05 579.46,-360.75 579.46,-360.75 682.68,-337.97 682.68,-337.97 688.54,-336.67 700.26,-336.67 706.12,-337.97 706.12,-337.97 809.34,-360.75 809.34,-360.75 815.2,-362.05 815.2,-364.63 809.34,-365.93 809.34,-365.93 706.12,-388.71 706.12,-388.71 700.26,-390.01 688.54,-390.01 682.68,-388.71"/>
<text xml:space="preserve" text-anchor="middle" x="694.4" y="-359.44" font-family="Noto Sans KR" font-size="12.00" fill="#161924">Composition status?</text>
</g>
<!-- Ready -->
<g id="node10" class="node">
<title>Ready</title>
<path fill="#176b80" stroke="#77d3e5" stroke-width="1.8" d="M124.8,-262.63C124.8,-262.63 12,-262.63 12,-262.63 6,-262.63 0,-256.63 0,-250.63 0,-250.63 0,-231.67 0,-231.67 0,-225.67 6,-219.67 12,-219.67 12,-219.67 124.8,-219.67 124.8,-219.67 130.8,-219.67 136.8,-225.67 136.8,-231.67 136.8,-231.67 136.8,-250.63 136.8,-250.63 136.8,-256.63 130.8,-262.63 124.8,-262.63"/>
<text xml:space="preserve" text-anchor="middle" x="68.4" y="-244.75" font-family="Noto Sans KR" font-size="12.00" fill="#efefef">Ready</text>
<text xml:space="preserve" text-anchor="middle" x="68.4" y="-229.75" font-family="Noto Sans KR" font-size="12.00" fill="#efefef">CommitPlan exists</text>
</g>
<!-- NotApplicable -->
<g id="node11" class="node">
<title>NotApplicable</title>
<path fill="#868e96" stroke="#bfc3c8" stroke-width="1.8" d="M1013.86,-598.22C1013.86,-598.22 842.94,-598.22 842.94,-598.22 836.94,-598.22 830.94,-592.22 830.94,-586.22 830.94,-586.22 830.94,-552.26 830.94,-552.26 830.94,-546.26 836.94,-540.26 842.94,-540.26 842.94,-540.26 1013.86,-540.26 1013.86,-540.26 1019.86,-540.26 1025.86,-546.26 1025.86,-552.26 1025.86,-552.26 1025.86,-586.22 1025.86,-586.22 1025.86,-592.22 1019.86,-598.22 1013.86,-598.22"/>
<text xml:space="preserve" text-anchor="middle" x="928.4" y="-580.34" font-family="Noto Sans KR" font-size="12.00" fill="#161924">NotApplicable</text>
<text xml:space="preserve" text-anchor="middle" x="928.4" y="-565.34" font-family="Noto Sans KR" font-size="12.00" fill="#161924">missing explicit / empty snapshot</text>
<text xml:space="preserve" text-anchor="middle" x="928.4" y="-550.34" font-family="Noto Sans KR" font-size="12.00" fill="#161924">stable reason</text>
</g>
<!-- NoCommit -->
<g id="node12" class="node">
<title>NoCommit</title>
<path fill="#868e96" stroke="#bfc3c8" stroke-width="1.8" d="M728.23,-262.63C728.23,-262.63 610.57,-262.63 610.57,-262.63 604.57,-262.63 598.57,-256.63 598.57,-250.63 598.57,-250.63 598.57,-231.67 598.57,-231.67 598.57,-225.67 604.57,-219.67 610.57,-219.67 610.57,-219.67 728.23,-219.67 728.23,-219.67 734.23,-219.67 740.23,-225.67 740.23,-231.67 740.23,-231.67 740.23,-250.63 740.23,-250.63 740.23,-256.63 734.23,-262.63 728.23,-262.63"/>
<text xml:space="preserve" text-anchor="middle" x="669.4" y="-244.75" font-family="Noto Sans KR" font-size="12.00" fill="#161924">NoChanges</text>
<text xml:space="preserve" text-anchor="middle" x="669.4" y="-229.75" font-family="Noto Sans KR" font-size="12.00" fill="#161924">no commit · no outbox</text>
</g>
<!-- Committing -->
<g id="node13" class="node">
<title>Committing</title>
<path fill="#fd7e14" stroke="#ffb45c" stroke-width="1.8" d="M401.8,-262.63C401.8,-262.63 289,-262.63 289,-262.63 283,-262.63 277,-256.63 277,-250.63 277,-250.63 277,-231.67 277,-231.67 277,-225.67 283,-219.67 289,-219.67 289,-219.67 401.8,-219.67 401.8,-219.67 407.8,-219.67 413.8,-225.67 413.8,-231.67 413.8,-231.67 413.8,-250.63 413.8,-250.63 413.8,-256.63 407.8,-262.63 401.8,-262.63"/>
<text xml:space="preserve" text-anchor="middle" x="345.4" y="-244.75" font-family="Noto Sans KR" font-size="12.00" fill="#161924">Atomic Commit</text>
<text xml:space="preserve" text-anchor="middle" x="345.4" y="-229.75" font-family="Noto Sans KR" font-size="12.00" fill="#161924">state + outbox</text>
</g>
<!-- Committed -->
<g id="node14" class="node">
<title>Committed</title>
<path fill="#14745b" stroke="#70d0a8" stroke-width="1.8" d="M401.8,-146.92C401.8,-146.92 289,-146.92 289,-146.92 283,-146.92 277,-140.92 277,-134.92 277,-134.92 277,-115.96 277,-115.96 277,-109.96 283,-103.96 289,-103.96 289,-103.96 401.8,-103.96 401.8,-103.96 407.8,-103.96 413.8,-109.96 413.8,-115.96 413.8,-115.96 413.8,-134.92 413.8,-134.92 413.8,-140.92 407.8,-146.92 401.8,-146.92"/>
<text xml:space="preserve" text-anchor="middle" x="345.4" y="-129.04" font-family="Noto Sans KR" font-size="12.00" fill="#efefef">Committed</text>
<text xml:space="preserve" text-anchor="middle" x="345.4" y="-114.04" font-family="Noto Sans KR" font-size="12.00" fill="#efefef">EffectResult + facts</text>
</g>
<!-- ReactionQueued -->
<g id="node15" class="node">
<title>ReactionQueued</title>
<path fill="#b93d8e" stroke="#e487c7" stroke-width="1.8" d="M1059.11,-146.92C1059.11,-146.92 931.69,-146.92 931.69,-146.92 925.69,-146.92 919.69,-140.92 919.69,-134.92 919.69,-134.92 919.69,-115.96 919.69,-115.96 919.69,-109.96 925.69,-103.96 931.69,-103.96 931.69,-103.96 1059.11,-103.96 1059.11,-103.96 1065.11,-103.96 1071.11,-109.96 1071.11,-115.96 1071.11,-115.96 1071.11,-134.92 1071.11,-134.92 1071.11,-140.92 1065.11,-146.92 1059.11,-146.92"/>
<text xml:space="preserve" text-anchor="middle" x="995.4" y="-129.04" font-family="Noto Sans KR" font-size="12.00" fill="#efefef">Reaction Queued</text>
<text xml:space="preserve" text-anchor="middle" x="995.4" y="-114.04" font-family="Noto Sans KR" font-size="12.00" fill="#efefef">new bounded command</text>
</g>
<!-- Scheduled -->
<g id="node16" class="node">
<title>Scheduled</title>
<path fill="#868e96" stroke="#bfc3c8" stroke-width="1.8" d="M1008.11,-1029.06C1008.11,-1029.06 850.69,-1029.06 850.69,-1029.06 844.69,-1029.06 838.69,-1023.06 838.69,-1017.06 838.69,-1017.06 838.69,-998.1 838.69,-998.1 838.69,-992.1 844.69,-986.1 850.69,-986.1 850.69,-986.1 1008.11,-986.1 1008.11,-986.1 1014.11,-986.1 1020.11,-992.1 1020.11,-998.1 1020.11,-998.1 1020.11,-1017.06 1020.11,-1017.06 1020.11,-1023.06 1014.11,-1029.06 1008.11,-1029.06"/>
<text xml:space="preserve" text-anchor="middle" x="929.4" y="-1011.18" font-family="Noto Sans KR" font-size="12.00" fill="#161924">Scheduled (product extension)</text>
<text xml:space="preserve" text-anchor="middle" x="929.4" y="-996.18" font-family="Noto Sans KR" font-size="12.00" fill="#161924">delay / periodic due time</text>
</g>
<!-- WaitingTrigger -->
<g id="node17" class="node">
<title>WaitingTrigger</title>
<path fill="#868e96" stroke="#bfc3c8" stroke-width="1.8" d="M1590.23,-1152.27C1590.23,-1152.27 1412.57,-1152.27 1412.57,-1152.27 1406.57,-1152.27 1400.57,-1146.27 1400.57,-1140.27 1400.57,-1140.27 1400.57,-1121.31 1400.57,-1121.31 1400.57,-1115.31 1406.57,-1109.31 1412.57,-1109.31 1412.57,-1109.31 1590.23,-1109.31 1590.23,-1109.31 1596.23,-1109.31 1602.23,-1115.31 1602.23,-1121.31 1602.23,-1121.31 1602.23,-1140.27 1602.23,-1140.27 1602.23,-1146.27 1596.23,-1152.27 1590.23,-1152.27"/>
<text xml:space="preserve" text-anchor="middle" x="1501.4" y="-1134.39" font-family="Noto Sans KR" font-size="12.00" fill="#161924">Waiting Trigger (product extension)</text>
<text xml:space="preserve" text-anchor="middle" x="1501.4" y="-1119.39" font-family="Noto Sans KR" font-size="12.00" fill="#161924">committed fact predicate</text>
</g>
<!-- Cancelled -->
<g id="node18" class="node">
<title>Cancelled</title>
<path fill="#a63b4e" stroke="#ff8da1" stroke-width="1.8" d="M668.23,-905.85C668.23,-905.85 514.57,-905.85 514.57,-905.85 508.57,-905.85 502.57,-899.85 502.57,-893.85 502.57,-893.85 502.57,-874.89 502.57,-874.89 502.57,-868.89 508.57,-862.89 514.57,-862.89 514.57,-862.89 668.23,-862.89 668.23,-862.89 674.23,-862.89 680.23,-868.89 680.23,-874.89 680.23,-874.89 680.23,-893.85 680.23,-893.85 680.23,-899.85 674.23,-905.85 668.23,-905.85"/>
<text xml:space="preserve" text-anchor="middle" x="591.4" y="-887.97" font-family="Noto Sans KR" font-size="12.00" fill="#efefef">Cancelled (product extension)</text>
<text xml:space="preserve" text-anchor="middle" x="591.4" y="-872.97" font-family="Noto Sans KR" font-size="12.00" fill="#efefef">before composition</text>
</g>
<!-- Failed -->
<g id="node19" class="node">
<title>Failed</title>
<path fill="#a63b4e" stroke="#ff8da1" stroke-width="1.8" d="M1033.61,-262.63C1033.61,-262.63 813.19,-262.63 813.19,-262.63 807.19,-262.63 801.19,-256.63 801.19,-250.63 801.19,-250.63 801.19,-231.67 801.19,-231.67 801.19,-225.67 807.19,-219.67 813.19,-219.67 813.19,-219.67 1033.61,-219.67 1033.61,-219.67 1039.61,-219.67 1045.61,-225.67 1045.61,-231.67 1045.61,-231.67 1045.61,-250.63 1045.61,-250.63 1045.61,-256.63 1039.61,-262.63 1033.61,-262.63"/>
<text xml:space="preserve" text-anchor="middle" x="923.4" y="-244.75" font-family="Noto Sans KR" font-size="12.00" fill="#efefef">Failed</text>
<text xml:space="preserve" text-anchor="middle" x="923.4" y="-229.75" font-family="Noto Sans KR" font-size="12.00" fill="#efefef">configuration / Rejected outcome / commit</text>
</g>
<!-- Logged -->
<g id="node20" class="node">
<title>Logged</title>
<path fill="#b93d8e" stroke="#e487c7" stroke-width="1.8" d="M643.8,-42.96C643.8,-42.96 531,-42.96 531,-42.96 525,-42.96 519,-36.96 519,-30.96 519,-30.96 519,-12 519,-12 519,-6 525,0 531,0 531,0 643.8,0 643.8,0 649.8,0 655.8,-6 655.8,-12 655.8,-12 655.8,-30.96 655.8,-30.96 655.8,-36.96 649.8,-42.96 643.8,-42.96"/>
<text xml:space="preserve" text-anchor="middle" x="587.4" y="-25.08" font-family="Noto Sans KR" font-size="12.00" fill="#efefef">Observed</text>
<text xml:space="preserve" text-anchor="middle" x="587.4" y="-10.08" font-family="Noto Sans KR" font-size="12.00" fill="#efefef">DebugTrace / UI / log</text>
</g>
</g>
</svg>
