<?xml version="1.0" encoding="UTF-8" standalone="no"?>
<!DOCTYPE svg PUBLIC "-//W3C//DTD SVG 1.1//EN"
 "http://www.w3.org/Graphics/SVG/1.1/DTD/svg11.dtd">
<!-- Generated by graphviz version 15.1.0 (20260618.0150)
 -->
<!-- Title: G Pages: 1 -->
<svg data-diagram-theme="chalkboard-dark-v1" width="941pt" height="1463pt"
 viewBox="12.00 12.00 930.00 1451.00" xmlns="http://www.w3.org/2000/svg" xmlns:xlink="http://www.w3.org/1999/xlink">
<g id="graph0" class="graph" transform="scale(1.33333 1.33333) rotate(0) translate(36 1061.26)">
<title>G</title>
<polygon fill="#1e1e1e" stroke="none" points="-27.36,27.36 -27.36,-1052.62 661.28,-1052.62 661.28,27.36 -27.36,27.36"/>
<!-- StatusDefinition -->
<g id="node1" class="node">
<title>StatusDefinition</title>
<path fill="#272727" stroke="none" stroke-width="1.8" d="M392.38,-870.25C392.38,-870.25 287.38,-870.25 287.38,-870.25 281.38,-870.25 275.38,-864.25 275.38,-858.25 275.38,-858.25 275.38,-627 275.38,-627 275.38,-621 281.38,-615 287.38,-615 287.38,-615 392.38,-615 392.38,-615 398.38,-615 404.38,-621 404.38,-627 404.38,-627 404.38,-858.25 404.38,-858.25 404.38,-864.25 398.38,-870.25 392.38,-870.25"/>
<path fill="#272727" stroke="none" d="M287.38,-615C287.38,-615 392.38,-615 392.38,-615 398.38,-615 404.38,-621 404.38,-627 404.38,-627 404.38,-858.25 404.38,-858.25 404.38,-864.25 398.38,-870.25 392.38,-870.25 392.38,-870.25 287.38,-870.25 287.38,-870.25 281.38,-870.25 275.38,-864.25 275.38,-858.25 275.38,-858.25 275.38,-627 275.38,-627 275.38,-621 281.38,-615 287.38,-615"/>
<polygon fill="#fd7e14" stroke="none" points="276.38,-833 276.38,-869.25 403.38,-869.25 403.38,-833 276.38,-833"/>
<text xml:space="preserve" text-anchor="start" x="284.38" y="-847.05" font-family="Noto Sans KR" font-weight="bold" font-size="16.00" fill="#161924">StatusDefinition</text>
<text xml:space="preserve" text-anchor="start" x="284.38" y="-813" font-family="Noto Sans KR" font-size="12.00" fill="#efefef">+ StatusId</text>
<text xml:space="preserve" text-anchor="start" x="284.38" y="-782" font-family="Noto Sans KR" font-size="12.00" fill="#efefef">+ Tags</text>
<text xml:space="preserve" text-anchor="start" x="284.38" y="-751" font-family="Noto Sans KR" font-size="12.00" fill="#efefef">+ DurationRule</text>
<text xml:space="preserve" text-anchor="start" x="284.38" y="-720" font-family="Noto Sans KR" font-size="12.00" fill="#efefef">+ StackingRule</text>
<text xml:space="preserve" text-anchor="start" x="284.38" y="-689" font-family="Noto Sans KR" font-size="12.00" fill="#efefef">+ TickRule?</text>
<text xml:space="preserve" text-anchor="start" x="284.38" y="-658" font-family="Noto Sans KR" font-size="12.00" fill="#efefef">+ Modifiers[]</text>
<text xml:space="preserve" text-anchor="start" x="284.38" y="-627" font-family="Noto Sans KR" font-size="12.00" fill="#efefef">+ PeriodicEffects[]</text>
<path fill="none" stroke="#ffb45c" d="M287.38,-615C287.38,-615 392.38,-615 392.38,-615 398.38,-615 404.38,-621 404.38,-627 404.38,-627 404.38,-858.25 404.38,-858.25 404.38,-864.25 398.38,-870.25 392.38,-870.25 392.38,-870.25 287.38,-870.25 287.38,-870.25 281.38,-870.25 275.38,-864.25 275.38,-858.25 275.38,-858.25 275.38,-627 275.38,-627 275.38,-621 281.38,-615 287.38,-615"/>
</g>
<!-- StackPolicy -->
<g id="node4" class="node">
<title>StackPolicy</title>
<path fill="#272727" stroke="#efefef" stroke-width="1.8" d="M614.79,-1025.27C614.79,-1025.27 509.37,-1025.27 509.37,-1025.27 503.37,-1025.27 497.37,-1019.27 497.37,-1013.27 497.37,-1013.27 497.37,-959.99 497.37,-959.99 497.37,-953.99 503.37,-947.99 509.37,-947.99 509.37,-947.99 614.79,-947.99 614.79,-947.99 620.79,-947.99 626.79,-953.99 626.79,-959.99 626.79,-959.99 626.79,-1013.27 626.79,-1013.27 626.79,-1019.27 620.79,-1025.27 614.79,-1025.27"/>
<text xml:space="preserve" text-anchor="middle" x="562.08" y="-1005.23" font-family="Noto Sans KR" font-size="12.00" fill="#efefef">StackPolicy</text>
<text xml:space="preserve" text-anchor="middle" x="562.08" y="-990.23" font-family="Noto Sans KR" font-size="12.00" fill="#efefef">refresh / add</text>
<text xml:space="preserve" text-anchor="middle" x="562.08" y="-975.23" font-family="Noto Sans KR" font-size="12.00" fill="#efefef">replace</text>
<text xml:space="preserve" text-anchor="middle" x="562.08" y="-960.23" font-family="Noto Sans KR" font-size="12.00" fill="#efefef">independent stacks</text>
</g>
<!-- StatusDefinition&#45;&gt;StackPolicy -->
<g id="edge1" class="edge">
<title>StatusDefinition&#45;&gt;StackPolicy</title>
<path fill="none" stroke="#efefef" stroke-width="1.7" d="M404.22,-820.23C444.94,-870.11 490.25,-925.62 490.25,-925.62 490.25,-925.62 497.25,-931.65 506.85,-939.92"/>
<polygon fill="#efefef" stroke="#efefef" stroke-width="1.7" points="504.8,-942.22 513.47,-945.62 508.82,-937.55 504.8,-942.22"/>
</g>
<!-- DurationPolicy -->
<g id="node5" class="node">
<title>DurationPolicy</title>
<path fill="#272727" stroke="#efefef" stroke-width="1.8" d="M603.17,-903.26C603.17,-903.26 521,-903.26 521,-903.26 515,-903.26 509,-897.26 509,-891.26 509,-891.26 509,-837.99 509,-837.99 509,-831.99 515,-825.99 521,-825.99 521,-825.99 603.17,-825.99 603.17,-825.99 609.17,-825.99 615.17,-831.99 615.17,-837.99 615.17,-837.99 615.17,-891.26 615.17,-891.26 615.17,-897.26 609.17,-903.26 603.17,-903.26"/>
<text xml:space="preserve" text-anchor="middle" x="562.08" y="-883.23" font-family="Noto Sans KR" font-size="12.00" fill="#efefef">DurationPolicy</text>
<text xml:space="preserve" text-anchor="middle" x="562.08" y="-868.23" font-family="Noto Sans KR" font-size="12.00" fill="#efefef">refresh / extend</text>
<text xml:space="preserve" text-anchor="middle" x="562.08" y="-853.23" font-family="Noto Sans KR" font-size="12.00" fill="#efefef">fixed</text>
<text xml:space="preserve" text-anchor="middle" x="562.08" y="-838.23" font-family="Noto Sans KR" font-size="12.00" fill="#efefef">expire rule</text>
</g>
<!-- StatusDefinition&#45;&gt;DurationPolicy -->
<g id="edge2" class="edge">
<title>StatusDefinition&#45;&gt;DurationPolicy</title>
<path fill="none" stroke="#efefef" stroke-width="1.7" d="M404.27,-777.75C433.84,-794.13 468.92,-813.56 498.4,-829.9"/>
<polygon fill="#efefef" stroke="#efefef" stroke-width="1.7" points="496.72,-832.49 505.91,-834.06 499.71,-827.1 496.72,-832.49"/>
</g>
<!-- TickPolicy -->
<g id="node6" class="node">
<title>TickPolicy</title>
<path fill="#272727" stroke="#efefef" stroke-width="1.8" d="M609.54,-781.26C609.54,-781.26 514.62,-781.26 514.62,-781.26 508.62,-781.26 502.62,-775.26 502.62,-769.26 502.62,-769.26 502.62,-715.99 502.62,-715.99 502.62,-709.99 508.62,-703.99 514.62,-703.99 514.62,-703.99 609.54,-703.99 609.54,-703.99 615.54,-703.99 621.54,-709.99 621.54,-715.99 621.54,-715.99 621.54,-769.26 621.54,-769.26 621.54,-775.26 615.54,-781.26 609.54,-781.26"/>
<text xml:space="preserve" text-anchor="middle" x="562.08" y="-761.23" font-family="Noto Sans KR" font-size="12.00" fill="#efefef">TickPolicy</text>
<text xml:space="preserve" text-anchor="middle" x="562.08" y="-746.23" font-family="Noto Sans KR" font-size="12.00" fill="#efefef">Interval</text>
<text xml:space="preserve" text-anchor="middle" x="562.08" y="-731.23" font-family="Noto Sans KR" font-size="12.00" fill="#efefef">StartPolicy</text>
<text xml:space="preserve" text-anchor="middle" x="562.08" y="-716.23" font-family="Noto Sans KR" font-size="12.00" fill="#efefef">MaxCatchUpTicks</text>
</g>
<!-- StatusDefinition&#45;&gt;TickPolicy -->
<g id="edge3" class="edge">
<title>StatusDefinition&#45;&gt;TickPolicy</title>
<path fill="none" stroke="#efefef" stroke-width="1.7" d="M404.27,-742.62C431.3,-742.62 462.93,-742.62 490.68,-742.62"/>
<polygon fill="#efefef" stroke="#efefef" stroke-width="1.7" points="490.53,-745.71 499.33,-742.63 490.53,-739.55 490.53,-745.71"/>
</g>
<!-- StatusModifierProvider -->
<g id="node7" class="node">
<title>StatusModifierProvider</title>
<path fill="#272727" stroke="#efefef" stroke-width="1.8" d="M621.92,-659.26C621.92,-659.26 502.25,-659.26 502.25,-659.26 496.25,-659.26 490.25,-653.26 490.25,-647.26 490.25,-647.26 490.25,-593.99 490.25,-593.99 490.25,-587.99 496.25,-581.99 502.25,-581.99 502.25,-581.99 621.92,-581.99 621.92,-581.99 627.92,-581.99 633.92,-587.99 633.92,-593.99 633.92,-593.99 633.92,-647.26 633.92,-647.26 633.92,-653.26 627.92,-659.26 621.92,-659.26"/>
<text xml:space="preserve" text-anchor="middle" x="562.08" y="-639.23" font-family="Noto Sans KR" font-size="12.00" fill="#efefef">StatusModifierProvider</text>
<text xml:space="preserve" text-anchor="middle" x="562.08" y="-624.23" font-family="Noto Sans KR" font-size="12.00" fill="#efefef">create StatModifier</text>
<text xml:space="preserve" text-anchor="middle" x="562.08" y="-609.23" font-family="Noto Sans KR" font-size="12.00" fill="#efefef">modifier source =</text>
<text xml:space="preserve" text-anchor="middle" x="562.08" y="-594.23" font-family="Noto Sans KR" font-size="12.00" fill="#efefef">statusInstanceId</text>
</g>
<!-- StatusDefinition&#45;&gt;StatusModifierProvider -->
<g id="edge4" class="edge">
<title>StatusDefinition&#45;&gt;StatusModifierProvider</title>
<path fill="none" stroke="#efefef" stroke-width="1.7" d="M404.27,-707.5C427.94,-694.39 455.14,-679.32 480.18,-665.45"/>
<polygon fill="#efefef" stroke="#efefef" stroke-width="1.7" points="481.56,-668.2 487.77,-661.25 478.58,-662.82 481.56,-668.2"/>
</g>
<!-- StatusEffectHook -->
<g id="node8" class="node">
<title>StatusEffectHook</title>
<path fill="#272727" stroke="#efefef" stroke-width="1.8" d="M607.67,-537.26C607.67,-537.26 516.5,-537.26 516.5,-537.26 510.5,-537.26 504.5,-531.26 504.5,-525.26 504.5,-525.26 504.5,-471.99 504.5,-471.99 504.5,-465.99 510.5,-459.99 516.5,-459.99 516.5,-459.99 607.67,-459.99 607.67,-459.99 613.67,-459.99 619.67,-465.99 619.67,-471.99 619.67,-471.99 619.67,-525.26 619.67,-525.26 619.67,-531.26 613.67,-537.26 607.67,-537.26"/>
<text xml:space="preserve" text-anchor="middle" x="562.08" y="-517.23" font-family="Noto Sans KR" font-size="12.00" fill="#efefef">StatusEffectHook</text>
<text xml:space="preserve" text-anchor="middle" x="562.08" y="-502.23" font-family="Noto Sans KR" font-size="12.00" fill="#efefef">execute periodic</text>
<text xml:space="preserve" text-anchor="middle" x="562.08" y="-487.23" font-family="Noto Sans KR" font-size="12.00" fill="#efefef">effects</text>
<text xml:space="preserve" text-anchor="middle" x="562.08" y="-472.23" font-family="Noto Sans KR" font-size="12.00" fill="#efefef">react to events</text>
</g>
<!-- StatusDefinition&#45;&gt;StatusEffectHook -->
<g id="edge5" class="edge">
<title>StatusDefinition&#45;&gt;StatusEffectHook</title>
<path fill="none" stroke="#efefef" stroke-width="1.7" d="M404.22,-665.02C444.94,-615.14 490.25,-559.62 490.25,-559.62 490.25,-559.62 497.25,-553.6 506.85,-545.33"/>
<polygon fill="#efefef" stroke="#efefef" stroke-width="1.7" points="508.82,-547.7 513.47,-539.63 504.8,-543.03 508.82,-547.7"/>
</g>
<!-- StatusInstance -->
<g id="node2" class="node">
<title>StatusInstance</title>
<path fill="#272727" stroke="none" stroke-width="1.8" d="M388.25,-569.75C388.25,-569.75 291.5,-569.75 291.5,-569.75 285.5,-569.75 279.5,-563.75 279.5,-557.75 279.5,-557.75 279.5,-357.5 279.5,-357.5 279.5,-351.5 285.5,-345.5 291.5,-345.5 291.5,-345.5 388.25,-345.5 388.25,-345.5 394.25,-345.5 400.25,-351.5 400.25,-357.5 400.25,-357.5 400.25,-557.75 400.25,-557.75 400.25,-563.75 394.25,-569.75 388.25,-569.75"/>
<path fill="#272727" stroke="none" d="M291.5,-345.5C291.5,-345.5 388.25,-345.5 388.25,-345.5 394.25,-345.5 400.25,-351.5 400.25,-357.5 400.25,-357.5 400.25,-557.75 400.25,-557.75 400.25,-563.75 394.25,-569.75 388.25,-569.75 388.25,-569.75 291.5,-569.75 291.5,-569.75 285.5,-569.75 279.5,-563.75 279.5,-557.75 279.5,-557.75 279.5,-357.5 279.5,-357.5 279.5,-351.5 285.5,-345.5 291.5,-345.5"/>
<polygon fill="#14745b" stroke="none" points="280.5,-532.5 280.5,-568.75 399.25,-568.75 399.25,-532.5 280.5,-532.5"/>
<text xml:space="preserve" text-anchor="start" x="289.25" y="-546.55" font-family="Noto Sans KR" font-weight="bold" font-size="16.00" fill="#efefef">StatusInstance</text>
<text xml:space="preserve" text-anchor="start" x="288.5" y="-512.5" font-family="Noto Sans KR" font-size="12.00" fill="#efefef">+ InstanceId</text>
<text xml:space="preserve" text-anchor="start" x="288.5" y="-481.5" font-family="Noto Sans KR" font-size="12.00" fill="#efefef">+ TargetId: EntityId</text>
<text xml:space="preserve" text-anchor="start" x="288.5" y="-450.5" font-family="Noto Sans KR" font-size="12.00" fill="#efefef">+ Source: SourceRef</text>
<text xml:space="preserve" text-anchor="start" x="288.5" y="-419.5" font-family="Noto Sans KR" font-size="12.00" fill="#efefef">+ ExpiresAt</text>
<text xml:space="preserve" text-anchor="start" x="288.5" y="-388.5" font-family="Noto Sans KR" font-size="12.00" fill="#efefef">+ StackCount</text>
<text xml:space="preserve" text-anchor="start" x="288.5" y="-357.5" font-family="Noto Sans KR" font-size="12.00" fill="#efefef">+ NextTickAt</text>
<path fill="none" stroke="#70d0a8" d="M291.5,-345.5C291.5,-345.5 388.25,-345.5 388.25,-345.5 394.25,-345.5 400.25,-351.5 400.25,-357.5 400.25,-357.5 400.25,-557.75 400.25,-557.75 400.25,-563.75 394.25,-569.75 388.25,-569.75 388.25,-569.75 291.5,-569.75 291.5,-569.75 285.5,-569.75 279.5,-563.75 279.5,-557.75 279.5,-557.75 279.5,-357.5 279.5,-357.5 279.5,-351.5 285.5,-345.5 291.5,-345.5"/>
</g>
<!-- StatusController -->
<g id="node3" class="node">
<title>StatusController</title>
<path fill="#272727" stroke="none" stroke-width="1.8" d="M119.25,-460.25C119.25,-460.25 12,-460.25 12,-460.25 6,-460.25 0,-454.25 0,-448.25 0,-448.25 0,-279 0,-279 0,-273 6,-267 12,-267 12,-267 119.25,-267 119.25,-267 125.25,-267 131.25,-273 131.25,-279 131.25,-279 131.25,-448.25 131.25,-448.25 131.25,-454.25 125.25,-460.25 119.25,-460.25"/>
<path fill="#272727" stroke="none" d="M12,-267C12,-267 119.25,-267 119.25,-267 125.25,-267 131.25,-273 131.25,-279 131.25,-279 131.25,-448.25 131.25,-448.25 131.25,-454.25 125.25,-460.25 119.25,-460.25 119.25,-460.25 12,-460.25 12,-460.25 6,-460.25 0,-454.25 0,-448.25 0,-448.25 0,-279 0,-279 0,-273 6,-267 12,-267"/>
<polygon fill="#1971c2" stroke="none" points="1,-423 1,-459.25 130.25,-459.25 130.25,-423 1,-423"/>
<text xml:space="preserve" text-anchor="start" x="9" y="-437.05" font-family="Noto Sans KR" font-weight="bold" font-size="16.00" fill="#efefef">StatusController</text>
<text xml:space="preserve" text-anchor="start" x="9" y="-403" font-family="Noto Sans KR" font-size="12.00" fill="#efefef">+ Apply()</text>
<text xml:space="preserve" text-anchor="start" x="9" y="-372" font-family="Noto Sans KR" font-size="12.00" fill="#efefef">+ Refresh()</text>
<text xml:space="preserve" text-anchor="start" x="9" y="-341" font-family="Noto Sans KR" font-size="12.00" fill="#efefef">+ Remove()</text>
<text xml:space="preserve" text-anchor="start" x="9" y="-310" font-family="Noto Sans KR" font-size="12.00" fill="#efefef">+ Tick()</text>
<text xml:space="preserve" text-anchor="start" x="9" y="-279" font-family="Noto Sans KR" font-size="12.00" fill="#efefef">+ QueryByTag()</text>
<path fill="none" stroke="#70b7ff" d="M12,-267C12,-267 119.25,-267 119.25,-267 125.25,-267 131.25,-273 131.25,-279 131.25,-279 131.25,-448.25 131.25,-448.25 131.25,-454.25 125.25,-460.25 119.25,-460.25 119.25,-460.25 12,-460.25 12,-460.25 6,-460.25 0,-454.25 0,-448.25 0,-448.25 0,-279 0,-279 0,-273 6,-267 12,-267"/>
</g>
<!-- StatusController&#45;&gt;StatusDefinition -->
<g id="edge6" class="edge">
<title>StatusController&#45;&gt;StatusDefinition</title>
<path fill="none" stroke="#efefef" stroke-width="1.7" d="M131.14,-453.44C172.65,-511.22 226.57,-586.28 269.07,-645.45"/>
<polygon fill="#efefef" stroke="#efefef" stroke-width="1.7" points="266.39,-646.99 274.02,-652.34 271.39,-643.4 266.39,-646.99"/>
<text xml:space="preserve" text-anchor="middle" x="188.88" y="-567.26" font-family="Noto Sans KR" font-size="10.50" fill="#bfc3c8">lookup</text>
</g>
<!-- StatusController&#45;&gt;StatusInstance -->
<g id="edge7" class="edge">
<title>StatusController&#45;&gt;StatusInstance</title>
<path fill="none" stroke="#efefef" stroke-width="1.7" d="M131.14,-385.9C172.75,-400.27 226.82,-418.94 269.37,-433.63"/>
<polygon fill="#efefef" stroke="#efefef" stroke-width="1.7" points="268.17,-436.47 277.5,-436.43 270.18,-430.65 268.17,-436.47"/>
<text xml:space="preserve" text-anchor="middle" x="188.88" y="-416.22" font-family="Noto Sans KR" font-size="10.50" fill="#bfc3c8">owns 0..*</text>
</g>
<!-- DispelPolicy -->
<g id="node9" class="node">
<title>DispelPolicy</title>
<path fill="#272727" stroke="#efefef" stroke-width="1.8" d="M390.71,-300.76C390.71,-300.76 289.04,-300.76 289.04,-300.76 283.04,-300.76 277.04,-294.76 277.04,-288.76 277.04,-288.76 277.04,-250.49 277.04,-250.49 277.04,-244.49 283.04,-238.49 289.04,-238.49 289.04,-238.49 390.71,-238.49 390.71,-238.49 396.71,-238.49 402.71,-244.49 402.71,-250.49 402.71,-250.49 402.71,-288.76 402.71,-288.76 402.71,-294.76 396.71,-300.76 390.71,-300.76"/>
<text xml:space="preserve" text-anchor="middle" x="339.88" y="-280.73" font-family="Noto Sans KR" font-size="12.00" fill="#efefef">DispelPolicy</text>
<text xml:space="preserve" text-anchor="middle" x="339.88" y="-265.73" font-family="Noto Sans KR" font-size="12.00" fill="#efefef">cleanse / immunity</text>
<text xml:space="preserve" text-anchor="middle" x="339.88" y="-250.72" font-family="Noto Sans KR" font-size="12.00" fill="#efefef">tag&#45;based remove</text>
</g>
<!-- StatusController&#45;&gt;DispelPolicy -->
<g id="edge8" class="edge">
<title>StatusController&#45;&gt;DispelPolicy</title>
<path fill="none" stroke="#efefef" stroke-width="1.7" d="M131.14,-341.35C171.5,-327.41 223.6,-309.43 265.52,-294.95"/>
<polygon fill="#efefef" stroke="#efefef" stroke-width="1.7" points="266.48,-297.88 273.79,-292.1 264.47,-292.06 266.48,-297.88"/>
<text xml:space="preserve" text-anchor="middle" x="188.88" y="-333.31" font-family="Noto Sans KR" font-size="10.50" fill="#bfc3c8">remove rules</text>
</g>
<!-- StatusResult -->
<g id="node10" class="node">
<title>StatusResult</title>
<path fill="#272727" stroke="none" stroke-width="1.8" d="M421.25,-193.25C421.25,-193.25 258.5,-193.25 258.5,-193.25 252.5,-193.25 246.5,-187.25 246.5,-181.25 246.5,-181.25 246.5,-12 246.5,-12 246.5,-6 252.5,0 258.5,0 258.5,0 421.25,0 421.25,0 427.25,0 433.25,-6 433.25,-12 433.25,-12 433.25,-181.25 433.25,-181.25 433.25,-187.25 427.25,-193.25 421.25,-193.25"/>
<path fill="#272727" stroke="none" d="M258.5,0C258.5,0 421.25,0 421.25,0 427.25,0 433.25,-6 433.25,-12 433.25,-12 433.25,-181.25 433.25,-181.25 433.25,-187.25 427.25,-193.25 421.25,-193.25 421.25,-193.25 258.5,-193.25 258.5,-193.25 252.5,-193.25 246.5,-187.25 246.5,-181.25 246.5,-181.25 246.5,-12 246.5,-12 246.5,-6 252.5,0 258.5,0"/>
<polygon fill="#868e96" stroke="none" points="247.5,-156 247.5,-192.25 432.25,-192.25 432.25,-156 247.5,-156"/>
<text xml:space="preserve" text-anchor="start" x="255.5" y="-170.05" font-family="Noto Sans KR" font-weight="bold" font-size="16.00" fill="#161924">Conceptual StatusResult</text>
<text xml:space="preserve" text-anchor="start" x="255.5" y="-136" font-family="Noto Sans KR" font-size="12.00" fill="#efefef">+ Applied</text>
<text xml:space="preserve" text-anchor="start" x="255.5" y="-105" font-family="Noto Sans KR" font-size="12.00" fill="#efefef">+ Refreshed</text>
<text xml:space="preserve" text-anchor="start" x="255.5" y="-74" font-family="Noto Sans KR" font-size="12.00" fill="#efefef">+ StackChanged</text>
<text xml:space="preserve" text-anchor="start" x="255.5" y="-43" font-family="Noto Sans KR" font-size="12.00" fill="#efefef">+ Immune</text>
<text xml:space="preserve" text-anchor="start" x="255.5" y="-12" font-family="Noto Sans KR" font-size="12.00" fill="#efefef">+ Removed</text>
<path fill="none" stroke="#bfc3c8" d="M258.5,0C258.5,0 421.25,0 421.25,0 427.25,0 433.25,-6 433.25,-12 433.25,-12 433.25,-181.25 433.25,-181.25 433.25,-187.25 427.25,-193.25 421.25,-193.25 421.25,-193.25 258.5,-193.25 258.5,-193.25 252.5,-193.25 246.5,-187.25 246.5,-181.25 246.5,-181.25 246.5,-12 246.5,-12 246.5,-6 252.5,0 258.5,0"/>
</g>
<!-- StatusController&#45;&gt;StatusResult -->
<g id="edge9" class="edge">
<title>StatusController&#45;&gt;StatusResult</title>
<path fill="none" stroke="#efefef" stroke-width="1.7" d="M131.14,-300.35C163.23,-268.88 202.74,-230.13 238.66,-194.91"/>
<polygon fill="#efefef" stroke="#efefef" stroke-width="1.7" points="240.78,-197.14 244.9,-188.78 236.46,-192.75 240.78,-197.14"/>
<text xml:space="preserve" text-anchor="middle" x="188.88" y="-272.42" font-family="Noto Sans KR" font-size="10.50" fill="#bfc3c8">returns</text>
</g>
</g>
</svg>
