<?xml version="1.0" encoding="UTF-8" standalone="no"?>
<!DOCTYPE svg PUBLIC "-//W3C//DTD SVG 1.1//EN"
 "http://www.w3.org/Graphics/SVG/1.1/DTD/svg11.dtd">
<!-- Generated by graphviz version 15.1.0 (20260618.0150)
 -->
<!-- Title: G Pages: 1 -->
<svg data-diagram-theme="chalkboard-dark-v1" width="761pt" height="2181pt"
 viewBox="12.00 12.00 750.00 2169.00" xmlns="http://www.w3.org/2000/svg" xmlns:xlink="http://www.w3.org/1999/xlink">
<g id="graph0" class="graph" transform="scale(1.33333 1.33333) rotate(0) translate(36 1599.46)">
<title>G</title>
<polygon fill="#1e1e1e" stroke="none" points="-27.36,27.36 -27.36,-1590.82 526.18,-1590.82 526.18,27.36 -27.36,27.36"/>
<!-- start -->
<g id="node1" class="node">
<title>start</title>
<ellipse fill="#efefef" stroke="#efefef" stroke-width="1.8" cx="145.05" cy="-1554.1" rx="9.36" ry="9.36"/>
</g>
<!-- effect -->
<g id="node2" class="node">
<title>effect</title>
<path fill="#14745b" stroke="#70d0a8" stroke-width="1.8" d="M214.95,-1493.74C214.95,-1493.74 75.15,-1493.74 75.15,-1493.74 69.15,-1493.74 63.15,-1487.74 63.15,-1481.74 63.15,-1481.74 63.15,-1443.46 63.15,-1443.46 63.15,-1437.46 69.15,-1431.46 75.15,-1431.46 75.15,-1431.46 214.95,-1431.46 214.95,-1431.46 220.95,-1431.46 226.95,-1437.46 226.95,-1443.46 226.95,-1443.46 226.95,-1481.74 226.95,-1481.74 226.95,-1487.74 220.95,-1493.74 214.95,-1493.74"/>
<text xml:space="preserve" text-anchor="middle" x="145.05" y="-1473.7" font-family="Noto Sans KR" font-size="12.00" fill="#efefef">ApplyStatusEffect /</text>
<text xml:space="preserve" text-anchor="middle" x="145.05" y="-1458.7" font-family="Noto Sans KR" font-size="12.00" fill="#efefef">ReactionCommand</text>
<text xml:space="preserve" text-anchor="middle" x="145.05" y="-1443.7" font-family="Noto Sans KR" font-size="12.00" fill="#efefef">Build ApplyStatusRequest</text>
</g>
<!-- start&#45;&gt;effect -->
<g id="edge1" class="edge">
<title>start&#45;&gt;effect</title>
<path fill="none" stroke="#efefef" stroke-width="1.7" d="M145.05,-1543.86C145.05,-1534.7 145.05,-1519.99 145.05,-1505.65"/>
<polygon fill="#efefef" stroke="#efefef" stroke-width="1.7" points="148.13,-1505.72 145.05,-1496.92 141.97,-1505.72 148.13,-1505.72"/>
</g>
<!-- system -->
<g id="node3" class="node">
<title>system</title>
<path fill="#1971c2" stroke="#70b7ff" stroke-width="1.8" d="M218.7,-1380.46C218.7,-1380.46 71.4,-1380.46 71.4,-1380.46 65.4,-1380.46 59.4,-1374.46 59.4,-1368.46 59.4,-1368.46 59.4,-1345.18 59.4,-1345.18 59.4,-1339.18 65.4,-1333.18 71.4,-1333.18 71.4,-1333.18 218.7,-1333.18 218.7,-1333.18 224.7,-1333.18 230.7,-1339.18 230.7,-1345.18 230.7,-1345.18 230.7,-1368.46 230.7,-1368.46 230.7,-1374.46 224.7,-1380.46 218.7,-1380.46"/>
<text xml:space="preserve" text-anchor="middle" x="145.05" y="-1360.42" font-family="Noto Sans KR" font-size="12.00" fill="#efefef">StatusSystem</text>
<text xml:space="preserve" text-anchor="middle" x="145.05" y="-1345.42" font-family="Noto Sans KR" font-size="12.00" fill="#efefef">read target status snapshot</text>
</g>
<!-- effect&#45;&gt;system -->
<g id="edge2" class="edge">
<title>effect&#45;&gt;system</title>
<path fill="none" stroke="#efefef" stroke-width="1.7" d="M145.05,-1430.74C145.05,-1418.7 145.05,-1404.84 145.05,-1392.45"/>
<polygon fill="#efefef" stroke="#efefef" stroke-width="1.7" points="148.13,-1392.51 145.05,-1383.71 141.97,-1392.51 148.13,-1392.51"/>
</g>
<!-- immune -->
<g id="node4" class="node">
<title>immune</title>
<path fill="#272727" stroke="#efefef" stroke-width="1.8" d="M133.34,-1279.57C133.34,-1279.57 11.71,-1252.51 11.71,-1252.51 5.86,-1251.2 5.86,-1248.6 11.71,-1247.29 11.71,-1247.29 133.34,-1220.23 133.34,-1220.23 139.19,-1218.92 150.91,-1218.92 156.76,-1220.23 156.76,-1220.23 278.39,-1247.29 278.39,-1247.29 284.24,-1248.6 284.24,-1251.2 278.39,-1252.51 278.39,-1252.51 156.76,-1279.57 156.76,-1279.57 150.91,-1280.88 139.19,-1280.88 133.34,-1279.57"/>
<text xml:space="preserve" text-anchor="middle" x="145.05" y="-1246" font-family="Noto Sans KR" font-size="12.00" fill="#efefef">immune or protected?</text>
</g>
<!-- system&#45;&gt;immune -->
<g id="edge3" class="edge">
<title>system&#45;&gt;immune</title>
<path fill="none" stroke="#efefef" stroke-width="1.7" d="M145.05,-1332.53C145.05,-1321.23 145.05,-1307.29 145.05,-1294.14"/>
<polygon fill="#efefef" stroke="#efefef" stroke-width="1.7" points="148.13,-1294.25 145.05,-1285.45 141.97,-1294.25 148.13,-1294.25"/>
</g>
<!-- rejected -->
<g id="node5" class="node">
<title>rejected</title>
<path fill="#a63b4e" stroke="#ff8da1" stroke-width="1.8" d="M177.58,-1082.59C177.58,-1082.59 44.53,-1082.59 44.53,-1082.59 38.53,-1082.59 32.53,-1076.59 32.53,-1070.59 32.53,-1070.59 32.53,-1032.31 32.53,-1032.31 32.53,-1026.31 38.53,-1020.31 44.53,-1020.31 44.53,-1020.31 177.58,-1020.31 177.58,-1020.31 183.58,-1020.31 189.58,-1026.31 189.58,-1032.31 189.58,-1032.31 189.58,-1070.59 189.58,-1070.59 189.58,-1076.59 183.58,-1082.59 177.58,-1082.59"/>
<text xml:space="preserve" text-anchor="middle" x="111.05" y="-1062.55" font-family="Noto Sans KR" font-size="12.00" fill="#efefef">Conceptual StatusResult</text>
<text xml:space="preserve" text-anchor="middle" x="111.05" y="-1047.55" font-family="Noto Sans KR" font-size="12.00" fill="#efefef">immune / rejected</text>
<text xml:space="preserve" text-anchor="middle" x="111.05" y="-1032.55" font-family="Noto Sans KR" font-size="12.00" fill="#efefef">no mutation · no outbox</text>
</g>
<!-- immune&#45;&gt;rejected -->
<g id="edge4" class="edge">
<title>immune&#45;&gt;rejected</title>
<path fill="none" stroke="#efefef" stroke-width="1.7" d="M139.74,-1218.2C133.97,-1184.86 124.71,-1131.38 118.28,-1094.22"/>
<polygon fill="#efefef" stroke="#efefef" stroke-width="1.7" points="121.36,-1093.93 116.82,-1085.79 115.29,-1094.98 121.36,-1093.93"/>
<text xml:space="preserve" text-anchor="middle" x="142.64" y="-1182.64" font-family="Noto Sans KR" font-size="10.50" fill="#bfc3c8">yes</text>
</g>
<!-- stack -->
<g id="node6" class="node">
<title>stack</title>
<path fill="#fd7e14" stroke="#ffb45c" stroke-width="1.8" d="M341.83,-1154.87C341.83,-1154.87 192.28,-1154.87 192.28,-1154.87 186.28,-1154.87 180.28,-1148.87 180.28,-1142.87 180.28,-1142.87 180.28,-1119.59 180.28,-1119.59 180.28,-1113.59 186.28,-1107.59 192.28,-1107.59 192.28,-1107.59 341.83,-1107.59 341.83,-1107.59 347.83,-1107.59 353.83,-1113.59 353.83,-1119.59 353.83,-1119.59 353.83,-1142.87 353.83,-1142.87 353.83,-1148.87 347.83,-1154.87 341.83,-1154.87"/>
<text xml:space="preserve" text-anchor="middle" x="267.05" y="-1134.83" font-family="Noto Sans KR" font-size="12.00" fill="#161924">StackPolicy</text>
<text xml:space="preserve" text-anchor="middle" x="267.05" y="-1119.83" font-family="Noto Sans KR" font-size="12.00" fill="#161924">add · replace · refresh&#45;only</text>
</g>
<!-- immune&#45;&gt;stack -->
<g id="edge6" class="edge">
<title>immune&#45;&gt;stack</title>
<path fill="none" stroke="#efefef" stroke-width="1.7" d="M172.13,-1223.01C190.55,-1205.38 215.04,-1181.97 234.52,-1163.34"/>
<polygon fill="#efefef" stroke="#efefef" stroke-width="1.7" points="236.44,-1165.76 240.68,-1157.45 232.19,-1161.31 236.44,-1165.76"/>
<text xml:space="preserve" text-anchor="middle" x="222.98" y="-1182.64" font-family="Noto Sans KR" font-size="10.50" fill="#bfc3c8">no</text>
</g>
<!-- end -->
<g id="node16" class="node">
<title>end</title>
<ellipse fill="#272727" stroke="#efefef" stroke-width="1.8" cx="264.05" cy="-15.52" rx="11.52" ry="11.52"/>
<ellipse fill="none" stroke="#efefef" stroke-width="1.8" cx="264.05" cy="-15.52" rx="15.52" ry="15.52"/>
</g>
<!-- rejected&#45;&gt;end -->
<g id="edge5" class="edge">
<title>rejected&#45;&gt;end</title>
<path fill="none" stroke="#efefef" stroke-width="1.7" d="M109.6,-1019.61C107.82,-981.89 105.05,-923.03 105.05,-923.03 105.05,-923.03 105.05,-923.03 105.05,-112.18 105.05,-112.18 148.05,-82.04 148.05,-82.04 148.05,-82.04 206.78,-48.87 240.66,-29.73"/>
<polygon fill="#efefef" stroke="#efefef" stroke-width="1.7" points="241.9,-32.57 248.05,-25.56 238.87,-27.2 241.9,-32.57"/>
</g>
<!-- duration -->
<g id="node7" class="node">
<title>duration</title>
<path fill="#fd7e14" stroke="#ffb45c" stroke-width="1.8" d="M329.7,-995.31C329.7,-995.31 206.4,-995.31 206.4,-995.31 200.4,-995.31 194.4,-989.31 194.4,-983.31 194.4,-983.31 194.4,-960.03 194.4,-960.03 194.4,-954.03 200.4,-948.03 206.4,-948.03 206.4,-948.03 329.7,-948.03 329.7,-948.03 335.7,-948.03 341.7,-954.03 341.7,-960.03 341.7,-960.03 341.7,-983.31 341.7,-983.31 341.7,-989.31 335.7,-995.31 329.7,-995.31"/>
<text xml:space="preserve" text-anchor="middle" x="268.05" y="-975.27" font-family="Noto Sans KR" font-size="12.00" fill="#161924">DurationPolicy</text>
<text xml:space="preserve" text-anchor="middle" x="268.05" y="-960.27" font-family="Noto Sans KR" font-size="12.00" fill="#161924">refresh · extend · fixed</text>
</g>
<!-- stack&#45;&gt;duration -->
<g id="edge7" class="edge">
<title>stack&#45;&gt;duration</title>
<path fill="none" stroke="#efefef" stroke-width="1.7" d="M267.2,-1106.98C267.36,-1080.68 267.64,-1037.59 267.83,-1007.32"/>
<polygon fill="#efefef" stroke="#efefef" stroke-width="1.7" points="270.91,-1007.41 267.89,-998.59 264.75,-1007.37 270.91,-1007.41"/>
</g>
<!-- instance -->
<g id="node8" class="node">
<title>instance</title>
<path fill="#14745b" stroke="#70d0a8" stroke-width="1.8" d="M356.58,-897.03C356.58,-897.03 181.53,-897.03 181.53,-897.03 175.53,-897.03 169.53,-891.03 169.53,-885.03 169.53,-885.03 169.53,-846.75 169.53,-846.75 169.53,-840.75 175.53,-834.75 181.53,-834.75 181.53,-834.75 356.58,-834.75 356.58,-834.75 362.58,-834.75 368.58,-840.75 368.58,-846.75 368.58,-846.75 368.58,-885.03 368.58,-885.03 368.58,-891.03 362.58,-897.03 356.58,-897.03"/>
<text xml:space="preserve" text-anchor="middle" x="269.05" y="-876.99" font-family="Noto Sans KR" font-size="12.00" fill="#efefef">Prepare StatusInstance mutation</text>
<text xml:space="preserve" text-anchor="middle" x="269.05" y="-861.99" font-family="Noto Sans KR" font-size="12.00" fill="#efefef">expireTick · stackCount</text>
<text xml:space="preserve" text-anchor="middle" x="269.05" y="-846.99" font-family="Noto Sans KR" font-size="12.00" fill="#efefef">nextTickAt</text>
</g>
<!-- duration&#45;&gt;instance -->
<g id="edge8" class="edge">
<title>duration&#45;&gt;instance</title>
<path fill="none" stroke="#efefef" stroke-width="1.7" d="M268.27,-947.38C268.38,-936.01 268.52,-921.97 268.65,-908.83"/>
<polygon fill="#efefef" stroke="#efefef" stroke-width="1.7" points="271.72,-908.99 268.73,-900.16 265.56,-908.93 271.72,-908.99"/>
</g>
<!-- modifier -->
<g id="node9" class="node">
<title>modifier</title>
<path fill="#b93d8e" stroke="#e487c7" stroke-width="1.8" d="M341.95,-783.75C341.95,-783.75 196.15,-783.75 196.15,-783.75 190.15,-783.75 184.15,-777.75 184.15,-771.75 184.15,-771.75 184.15,-733.47 184.15,-733.47 184.15,-727.47 190.15,-721.47 196.15,-721.47 196.15,-721.47 341.95,-721.47 341.95,-721.47 347.95,-721.47 353.95,-727.47 353.95,-733.47 353.95,-733.47 353.95,-771.75 353.95,-771.75 353.95,-777.75 347.95,-783.75 341.95,-783.75"/>
<text xml:space="preserve" text-anchor="middle" x="269.05" y="-763.71" font-family="Noto Sans KR" font-size="12.00" fill="#efefef">Prepare Modifier mutations</text>
<text xml:space="preserve" text-anchor="middle" x="269.05" y="-748.71" font-family="Noto Sans KR" font-size="12.00" fill="#efefef">sourceId =</text>
<text xml:space="preserve" text-anchor="middle" x="269.05" y="-733.71" font-family="Noto Sans KR" font-size="12.00" fill="#efefef">StatusInstanceId</text>
</g>
<!-- instance&#45;&gt;modifier -->
<g id="edge9" class="edge">
<title>instance&#45;&gt;modifier</title>
<path fill="none" stroke="#efefef" stroke-width="1.7" d="M269.05,-833.89C269.05,-822.08 269.05,-808.4 269.05,-795.72"/>
<polygon fill="#efefef" stroke="#efefef" stroke-width="1.7" points="272.13,-795.81 269.05,-787.01 265.97,-795.81 272.13,-795.81"/>
</g>
<!-- tick -->
<g id="node10" class="node">
<title>tick</title>
<path fill="#b93d8e" stroke="#e487c7" stroke-width="1.8" d="M342.7,-670.47C342.7,-670.47 195.4,-670.47 195.4,-670.47 189.4,-670.47 183.4,-664.47 183.4,-658.47 183.4,-658.47 183.4,-635.19 183.4,-635.19 183.4,-629.19 189.4,-623.19 195.4,-623.19 195.4,-623.19 342.7,-623.19 342.7,-623.19 348.7,-623.19 354.7,-629.19 354.7,-635.19 354.7,-635.19 354.7,-658.47 354.7,-658.47 354.7,-664.47 348.7,-670.47 342.7,-670.47"/>
<text xml:space="preserve" text-anchor="middle" x="269.05" y="-650.43" font-family="Noto Sans KR" font-size="12.00" fill="#efefef">Prepare periodic schedule</text>
<text xml:space="preserve" text-anchor="middle" x="269.05" y="-635.43" font-family="Noto Sans KR" font-size="12.00" fill="#efefef">MaxCatchUpTicks included</text>
</g>
<!-- modifier&#45;&gt;tick -->
<g id="edge10" class="edge">
<title>modifier&#45;&gt;tick</title>
<path fill="none" stroke="#efefef" stroke-width="1.7" d="M269.05,-720.75C269.05,-708.71 269.05,-694.85 269.05,-682.46"/>
<polygon fill="#efefef" stroke="#efefef" stroke-width="1.7" points="272.13,-682.52 269.05,-673.72 265.97,-682.52 272.13,-682.52"/>
</g>
<!-- plan -->
<g id="node11" class="node">
<title>plan</title>
<path fill="#176b80" stroke="#77d3e5" stroke-width="1.8" d="M336.7,-572.19C336.7,-572.19 201.4,-572.19 201.4,-572.19 195.4,-572.19 189.4,-566.19 189.4,-560.19 189.4,-560.19 189.4,-521.91 189.4,-521.91 189.4,-515.91 195.4,-509.91 201.4,-509.91 201.4,-509.91 336.7,-509.91 336.7,-509.91 342.7,-509.91 348.7,-515.91 348.7,-521.91 348.7,-521.91 348.7,-560.19 348.7,-560.19 348.7,-566.19 342.7,-572.19 336.7,-572.19"/>
<text xml:space="preserve" text-anchor="middle" x="269.05" y="-552.15" font-family="Noto Sans KR" font-size="12.00" fill="#efefef">StatusCommitPlan</text>
<text xml:space="preserve" text-anchor="middle" x="269.05" y="-537.15" font-family="Noto Sans KR" font-size="12.00" fill="#efefef">instance + modifier + tick</text>
<text xml:space="preserve" text-anchor="middle" x="269.05" y="-522.15" font-family="Noto Sans KR" font-size="12.00" fill="#efefef">+ planned outbox</text>
</g>
<!-- tick&#45;&gt;plan -->
<g id="edge11" class="edge">
<title>tick&#45;&gt;plan</title>
<path fill="none" stroke="#efefef" stroke-width="1.7" d="M269.05,-622.54C269.05,-611.17 269.05,-597.13 269.05,-583.99"/>
<polygon fill="#efefef" stroke="#efefef" stroke-width="1.7" points="272.13,-584.12 269.05,-575.32 265.97,-584.12 272.13,-584.12"/>
</g>
<!-- commit -->
<g id="node12" class="node">
<title>commit</title>
<path fill="#14745b" stroke="#70d0a8" stroke-width="1.8" d="M327.33,-458.91C327.33,-458.91 210.78,-458.91 210.78,-458.91 204.78,-458.91 198.78,-452.91 198.78,-446.91 198.78,-446.91 198.78,-408.63 198.78,-408.63 198.78,-402.63 204.78,-396.63 210.78,-396.63 210.78,-396.63 327.33,-396.63 327.33,-396.63 333.33,-396.63 339.33,-402.63 339.33,-408.63 339.33,-408.63 339.33,-446.91 339.33,-446.91 339.33,-452.91 333.33,-458.91 327.33,-458.91"/>
<text xml:space="preserve" text-anchor="middle" x="269.05" y="-438.87" font-family="Noto Sans KR" font-size="12.00" fill="#efefef">RuntimeCommitter /</text>
<text xml:space="preserve" text-anchor="middle" x="269.05" y="-423.87" font-family="Noto Sans KR" font-size="12.00" fill="#efefef">Status commit</text>
<text xml:space="preserve" text-anchor="middle" x="269.05" y="-408.87" font-family="Noto Sans KR" font-size="12.00" fill="#efefef">state + outbox atomic</text>
</g>
<!-- plan&#45;&gt;commit -->
<g id="edge12" class="edge">
<title>plan&#45;&gt;commit</title>
<path fill="none" stroke="#efefef" stroke-width="1.7" d="M269.05,-509.05C269.05,-497.24 269.05,-483.56 269.05,-470.88"/>
<polygon fill="#efefef" stroke="#efefef" stroke-width="1.7" points="272.13,-470.97 269.05,-462.17 265.97,-470.97 272.13,-470.97"/>
</g>
<!-- event -->
<g id="node13" class="node">
<title>event</title>
<path fill="#868e96" stroke="#efefef" stroke-width="1.8" d="M336.95,-333.88C336.95,-333.88 197.15,-333.88 197.15,-333.88 191.15,-333.88 185.15,-327.88 185.15,-321.88 185.15,-321.88 185.15,-283.6 185.15,-283.6 185.15,-277.6 191.15,-271.6 197.15,-271.6 197.15,-271.6 336.95,-271.6 336.95,-271.6 342.95,-271.6 348.95,-277.6 348.95,-283.6 348.95,-283.6 348.95,-321.88 348.95,-321.88 348.95,-327.88 342.95,-333.88 336.95,-333.88"/>
<text xml:space="preserve" text-anchor="middle" x="267.05" y="-313.84" font-family="Noto Sans KR" font-size="12.00" fill="#161924">Committed facts dispatch</text>
<text xml:space="preserve" text-anchor="middle" x="267.05" y="-298.84" font-family="Noto Sans KR" font-size="12.00" fill="#161924">StatusApplied</text>
<text xml:space="preserve" text-anchor="middle" x="267.05" y="-283.84" font-family="Noto Sans KR" font-size="12.00" fill="#161924">StatusRefreshed</text>
</g>
<!-- commit&#45;&gt;event -->
<g id="edge15" class="edge">
<title>commit&#45;&gt;event</title>
<path fill="none" stroke="#efefef" stroke-width="1.7" d="M268.55,-396.04C268.3,-380.78 268,-362.1 267.73,-345.55"/>
<polygon fill="#efefef" stroke="#efefef" stroke-width="1.7" points="270.81,-345.82 267.59,-337.08 264.66,-345.92 270.81,-345.82"/>
<text xml:space="preserve" text-anchor="middle" x="285.73" y="-361.65" font-family="Noto Sans KR" font-size="10.50" fill="#bfc3c8">success</text>
</g>
<!-- failed -->
<g id="node15" class="node">
<title>failed</title>
<path fill="#a63b4e" stroke="#ff8da1" stroke-width="1.8" d="M486.83,-246.6C486.83,-246.6 355.27,-246.6 355.27,-246.6 349.27,-246.6 343.27,-240.6 343.27,-234.6 343.27,-234.6 343.27,-181.32 343.27,-181.32 343.27,-175.32 349.27,-169.32 355.27,-169.32 355.27,-169.32 486.83,-169.32 486.83,-169.32 492.83,-169.32 498.83,-175.32 498.83,-181.32 498.83,-181.32 498.83,-234.6 498.83,-234.6 498.83,-240.6 492.83,-246.6 486.83,-246.6"/>
<text xml:space="preserve" text-anchor="middle" x="421.05" y="-226.56" font-family="Noto Sans KR" font-size="12.00" fill="#efefef">Conceptual StatusResult</text>
<text xml:space="preserve" text-anchor="middle" x="421.05" y="-211.56" font-family="Noto Sans KR" font-size="12.00" fill="#efefef">version / invariant failed</text>
<text xml:space="preserve" text-anchor="middle" x="421.05" y="-196.56" font-family="Noto Sans KR" font-size="12.00" fill="#efefef">no partial state</text>
<text xml:space="preserve" text-anchor="middle" x="421.05" y="-181.56" font-family="Noto Sans KR" font-size="12.00" fill="#efefef">no event</text>
</g>
<!-- commit&#45;&gt;failed -->
<g id="edge13" class="edge">
<title>commit&#45;&gt;failed</title>
<path fill="none" stroke="#ff8da1" stroke-width="1.7" stroke-dasharray="5,2" d="M302.68,-395.84C332.06,-368.82 370.05,-333.88 370.05,-333.88 370.05,-333.88 386.86,-292.7 401.18,-257.62"/>
<polygon fill="#ff8da1" stroke="#ff8da1" stroke-width="1.7" points="403.88,-259.15 404.36,-249.84 398.18,-256.82 403.88,-259.15"/>
<text xml:space="preserve" text-anchor="middle" x="349.7" y="-361.65" font-family="Noto Sans KR" font-size="10.50" fill="#ff8da1">fail</text>
</g>
<!-- result -->
<g id="node14" class="node">
<title>result</title>
<path fill="#14745b" stroke="#70d0a8" stroke-width="1.8" d="M347.45,-144.32C347.45,-144.32 180.65,-144.32 180.65,-144.32 174.65,-144.32 168.65,-138.32 168.65,-132.32 168.65,-132.32 168.65,-94.04 168.65,-94.04 168.65,-88.04 174.65,-82.04 180.65,-82.04 180.65,-82.04 347.45,-82.04 347.45,-82.04 353.45,-82.04 359.45,-88.04 359.45,-94.04 359.45,-94.04 359.45,-132.32 359.45,-132.32 359.45,-138.32 353.45,-144.32 347.45,-144.32"/>
<text xml:space="preserve" text-anchor="middle" x="264.05" y="-124.28" font-family="Noto Sans KR" font-size="12.00" fill="#efefef">Conceptual StatusResult</text>
<text xml:space="preserve" text-anchor="middle" x="264.05" y="-109.28" font-family="Noto Sans KR" font-size="12.00" fill="#efefef">applied · refreshed</text>
<text xml:space="preserve" text-anchor="middle" x="264.05" y="-94.28" font-family="Noto Sans KR" font-size="12.00" fill="#efefef">stackChanged · tickScheduled</text>
</g>
<!-- event&#45;&gt;result -->
<g id="edge16" class="edge">
<title>event&#45;&gt;result</title>
<path fill="none" stroke="#efefef" stroke-width="1.7" d="M266.55,-270.77C266.06,-239.55 265.28,-191.13 264.73,-156.41"/>
<polygon fill="#efefef" stroke="#efefef" stroke-width="1.7" points="267.81,-156.52 264.59,-147.77 261.65,-156.62 267.81,-156.52"/>
</g>
<!-- result&#45;&gt;end -->
<g id="edge17" class="edge">
<title>result&#45;&gt;end</title>
<path fill="none" stroke="#efefef" stroke-width="1.7" d="M264.05,-81.39C264.05,-68.93 264.05,-54.71 264.05,-42.76"/>
<polygon fill="#efefef" stroke="#efefef" stroke-width="1.7" points="267.13,-43.09 264.05,-34.29 260.97,-43.09 267.13,-43.09"/>
</g>
<!-- failed&#45;&gt;end -->
<g id="edge14" class="edge">
<title>failed&#45;&gt;end</title>
<path fill="none" stroke="#efefef" stroke-width="1.7" d="M408.41,-168.46C396.37,-131.76 380.05,-82.04 380.05,-82.04 380.05,-82.04 321.32,-48.87 287.44,-29.73"/>
<polygon fill="#efefef" stroke="#efefef" stroke-width="1.7" points="289.23,-27.2 280.05,-25.56 286.2,-32.57 289.23,-27.2"/>
</g>
</g>
</svg>
